<svg width="15" height="14" viewBox="0 0 15 14" fill="none" xmlns="http://www.w3.org/2000/svg">
    <path d="M3.58 12c-.05 0-.1-.025-.15-.05a.28.28 0 0 1-.102-.278l1.11-4.134L1.11 4.84c-.1-.05-.126-.176-.1-.277a.242.242 0 0 1 .226-.176l4.286-.227L7.06.15C7.11.076 7.21 0 7.312 0c.1 0 .201.076.226.151L9.076 4.16l4.286.227c.1 0 .202.075.227.176.025.1 0 .202-.076.277l-3.327 2.698 1.109 4.134c.025.101 0 .202-.101.278-.076.05-.202.075-.277 0L7.312 9.63l-3.605 2.32c-.05.05-.076.05-.126.05z" fill="#4A4A4A"/>
</svg>
