<svg width="20" height="20" viewBox="0 0 20 20" fill="none" xmlns="http://www.w3.org/2000/svg">
    <circle cx="15.181" cy="4.864" fill="#FFDC00" r="1.2"/>
    <path fill-rule="evenodd" clip-rule="evenodd" d="M5 10c0 2.758 2.242 5 5 5s5-2.242 5-5-2.242-5-5-5-5 2.242-5 5zm2.5 0c0-1.379 1.121-2.5 2.5-2.5s2.5 1.121 2.5 2.5-1.121 2.5-2.5 2.5A2.503 2.503 0 0 1 7.5 10z" fill="#FFDC00"/>
    <path fill-rule="evenodd" clip-rule="evenodd" d="M5 20h10c2.57 0 5-2.43 5-5V5c0-2.57-2.43-5-5-5H5C2.43 0 0 2.43 0 5v10c0 2.57 2.43 5 5 5zM2.5 5c0-1.169 1.331-2.5 2.5-2.5h10c1.169 0 2.5 1.331 2.5 2.5v10c0 1.169-1.331 2.5-2.5 2.5H5c-1.191 0-2.5-1.309-2.5-2.5V5z" fill="#FFDC00"/>
</svg>
