<svg width="21" height="20" viewBox="0 0 21 20" fill="none" xmlns="http://www.w3.org/2000/svg">
    <path fill-rule="evenodd" clip-rule="evenodd" d="M.875 0h18.25c.5 0 .875.375 1 .875v18.25c0 .5-.375.875-.875.875H.875c-.5 0-.875-.375-.875-.75V.875C0 .375.375 0 .875 0zM3 17h3V7.5H3V17zM4.5 6.25c-1 0-1.75-.875-1.75-1.75 0-1 .75-1.75 1.75-1.75s1.75.75 1.75 1.75c-.125.875-.875 1.75-1.75 1.75zM14 17h2.875v-5.25c0-2.5-.5-4.5-3.5-4.5C12 7.25 11 8 10.625 8.75V7.5H7.75v9.625h3v-4.75c0-1.25.25-2.5 1.75-2.5s1.5 1.375 1.5 2.5V17z" fill="#FFDC00"/>
</svg>
