<?xml version="1.0" encoding="UTF-8"?>
<svg width="40px" height="30px" viewBox="0 0 40 30" version="1.1" xmlns="http://www.w3.org/2000/svg" xmlns:xlink="http://www.w3.org/1999/xlink">
    <title>ic_pa/DinnersClub</title>
    <defs>
        <polygon id="path-1" points="0 0.5255 1.0757 0.5255 1.0757 2.9485 0 2.9485"></polygon>
        <polygon id="path-3" points="0.1759 0.5253 2.9659 0.5253 2.9659 3 0.1759 3"></polygon>
        <polygon id="path-5" points="0.0738 0.5253 2.8638 0.5253 2.8638 3 0.0738 3"></polygon>
        <polygon id="path-7" points="0.6017 0.4752 3.2097 0.4752 3.2097 3 0.6017 3"></polygon>
        <polygon id="path-9" points="0.2663 0.5253 3.0553 0.5253 3.0553 3 0.2663 3"></polygon>
        <polygon id="path-11" points="1.0728 0.4437 1.794 0.4437 1.794 1.4437 1.0728 1.4437"></polygon>
        <polygon id="path-13" points="0.77 0.321 14.684 0.321 14.684 12.3480709 0.77 12.3480709"></polygon>
    </defs>
    <g id="ic_pa/DinnersClub" stroke="none" stroke-width="1" fill="none" fill-rule="evenodd">
        <rect id="Rectangle" stroke="#1E1E1E" x="0.5" y="0.5" width="39" height="29" rx="3"></rect>
        <g id="Group-86" transform="translate(5.000000, 4.000000)">
            <path d="M0.6012,14.1481 C0.6012,13.5821 0.3052,13.6191 0.0222,13.6131 L0.0222,13.4491 C0.2682,13.4611 0.5192,13.4611 0.7652,13.4611 C1.0302,13.4611 1.3892,13.4491 1.8552,13.4491 C3.4872,13.4491 4.3752,14.5391 4.3752,15.6541 C4.3752,16.2791 4.0102,17.8471 1.7792,17.8471 C1.4582,17.8471 1.1622,17.8351 0.8662,17.8351 C0.5822,17.8351 0.3052,17.8401 0.0222,17.8471 L0.0222,17.6831 C0.3992,17.6451 0.5822,17.6321 0.6012,17.2041 L0.6012,14.1481 Z M1.2182,17.1031 C1.2182,17.5881 1.5652,17.6451 1.8742,17.6451 C3.2352,17.6451 3.6822,16.6181 3.6822,15.6791 C3.6822,14.5021 2.9262,13.6511 1.7102,13.6511 C1.4512,13.6511 1.3322,13.6691 1.2182,13.6761 L1.2182,17.1031 Z" id="Fill-1" fill="#1D1D1B"></path>
            <path d="M4.5963,17.6832 L4.7153,17.6832 C4.8913,17.6832 5.0183,17.6832 5.0183,17.4742 L5.0183,15.7672 C5.0183,15.4912 4.9233,15.4522 4.6903,15.3272 L4.6903,15.2262 C4.9863,15.1372 5.3393,15.0182 5.3643,14.9992 C5.4083,14.9742 5.4463,14.9672 5.4783,14.9672 C5.5093,14.9672 5.5213,15.0052 5.5213,15.0562 L5.5213,17.4742 C5.5213,17.6832 5.6603,17.6832 5.8373,17.6832 L5.9443,17.6832 L5.9443,17.8472 C5.7293,17.8472 5.5093,17.8342 5.2833,17.8342 C5.0553,17.8342 4.8293,17.8402 4.5963,17.8472 L4.5963,17.6832 Z M5.2703,13.9972 C5.1063,13.9972 4.9613,13.8462 4.9613,13.6822 C4.9613,13.5242 5.1133,13.3792 5.2703,13.3792 C5.4333,13.3792 5.5783,13.5122 5.5783,13.6822 C5.5783,13.8532 5.4403,13.9972 5.2703,13.9972 L5.2703,13.9972 Z" id="Fill-3" fill="#1D1D1B"></path>
            <path d="M6.5426,15.8053 C6.5426,15.5733 6.4736,15.5093 6.1776,15.3903 L6.1776,15.2703 C6.4476,15.1823 6.7066,15.0993 7.0086,14.9673 C7.0276,14.9673 7.0456,14.9803 7.0456,15.0303 L7.0456,15.4403 C7.4056,15.1823 7.7146,14.9673 8.1376,14.9673 C8.6716,14.9673 8.8606,15.3583 8.8606,15.8493 L8.8606,17.4743 C8.8606,17.6833 9.0006,17.6833 9.1766,17.6833 L9.2896,17.6833 L9.2896,17.8473 C9.0686,17.8473 8.8486,17.8343 8.6216,17.8343 C8.3956,17.8343 8.1676,17.8403 7.9406,17.8473 L7.9406,17.6833 L8.0546,17.6833 C8.2316,17.6833 8.3566,17.6833 8.3566,17.4743 L8.3566,15.8433 C8.3566,15.4843 8.1376,15.3083 7.7776,15.3083 C7.5756,15.3083 7.2546,15.4713 7.0456,15.6103 L7.0456,17.4743 C7.0456,17.6833 7.1856,17.6833 7.3616,17.6833 L7.4756,17.6833 L7.4756,17.8473 C7.2546,17.8473 7.0346,17.8343 6.8066,17.8343 C6.5806,17.8343 6.3536,17.8403 6.1266,17.8473 L6.1266,17.6833 L6.2406,17.6833 C6.4166,17.6833 6.5426,17.6833 6.5426,17.4743 L6.5426,15.8053 Z" id="Fill-5" fill="#1D1D1B"></path>
            <path d="M9.7687,16.108 C9.7557,16.165 9.7557,16.259 9.7687,16.473 C9.8057,17.072 10.1907,17.563 10.6947,17.563 C11.0417,17.563 11.3127,17.374 11.5447,17.141 L11.6327,17.229 C11.3437,17.614 10.9847,17.942 10.4677,17.942 C9.4657,17.942 9.2647,16.97 9.2647,16.568 C9.2647,15.333 10.0957,14.967 10.5367,14.967 C11.0477,14.967 11.5957,15.289 11.6017,15.957 C11.6017,15.995 11.6017,16.032 11.5957,16.07 L11.5387,16.108 L9.7687,16.108 Z M10.8847,15.906 C11.0417,15.906 11.0597,15.824 11.0597,15.749 C11.0597,15.427 10.8647,15.17 10.5117,15.17 C10.1277,15.17 9.8627,15.452 9.7877,15.906 L10.8847,15.906 Z" id="Fill-7" fill="#1D1D1B"></path>
            <path d="M11.7467,17.6832 L11.9167,17.6832 C12.0927,17.6832 12.2187,17.6832 12.2187,17.4742 L12.2187,15.7042 C12.2187,15.5092 11.9857,15.4712 11.8917,15.4202 L11.8917,15.3272 C12.3507,15.1312 12.6037,14.9672 12.6617,14.9672 C12.6977,14.9672 12.7167,14.9862 12.7167,15.0492 L12.7167,15.6172 L12.7297,15.6172 C12.8877,15.3702 13.1527,14.9672 13.5367,14.9672 C13.6937,14.9672 13.8947,15.0742 13.8947,15.3012 C13.8947,15.4712 13.7757,15.6232 13.5997,15.6232 C13.4037,15.6232 13.4037,15.4712 13.1837,15.4712 C13.0767,15.4712 12.7237,15.6172 12.7237,15.9952 L12.7237,17.4742 C12.7237,17.6832 12.8497,17.6832 13.0257,17.6832 L13.3777,17.6832 L13.3777,17.8472 C13.0317,17.8402 12.7677,17.8342 12.4967,17.8342 C12.2387,17.8342 11.9737,17.8402 11.7467,17.8472 L11.7467,17.6832 Z" id="Fill-9" fill="#1D1D1B"></path>
            <path d="M14.172,16.9703 C14.255,17.3863 14.506,17.7403 14.966,17.7403 C15.338,17.7403 15.477,17.5123 15.477,17.2923 C15.477,16.5483 14.103,16.7883 14.103,15.7743 C14.103,15.4203 14.387,14.9673 15.08,14.9673 C15.281,14.9673 15.552,15.0243 15.798,15.1513 L15.842,15.7923 L15.697,15.7923 C15.634,15.3963 15.414,15.1693 15.01,15.1693 C14.758,15.1693 14.519,15.3143 14.519,15.5843 C14.519,16.3233 15.981,16.0953 15.981,17.0843 C15.981,17.4993 15.647,17.9423 14.897,17.9423 C14.645,17.9423 14.348,17.8533 14.129,17.7273 L14.059,17.0023 L14.172,16.9703 Z" id="Fill-11" fill="#1D1D1B"></path>
            <path d="M21.6691,14.5895 L21.5121,14.5895 C21.3921,13.8535 20.8691,13.5565 20.1641,13.5565 C19.4391,13.5565 18.3871,14.0405 18.3871,15.5535 C18.3871,16.8255 19.2951,17.7395 20.2651,17.7395 C20.8881,17.7395 21.4051,17.3115 21.5311,16.6495 L21.6761,16.6875 L21.5311,17.6075 C21.2671,17.7715 20.5551,17.9425 20.1381,17.9425 C18.6641,17.9425 17.7321,16.9895 17.7321,15.5725 C17.7321,14.2805 18.8851,13.3545 20.1201,13.3545 C20.6301,13.3545 21.1211,13.5185 21.6071,13.6895 L21.6691,14.5895 Z" id="Fill-13" fill="#1D1D1B"></path>
            <path d="M21.8966,17.6832 L22.0156,17.6832 C22.1926,17.6832 22.3186,17.6832 22.3186,17.4742 L22.3186,13.9662 C22.3186,13.5562 22.2246,13.5442 21.9846,13.4742 L21.9846,13.3732 C22.2366,13.2912 22.5006,13.1792 22.6336,13.1022 C22.7026,13.0652 22.7526,13.0332 22.7716,13.0332 C22.8106,13.0332 22.8226,13.0712 22.8226,13.1212 L22.8226,17.4742 C22.8226,17.6832 22.9606,17.6832 23.1376,17.6832 L23.2446,17.6832 L23.2446,17.8472 C23.0306,17.8472 22.8106,17.8342 22.5836,17.8342 C22.3566,17.8342 22.1296,17.8402 21.8966,17.8472 L21.8966,17.6832 Z" id="Fill-15" fill="#1D1D1B"></path>
            <path d="M25.9416,17.4996 C25.9416,17.6136 26.0106,17.6196 26.1176,17.6196 C26.1936,17.6196 26.2876,17.6136 26.3706,17.6136 L26.3706,17.7466 C26.0986,17.7706 25.5826,17.9036 25.4626,17.9416 L25.4306,17.9226 L25.4306,17.4116 C25.0526,17.7206 24.7626,17.9416 24.3156,17.9416 C23.9746,17.9416 23.6226,17.7206 23.6226,17.1916 L23.6226,15.5786 C23.6226,15.4146 23.5976,15.2576 23.2456,15.2266 L23.2456,15.1056 C23.4716,15.1006 23.9746,15.0616 24.0576,15.0616 C24.1276,15.0616 24.1276,15.1056 24.1276,15.2446 L24.1276,16.8696 C24.1276,17.0596 24.1276,17.6016 24.6746,17.6016 C24.8886,17.6016 25.1726,17.4376 25.4366,17.2176 L25.4366,15.5216 C25.4366,15.3956 25.1346,15.3266 24.9086,15.2646 L24.9086,15.1506 C25.4746,15.1116 25.8286,15.0616 25.8906,15.0616 C25.9416,15.0616 25.9416,15.1056 25.9416,15.1756 L25.9416,17.4996 Z" id="Fill-17" fill="#1D1D1B"></path>
            <path d="M27.1955,15.4205 C27.4475,15.2075 27.7875,14.9675 28.1335,14.9675 C28.8655,14.9675 29.3055,15.6045 29.3055,16.2905 C29.3055,17.1155 28.7015,17.9415 27.7995,17.9415 C27.3345,17.9415 27.0885,17.7895 26.9245,17.7205 L26.7355,17.8655 L26.6035,17.7965 C26.6595,17.4245 26.6915,17.0595 26.6915,16.6745 L26.6915,13.9665 C26.6915,13.5565 26.5965,13.5445 26.3575,13.4745 L26.3575,13.3735 C26.6095,13.2915 26.8745,13.1785 27.0065,13.1025 C27.0755,13.0655 27.1265,13.0325 27.1445,13.0325 C27.1825,13.0325 27.1955,13.0715 27.1955,13.1215 L27.1955,15.4205 Z M27.1955,17.1345 C27.1955,17.3735 27.4225,17.7775 27.8435,17.7775 C28.5175,17.7775 28.8015,17.1155 28.8015,16.5555 C28.8015,15.8745 28.2855,15.3085 27.7945,15.3085 C27.5595,15.3085 27.3655,15.4585 27.1955,15.6045 L27.1955,17.1345 Z" id="Fill-19" fill="#1D1D1B"></path>
            <path d="M0.0148,21.5104 L0.0628,21.5104 C0.1858,21.5104 0.3168,21.4924 0.3168,21.3154 L0.3168,19.5194 C0.3168,19.3404 0.1858,19.3224 0.0628,19.3224 L0.0148,19.3224 L0.0148,19.2204 C0.1488,19.2204 0.3538,19.2344 0.5228,19.2344 C0.6938,19.2344 0.8998,19.2204 1.0608,19.2204 L1.0608,19.3224 L1.0128,19.3224 C0.8898,19.3224 0.7588,19.3404 0.7588,19.5194 L0.7588,21.3154 C0.7588,21.4924 0.8898,21.5104 1.0128,21.5104 L1.0608,21.5104 L1.0608,21.6134 C0.8958,21.6134 0.6898,21.6004 0.5188,21.6004 C0.3508,21.6004 0.1488,21.6134 0.0148,21.6134 L0.0148,21.5104 Z" id="Fill-21" fill="#1D1D1B"></path>
            <g id="Group-25" transform="translate(0.000000, 18.679000)">
                <mask id="mask-2" fill="white">
                    <use xlink:href="#path-1"></use>
                </mask>
                <g id="Clip-24"></g>
                <path d="M1.0607,2.9485 C0.8947,2.9485 0.6897,2.9345 0.5187,2.9345 C0.3517,2.9345 0.1497,2.9485 0.0147,2.9485 L-0.0003,2.9485 L-0.0003,2.9335 L-0.0003,2.8315 L-0.0003,2.8165 L0.0147,2.8165 L0.0627,2.8165 C0.1867,2.8125 0.3007,2.8025 0.3017,2.6365 L0.3017,0.8405 C0.3007,0.6725 0.1867,0.6615 0.0627,0.6585 L-0.0003,0.6585 L-0.0003,0.6435 L-0.0003,0.5255 L0.0147,0.5255 C0.1497,0.5255 0.3547,0.5395 0.5227,0.5395 C0.6927,0.5395 0.8987,0.5255 1.0607,0.5255 L1.0757,0.5255 L1.0757,0.5415 L1.0757,0.6585 L1.0607,0.6585 L1.0127,0.6585 C0.8887,0.6615 0.7747,0.6725 0.7737,0.8405 L0.7737,2.6365 C0.7747,2.8025 0.8887,2.8125 1.0127,2.8165 L1.0757,2.8165 L1.0757,2.8315 L1.0757,2.9485 L1.0607,2.9485 Z M1.0457,2.9195 L1.0457,2.8455 L1.0127,2.8455 C0.8907,2.8455 0.7447,2.8245 0.7437,2.6365 L0.7437,0.8405 C0.7447,0.6495 0.8907,0.6295 1.0127,0.6295 L1.0457,0.6295 L1.0457,0.5555 C0.8877,0.5555 0.6887,0.5695 0.5227,0.5695 C0.3597,0.5695 0.1627,0.5565 0.0297,0.5555 L0.0297,0.6295 L0.0627,0.6295 C0.1857,0.6295 0.3317,0.6495 0.3317,0.8405 L0.3317,2.6365 C0.3317,2.8245 0.1857,2.8455 0.0627,2.8455 L0.0297,2.8455 L0.0297,2.9195 C0.1627,2.9185 0.3557,2.9055 0.5187,2.9055 C0.6857,2.9055 0.8837,2.9185 1.0457,2.9195 L1.0457,2.9195 Z" id="Fill-23" fill="#1D1D1B" mask="url(#mask-2)"></path>
            </g>
            <path d="M3.4157,20.9371 L3.4227,20.9301 L3.4227,19.6451 C3.4227,19.3641 3.2267,19.3231 3.1237,19.3231 L3.0487,19.3231 L3.0487,19.2201 C3.2097,19.2201 3.3677,19.2341 3.5287,19.2341 C3.6687,19.2341 3.8107,19.2201 3.9507,19.2201 L3.9507,19.3231 L3.8997,19.3231 C3.7547,19.3231 3.5937,19.3501 3.5937,19.7581 L3.5937,21.3181 C3.5937,21.4381 3.5977,21.5581 3.6137,21.6651 L3.4837,21.6651 L1.7187,19.6971 L1.7187,21.1091 C1.7187,21.4081 1.7767,21.5101 2.0407,21.5101 L2.0987,21.5101 L2.0987,21.6131 C1.9517,21.6131 1.8047,21.5991 1.6567,21.5991 C1.5027,21.5991 1.3447,21.6131 1.1907,21.6131 L1.1907,21.5101 L1.2387,21.5101 C1.4757,21.5101 1.5467,21.3491 1.5467,21.0761 L1.5467,19.6311 C1.5467,19.4391 1.3887,19.3231 1.2357,19.3231 L1.1907,19.3231 L1.1907,19.2201 C1.3207,19.2201 1.4547,19.2341 1.5847,19.2341 C1.6877,19.2341 1.7877,19.2201 1.8897,19.2201 L3.4157,20.9371 Z" id="Fill-26" fill="#1D1D1B"></path>
            <g id="Group-30" transform="translate(1.000000, 18.679000)">
                <mask id="mask-4" fill="white">
                    <use xlink:href="#path-3"></use>
                </mask>
                <g id="Clip-29"></g>
                <path d="M2.6139,3.0003 L2.4729,2.9953 L0.7329,1.0563 L0.7329,2.4303 C0.7369,2.7283 0.7819,2.8133 1.0409,2.8163 L1.1139,2.8163 L1.1139,2.8313 L1.1139,2.9483 L1.0989,2.9483 C0.9499,2.9483 0.8029,2.9353 0.6569,2.9353 C0.5029,2.9353 0.3459,2.9483 0.1909,2.9483 L0.1759,2.9483 L0.1759,2.9343 L0.1759,2.8163 L0.1909,2.8163 L0.2389,2.8163 C0.4649,2.8143 0.5299,2.6693 0.5319,2.3963 L0.5319,0.9523 C0.5319,0.7703 0.3819,0.6583 0.2359,0.6583 L0.1759,0.6583 L0.1759,0.6433 L0.1759,0.5253 L0.1909,0.5253 C0.3219,0.5253 0.4559,0.5393 0.5839,0.5393 C0.6859,0.5393 0.7849,0.5253 0.9009,0.5313 L2.4069,2.2283 L2.4069,0.9663 C2.4059,0.6943 2.2239,0.6613 2.1239,0.6583 L2.0329,0.6583 L2.0329,0.6433 L2.0329,0.5253 L2.0489,0.5253 C2.2109,0.5253 2.3679,0.5393 2.5289,0.5393 C2.6679,0.5393 2.8089,0.5253 2.9499,0.5253 L2.9659,0.5253 L2.9659,0.5413 L2.9659,0.6583 L2.9499,0.6583 L2.8989,0.6583 C2.7579,0.6623 2.6129,0.6753 2.6089,1.0793 L2.6089,2.6393 C2.6089,2.7593 2.6119,2.8793 2.6289,2.9823 L2.6319,3.0003 L2.6139,3.0003 Z M2.4839,2.9703 L2.5969,2.9703 C2.5819,2.8663 2.5789,2.7533 2.5789,2.6393 L2.5789,1.0793 C2.5789,0.6683 2.7519,0.6293 2.8989,0.6293 L2.9349,0.6293 L2.9349,0.5563 C2.8009,0.5573 2.6649,0.5693 2.5289,0.5693 C2.3719,0.5693 2.2189,0.5573 2.0639,0.5563 L2.0639,0.6293 L2.1239,0.6293 C2.2299,0.6293 2.4369,0.6763 2.4369,0.9663 L2.4329,2.2623 L2.4259,2.2693 L2.4139,2.2793 L0.8899,0.5563 C0.7879,0.5563 0.6889,0.5693 0.5839,0.5693 C0.4589,0.5693 0.3299,0.5573 0.2059,0.5563 L0.2049,0.6293 L0.2359,0.6293 C0.3959,0.6293 0.5619,0.7523 0.5619,0.9523 L0.5619,2.3963 C0.5619,2.6703 0.4849,2.8463 0.2389,2.8473 L0.2059,2.8463 L0.2059,2.9193 C0.3539,2.9183 0.5069,2.9053 0.6569,2.9053 C0.7999,2.9053 0.9429,2.9183 1.0839,2.9193 L1.0839,2.8473 L1.0409,2.8473 C0.7709,2.8463 0.7039,2.7283 0.7039,2.4303 L0.7039,0.9793 L2.4839,2.9703 Z" id="Fill-28" fill="#1D1D1B" mask="url(#mask-4)"></path>
            </g>
            <path d="M4.464,19.3912 C4.207,19.3912 4.196,19.4532 4.145,19.7032 L4.042,19.7032 C4.056,19.6072 4.073,19.5112 4.084,19.4122 C4.097,19.3162 4.104,19.2202 4.104,19.1202 L4.186,19.1202 C4.214,19.2242 4.299,19.2202 4.393,19.2202 L6.161,19.2202 C6.254,19.2202 6.339,19.2162 6.346,19.1142 L6.428,19.1272 C6.415,19.2202 6.401,19.3132 6.391,19.4062 C6.384,19.4972 6.384,19.5902 6.384,19.6832 L6.281,19.7212 C6.274,19.5942 6.257,19.3912 6.027,19.3912 L5.465,19.3912 L5.465,21.2152 C5.465,21.4802 5.585,21.5102 5.75,21.5102 L5.815,21.5102 L5.815,21.6132 C5.681,21.6132 5.441,21.6002 5.256,21.6002 C5.05,21.6002 4.81,21.6132 4.676,21.6132 L4.676,21.5102 L4.742,21.5102 C4.931,21.5102 5.026,21.4932 5.026,21.2222 L5.026,19.3912 L4.464,19.3912 Z" id="Fill-31" fill="#1D1D1B"></path>
            <path d="M5.8151,21.6275 C5.6801,21.6275 5.4401,21.6135 5.2561,21.6135 C5.0501,21.6135 4.8111,21.6275 4.6761,21.6275 L4.6621,21.6275 L4.6621,21.6125 L4.6621,21.4955 L4.6761,21.4955 L4.7421,21.4955 C4.9311,21.4905 5.0061,21.4885 5.0111,21.2225 L5.0111,19.4055 L4.4641,19.4055 L4.4641,19.3915 L4.4641,19.3765 L5.0411,19.3765 L5.0411,21.2225 C5.0411,21.4975 4.9301,21.5245 4.7421,21.5255 L4.6911,21.5255 L4.6911,21.5985 C4.8261,21.5975 5.0571,21.5845 5.2561,21.5845 C5.4351,21.5845 5.6641,21.5975 5.7991,21.5985 L5.7991,21.5255 L5.7501,21.5255 C5.5841,21.5245 5.4501,21.4845 5.4501,21.2155 L5.4501,19.3765 L6.0271,19.3765 C6.2571,19.3775 6.2881,19.5725 6.2951,19.6995 L6.3691,19.6725 C6.3691,19.5835 6.3701,19.4935 6.3761,19.4035 C6.3861,19.3145 6.3981,19.2285 6.4111,19.1405 L6.3591,19.1315 C6.3431,19.2315 6.2471,19.2355 6.1601,19.2345 L4.3931,19.2345 L4.3751,19.2345 C4.2941,19.2345 4.2061,19.2315 4.1751,19.1355 L4.1191,19.1355 C4.1181,19.2305 4.1111,19.3215 4.0991,19.4135 C4.0881,19.5075 4.0731,19.5985 4.0601,19.6895 L4.1331,19.6895 C4.1781,19.4495 4.2081,19.3725 4.4641,19.3765 L4.4641,19.3915 L4.4641,19.4055 C4.2101,19.4105 4.2151,19.4535 4.1601,19.7065 L4.1571,19.7185 L4.1451,19.7185 L4.0251,19.7185 L4.0271,19.7005 C4.0411,19.6055 4.0581,19.5095 4.0681,19.4095 C4.0831,19.3145 4.0891,19.2195 4.0891,19.1205 L4.0891,19.1065 L4.1041,19.1065 L4.1981,19.1065 L4.2011,19.1165 C4.2241,19.2025 4.2871,19.2035 4.3751,19.2045 L4.3931,19.2045 L6.1601,19.2045 C6.2561,19.2035 6.3251,19.2025 6.3311,19.1125 L6.3331,19.0965 L6.3481,19.0995 L6.4451,19.1145 L6.4421,19.1295 C6.4291,19.2225 6.4161,19.3145 6.4051,19.4055 C6.3991,19.4975 6.3991,19.5905 6.3991,19.6835 L6.3991,19.6925 L6.3891,19.6965 L6.2681,19.7415 L6.2671,19.7215 C6.2571,19.5925 6.2441,19.4055 6.0271,19.4055 L5.4801,19.4055 L5.4801,21.2155 C5.4831,21.4745 5.5861,21.4915 5.7501,21.4955 L5.8301,21.4955 L5.8301,21.5105 L5.8301,21.6275 L5.8151,21.6275 Z" id="Fill-33" fill="#1D1D1B"></path>
            <path d="M6.5378,21.5104 L6.5858,21.5104 C6.7088,21.5104 6.8398,21.4924 6.8398,21.3154 L6.8398,19.5194 C6.8398,19.3404 6.7088,19.3224 6.5858,19.3224 L6.5378,19.3224 L6.5378,19.2204 C6.7458,19.2204 7.1038,19.2344 7.3908,19.2344 C7.6798,19.2344 8.0358,19.2204 8.2688,19.2204 C8.2628,19.3674 8.2658,19.5944 8.2758,19.7444 L8.1728,19.7724 C8.1558,19.5494 8.1148,19.3714 7.7548,19.3714 L7.2788,19.3714 L7.2788,20.2694 L7.6858,20.2694 C7.8918,20.2694 7.9368,20.1534 7.9568,19.9674 L8.0598,19.9674 C8.0528,20.1014 8.0488,20.2354 8.0488,20.3684 C8.0488,20.4994 8.0528,20.6294 8.0598,20.7594 L7.9568,20.7804 C7.9368,20.5744 7.9268,20.4414 7.6898,20.4414 L7.2788,20.4414 L7.2788,21.2394 C7.2788,21.4624 7.4768,21.4624 7.6968,21.4624 C8.1078,21.4624 8.2888,21.4344 8.3918,21.0444 L8.4878,21.0684 C8.4438,21.2494 8.4028,21.4314 8.3718,21.6134 C8.1518,21.6134 7.7578,21.6004 7.4498,21.6004 C7.1408,21.6004 6.7328,21.6134 6.5378,21.6134 L6.5378,21.5104 Z" id="Fill-35" fill="#1D1D1B"></path>
            <path d="M8.3717,21.6275 C8.1517,21.6275 7.7567,21.6135 7.4497,21.6135 C7.1407,21.6135 6.7337,21.6275 6.5377,21.6275 L6.5227,21.6275 L6.5227,21.6125 L6.5227,21.5105 L6.5227,21.4955 L6.5377,21.4955 L6.5857,21.4955 C6.7097,21.4925 6.8227,21.4815 6.8247,21.3155 L6.8247,19.5195 C6.8227,19.3515 6.7097,19.3405 6.5857,19.3375 L6.5227,19.3375 L6.5227,19.3225 L6.5227,19.2045 L6.5377,19.2045 C6.7467,19.2045 7.1037,19.2185 7.3907,19.2185 C7.6797,19.2185 8.0347,19.2045 8.2687,19.2045 L8.2837,19.2045 L8.2837,19.2215 C8.2807,19.2725 8.2797,19.3335 8.2797,19.3985 C8.2797,19.5165 8.2837,19.6465 8.2897,19.7435 L8.2907,19.7555 L8.2787,19.7595 L8.1587,19.7905 L8.1577,19.7735 C8.1377,19.5505 8.1077,19.3895 7.7547,19.3855 L7.2927,19.3855 L7.2927,20.2535 L7.6857,20.2535 C7.8837,20.2515 7.9187,20.1505 7.9417,19.9665 L7.9427,19.9525 L7.9567,19.9525 L8.0747,19.9525 L8.0747,19.9675 C8.0677,20.1025 8.0637,20.2345 8.0637,20.3685 C8.0637,20.4985 8.0677,20.6285 8.0747,20.7585 L8.0747,20.7715 L8.0617,20.7735 L7.9427,20.7975 L7.9417,20.7815 C7.9187,20.5715 7.9167,20.4575 7.6897,20.4555 L7.2927,20.4555 L7.2927,21.2385 C7.2927,21.4475 7.4727,21.4455 7.6967,21.4475 C8.1087,21.4445 8.2747,21.4245 8.3777,21.0405 L8.3807,21.0255 L8.3957,21.0285 L8.5057,21.0575 L8.5027,21.0705 C8.4577,21.2525 8.4167,21.4345 8.3857,21.6155 L8.3837,21.6275 L8.3717,21.6275 Z M8.3587,21.5985 C8.3887,21.4245 8.4277,21.2515 8.4697,21.0785 L8.4027,21.0625 C8.2997,21.4455 8.1007,21.4805 7.6967,21.4775 C7.4797,21.4775 7.2647,21.4775 7.2637,21.2385 L7.2637,20.4255 L7.6897,20.4255 C7.9287,20.4235 7.9527,20.5675 7.9707,20.7625 L8.0437,20.7475 C8.0377,20.6205 8.0347,20.4945 8.0347,20.3685 C8.0347,20.2395 8.0377,20.1115 8.0437,19.9815 L7.9707,19.9815 C7.9507,20.1605 7.8947,20.2855 7.6857,20.2835 L7.2637,20.2835 L7.2637,19.3565 L7.7547,19.3565 C8.1117,19.3535 8.1707,19.5375 8.1857,19.7535 L8.2597,19.7325 C8.2537,19.6365 8.2497,19.5125 8.2497,19.3985 C8.2497,19.3395 8.2507,19.2835 8.2527,19.2345 C8.0197,19.2355 7.6727,19.2485 7.3907,19.2485 C7.1087,19.2485 6.7627,19.2355 6.5527,19.2345 L6.5527,19.3085 L6.5857,19.3085 C6.7077,19.3085 6.8537,19.3285 6.8547,19.5195 L6.8547,21.3155 C6.8537,21.5035 6.7077,21.5245 6.5857,21.5255 L6.5527,21.5255 L6.5527,21.5985 C6.7517,21.5975 7.1487,21.5845 7.4497,21.5845 C7.7517,21.5845 8.1377,21.5975 8.3587,21.5985 L8.3587,21.5985 Z" id="Fill-37" fill="#1D1D1B"></path>
            <path d="M8.9508,19.5836 C8.9508,19.3336 8.8138,19.3226 8.7068,19.3226 L8.6458,19.3226 L8.6458,19.2206 C8.7548,19.2206 8.9678,19.2336 9.1768,19.2336 C9.3828,19.2336 9.5468,19.2206 9.7288,19.2206 C10.1598,19.2206 10.5448,19.3366 10.5448,19.8236 C10.5448,20.1326 10.3388,20.3196 10.0688,20.4276 L10.6548,21.3046 C10.7508,21.4486 10.8188,21.4896 10.9868,21.5106 L10.9868,21.6126 C10.8738,21.6126 10.7638,21.6006 10.6508,21.6006 C10.5448,21.6006 10.4348,21.6126 10.3288,21.6126 C10.0648,21.2676 9.8388,20.8966 9.6158,20.5016 L9.3898,20.5016 L9.3898,21.2356 C9.3898,21.4996 9.5128,21.5106 9.6698,21.5106 L9.7318,21.5106 L9.7318,21.6126 C9.5358,21.6126 9.3388,21.6006 9.1428,21.6006 C8.9778,21.6006 8.8168,21.6126 8.6458,21.6126 L8.6458,21.5106 L8.7068,21.5106 C8.8348,21.5106 8.9508,21.4516 8.9508,21.3256 L8.9508,19.5836 Z M9.3898,20.3786 L9.5568,20.3786 C9.9008,20.3786 10.0848,20.2486 10.0848,19.8436 C10.0848,19.5386 9.8898,19.3436 9.5838,19.3436 C9.4818,19.3436 9.4378,19.3546 9.3898,19.3566 L9.3898,20.3786 Z" id="Fill-39" fill="#1D1D1B"></path>
            <path d="M10.987,21.6275 C10.872,21.6275 10.763,21.6135 10.65,21.6135 C10.546,21.6135 10.436,21.6275 10.317,21.6215 C10.054,21.2765 9.828,20.9085 9.607,20.5175 L9.404,20.5175 L9.404,21.2355 C9.408,21.4935 9.511,21.4915 9.67,21.4955 L9.747,21.4955 L9.747,21.5105 L9.747,21.6275 L9.732,21.6275 C9.536,21.6275 9.337,21.6135 9.142,21.6135 C8.979,21.6135 8.818,21.6275 8.646,21.6275 L8.631,21.6275 L8.631,21.6125 L8.631,21.4955 L8.646,21.4955 L8.707,21.4955 C8.831,21.4945 8.935,21.4405 8.935,21.3255 L8.935,19.5835 C8.933,19.3405 8.814,19.3415 8.707,19.3375 L8.631,19.3375 L8.631,19.3225 L8.631,19.2045 L8.646,19.2045 C8.757,19.2045 8.968,19.2185 9.177,19.2185 C9.382,19.2185 9.546,19.2045 9.729,19.2045 C10.161,19.2055 10.559,19.3245 10.56,19.8225 C10.56,20.1325 10.355,20.3255 10.091,20.4345 L10.667,21.2965 C10.762,21.4385 10.822,21.4745 10.989,21.4955 L11.002,21.4965 L11.002,21.5105 L11.002,21.6275 L10.987,21.6275 Z M9.39,20.4865 L9.624,20.4865 L9.628,20.4945 C9.851,20.8885 10.077,21.2595 10.329,21.5985 C10.433,21.5985 10.544,21.5845 10.65,21.5845 C10.759,21.5845 10.865,21.5965 10.972,21.5985 L10.972,21.5235 C10.811,21.5035 10.736,21.4545 10.642,21.3135 L10.046,20.4205 L10.062,20.4135 C10.331,20.3075 10.53,20.1245 10.53,19.8225 C10.53,19.3475 10.16,19.2365 9.729,19.2345 C9.549,19.2345 9.383,19.2485 9.177,19.2485 C8.976,19.2485 8.772,19.2355 8.66,19.2345 L8.66,19.3085 L8.707,19.3085 C8.814,19.3085 8.965,19.3255 8.965,19.5835 L8.965,21.3255 C8.965,21.4625 8.836,21.5245 8.707,21.5255 L8.66,21.5255 L8.66,21.5985 C8.825,21.5975 8.982,21.5845 9.142,21.5845 C9.334,21.5845 9.528,21.5975 9.717,21.5985 L9.717,21.5255 L9.67,21.5255 C9.514,21.5245 9.374,21.5065 9.374,21.2355 L9.374,20.4865 L9.39,20.4865 Z M9.39,20.3935 L9.374,20.3935 L9.374,19.3435 L9.387,19.3425 C9.434,19.3385 9.481,19.3285 9.584,19.3285 C9.897,19.3285 10.1,19.5315 10.1,19.8445 C10.099,20.2535 9.903,20.3935 9.557,20.3935 L9.39,20.3935 Z M9.557,20.3635 C9.897,20.3605 10.068,20.2425 10.071,19.8445 C10.069,19.5455 9.883,19.3585 9.584,19.3575 C9.492,19.3575 9.448,19.3665 9.404,19.3705 L9.404,20.3635 L9.557,20.3635 Z" id="Fill-41" fill="#1D1D1B"></path>
            <path d="M13.3146,20.9371 L13.3206,20.9301 L13.3206,19.6451 C13.3206,19.3641 13.1256,19.3231 13.0226,19.3231 L12.9476,19.3231 L12.9476,19.2201 C13.1086,19.2201 13.2656,19.2341 13.4276,19.2341 C13.5686,19.2341 13.7076,19.2201 13.8496,19.2201 L13.8496,19.3231 L13.7976,19.3231 C13.6536,19.3231 13.4926,19.3501 13.4926,19.7581 L13.4926,21.3181 C13.4926,21.4381 13.4966,21.5581 13.5126,21.6651 L13.3826,21.6651 L11.6176,19.6971 L11.6176,21.1091 C11.6176,21.4081 11.6756,21.5101 11.9396,21.5101 L11.9986,21.5101 L11.9986,21.6131 C11.8506,21.6131 11.7036,21.5991 11.5556,21.5991 C11.4006,21.5991 11.2436,21.6131 11.0896,21.6131 L11.0896,21.5101 L11.1366,21.5101 C11.3736,21.5101 11.4456,21.3491 11.4456,21.0761 L11.4456,19.6311 C11.4456,19.4391 11.2886,19.3231 11.1336,19.3231 L11.0896,19.3231 L11.0896,19.2201 C11.2196,19.2201 11.3546,19.2341 11.4836,19.2341 C11.5856,19.2341 11.6856,19.2201 11.7886,19.2201 L13.3146,20.9371 Z" id="Fill-43" fill="#1D1D1B"></path>
            <g id="Group-47" transform="translate(11.000000, 18.679000)">
                <mask id="mask-6" fill="white">
                    <use xlink:href="#path-5"></use>
                </mask>
                <g id="Clip-46"></g>
                <path d="M2.5128,3.0003 L2.3718,2.9953 L0.6318,1.0563 L0.6318,2.4303 C0.6358,2.7293 0.6808,2.8133 0.9398,2.8163 L1.0128,2.8163 L1.0128,2.8313 L1.0128,2.9483 L0.9968,2.9483 C0.8488,2.9483 0.7018,2.9353 0.5548,2.9353 C0.4018,2.9353 0.2438,2.9483 0.0898,2.9483 L0.0738,2.9483 L0.0738,2.9343 L0.0738,2.8163 L0.0898,2.8163 L0.1368,2.8163 C0.3638,2.8153 0.4288,2.6693 0.4308,2.3963 L0.4308,0.9523 C0.4298,0.7693 0.2808,0.6583 0.1338,0.6583 L0.0738,0.6583 L0.0738,0.6443 L0.0738,0.5253 L0.0898,0.5253 C0.2208,0.5253 0.3548,0.5393 0.4838,0.5393 C0.5848,0.5393 0.6838,0.5253 0.7988,0.5303 L2.3058,2.2283 L2.3058,0.9663 C2.3048,0.6943 2.1218,0.6603 2.0228,0.6583 L1.9318,0.6583 L1.9318,0.6443 L1.9318,0.5253 L1.9468,0.5253 C2.1088,0.5253 2.2668,0.5393 2.4278,0.5393 C2.5668,0.5393 2.7068,0.5253 2.8488,0.5253 L2.8638,0.5253 L2.8638,0.5413 L2.8638,0.6583 L2.8488,0.6583 L2.7978,0.6583 C2.6568,0.6623 2.5108,0.6753 2.5068,1.0793 L2.5068,2.6393 C2.5068,2.7593 2.5108,2.8783 2.5278,2.9823 L2.5298,3.0003 L2.5128,3.0003 Z M2.3828,2.9703 L2.4948,2.9703 C2.4808,2.8673 2.4768,2.7533 2.4768,2.6393 L2.4768,1.0793 C2.4778,0.6683 2.6508,0.6303 2.7978,0.6293 L2.8338,0.6293 L2.8338,0.5563 C2.6988,0.5573 2.5638,0.5693 2.4278,0.5693 C2.2698,0.5693 2.1168,0.5573 1.9618,0.5563 L1.9618,0.6293 L2.0228,0.6293 C2.1278,0.6303 2.3358,0.6763 2.3358,0.9663 L2.3308,2.2623 L2.3248,2.2693 L2.3138,2.2803 L0.7888,0.5563 C0.6868,0.5563 0.5878,0.5693 0.4838,0.5693 C0.3568,0.5693 0.2288,0.5573 0.1038,0.5563 L0.1038,0.6293 L0.1338,0.6293 C0.2958,0.6303 0.4598,0.7513 0.4598,0.9523 L0.4598,2.3963 C0.4598,2.6703 0.3828,2.8463 0.1368,2.8473 L0.1038,2.8463 L0.1038,2.9193 C0.2518,2.9183 0.4048,2.9053 0.5548,2.9053 C0.6988,2.9053 0.8418,2.9183 0.9828,2.9193 L0.9828,2.8473 L0.9398,2.8473 C0.6698,2.8463 0.6028,2.7293 0.6018,2.4303 L0.6018,0.9793 L2.3828,2.9703 Z" id="Fill-45" fill="#1D1D1B" mask="url(#mask-6)"></path>
            </g>
            <path d="M14.4005,21.1227 C14.3655,21.2387 14.3245,21.3287 14.3245,21.3907 C14.3245,21.4927 14.4685,21.5107 14.5815,21.5107 L14.6205,21.5107 L14.6205,21.6127 C14.4825,21.6057 14.3425,21.6007 14.2045,21.6007 C14.0815,21.6007 13.9585,21.6057 13.8345,21.6127 L13.8345,21.5107 L13.8555,21.5107 C13.9885,21.5107 14.1025,21.4317 14.1535,21.2867 L14.7015,19.7147 C14.7465,19.5867 14.8085,19.4157 14.8295,19.2887 C14.9385,19.2507 15.0755,19.1837 15.1405,19.1417 C15.1515,19.1377 15.1575,19.1347 15.1685,19.1347 C15.1785,19.1347 15.1855,19.1347 15.1925,19.1447 C15.2025,19.1727 15.2125,19.2027 15.2235,19.2297 L15.8545,21.0237 C15.8955,21.1437 15.9365,21.2697 15.9795,21.3737 C16.0215,21.4697 16.0935,21.5107 16.2075,21.5107 L16.2275,21.5107 L16.2275,21.6127 C16.0735,21.6057 15.9195,21.6007 15.7545,21.6007 C15.5875,21.6007 15.4155,21.6057 15.2405,21.6127 L15.2405,21.5107 L15.2775,21.5107 C15.3565,21.5107 15.4915,21.4967 15.4915,21.4107 C15.4915,21.3667 15.4605,21.2737 15.4215,21.1637 L15.2885,20.7667 L14.5095,20.7667 L14.4005,21.1227 Z M14.9005,19.6037 L14.8935,19.6037 L14.5755,20.5747 L15.2155,20.5747 L14.9005,19.6037 Z" id="Fill-48" fill="#1D1D1B"></path>
            <path d="M16.2267,21.6275 C16.0727,21.6205 15.9177,21.6135 15.7547,21.6135 C15.5867,21.6135 15.4157,21.6205 15.2407,21.6275 L15.2257,21.6285 L15.2257,21.6125 L15.2257,21.4945 L15.2407,21.4945 L15.2777,21.4945 C15.3577,21.4945 15.4747,21.4775 15.4757,21.4105 C15.4767,21.3715 15.4457,21.2775 15.4077,21.1685 L15.2767,20.7805 L14.5207,20.7805 L14.4147,21.1275 C14.3797,21.2435 14.3387,21.3345 14.3387,21.3905 C14.3397,21.4745 14.4677,21.4945 14.5817,21.4945 L14.6347,21.4945 L14.6347,21.5105 L14.6347,21.6285 L14.6187,21.6275 C14.4817,21.6205 14.3417,21.6135 14.2047,21.6135 C14.0827,21.6135 13.9587,21.6205 13.8357,21.6275 L13.8197,21.6285 L13.8197,21.6125 L13.8197,21.4945 L13.8347,21.4945 L13.8547,21.4945 C13.9827,21.4945 14.0897,21.4215 14.1387,21.2825 L14.6877,19.7085 C14.7317,19.5815 14.7947,19.4115 14.8237,19.2735 C14.9317,19.2375 15.0697,19.1685 15.1357,19.1275 C15.1447,19.1235 15.1547,19.1195 15.1677,19.1195 C15.1767,19.1185 15.1947,19.1215 15.2057,19.1395 C15.2157,19.1675 15.2267,19.1975 15.2367,19.2255 L15.8687,21.0185 C15.9087,21.1385 15.9497,21.2655 15.9947,21.3665 C16.0347,21.4585 16.0967,21.4945 16.2067,21.4945 L16.2427,21.4945 L16.2427,21.5105 L16.2427,21.6285 L16.2267,21.6275 Z M15.2547,21.5975 C15.4247,21.5915 15.5907,21.5845 15.7547,21.5845 C15.9147,21.5845 16.0637,21.5915 16.2117,21.5975 L16.2117,21.5245 L16.2067,21.5245 C16.0897,21.5255 16.0087,21.4805 15.9667,21.3785 C15.9217,21.2745 15.8807,21.1485 15.8397,21.0275 L15.2087,19.2345 C15.1987,19.2075 15.1887,19.1775 15.1797,19.1525 C15.1767,19.1485 15.1777,19.1485 15.1747,19.1485 L15.1677,19.1485 C15.1617,19.1485 15.1567,19.1505 15.1477,19.1535 C15.0817,19.1955 14.9447,19.2645 14.8427,19.2905 C14.8217,19.4205 14.7607,19.5915 14.7157,19.7195 L14.1667,21.2915 C14.1147,21.4405 13.9947,21.5255 13.8547,21.5245 L13.8497,21.5245 L13.8497,21.5975 C13.9677,21.5915 14.0857,21.5845 14.2047,21.5845 C14.3377,21.5845 14.4727,21.5915 14.6037,21.5975 L14.6037,21.5245 L14.5817,21.5245 C14.4697,21.5235 14.3137,21.5115 14.3097,21.3905 C14.3097,21.3215 14.3517,21.2345 14.3857,21.1185 L14.4007,21.1225 L14.3857,21.1175 L14.4987,20.7515 L15.2977,20.7515 L15.4357,21.1585 C15.4737,21.2695 15.5047,21.3605 15.5047,21.4105 C15.4997,21.5165 15.3557,21.5235 15.2777,21.5245 L15.2547,21.5245 L15.2547,21.5975 Z M14.5547,20.5895 L14.8827,19.5885 L14.8937,19.5885 L14.9007,19.5885 L14.9007,19.6045 L14.8977,19.6055 L14.9007,19.6045 L14.9007,19.5885 L14.9117,19.5885 L15.2367,20.5895 L14.5547,20.5895 Z M14.5957,20.5595 L15.1957,20.5595 L14.8967,19.6405 L14.5957,20.5595 Z" id="Fill-50" fill="#1D1D1B"></path>
            <path d="M16.3791,19.3912 C16.1211,19.3912 16.1111,19.4532 16.0601,19.7032 L15.9561,19.7032 C15.9701,19.6072 15.9871,19.5112 15.9981,19.4122 C16.0121,19.3162 16.0181,19.2202 16.0181,19.1202 L16.1011,19.1202 C16.1281,19.2242 16.2141,19.2202 16.3061,19.2202 L18.0751,19.2202 C18.1671,19.2202 18.2531,19.2162 18.2601,19.1142 L18.3421,19.1272 C18.3291,19.2202 18.3161,19.3132 18.3051,19.4062 C18.2971,19.4972 18.2971,19.5902 18.2971,19.6832 L18.1941,19.7212 C18.1891,19.5942 18.1721,19.3912 17.9411,19.3912 L17.3791,19.3912 L17.3791,21.2152 C17.3791,21.4802 17.4991,21.5102 17.6631,21.5102 L17.7301,21.5102 L17.7301,21.6132 C17.5961,21.6132 17.3561,21.6002 17.1701,21.6002 C16.9651,21.6002 16.7251,21.6132 16.5911,21.6132 L16.5911,21.5102 L16.6561,21.5102 C16.8451,21.5102 16.9411,21.4932 16.9411,21.2222 L16.9411,19.3912 L16.3791,19.3912 Z" id="Fill-52" fill="#1D1D1B"></path>
            <path d="M17.7296,21.6275 C17.5946,21.6275 17.3546,21.6135 17.1696,21.6135 C16.9646,21.6135 16.7246,21.6275 16.5906,21.6275 L16.5756,21.6275 L16.5756,21.6125 L16.5756,21.4955 L16.5906,21.4955 L16.6566,21.4955 C16.8446,21.4905 16.9206,21.4885 16.9246,21.2225 L16.9246,19.4055 L16.3786,19.4055 L16.3786,19.3915 L16.3786,19.3765 L16.9556,19.3765 L16.9556,21.2225 C16.9556,21.4975 16.8436,21.5245 16.6566,21.5245 L16.6056,21.5245 L16.6056,21.5985 C16.7416,21.5975 16.9706,21.5845 17.1696,21.5845 C17.3486,21.5845 17.5786,21.5975 17.7136,21.5985 L17.7136,21.5245 L17.6636,21.5245 C17.4986,21.5245 17.3646,21.4845 17.3646,21.2155 L17.3646,19.3765 L17.9416,19.3765 C18.1716,19.3775 18.2016,19.5725 18.2086,19.6995 L18.2826,19.6725 C18.2826,19.5835 18.2836,19.4935 18.2906,19.4035 C18.2996,19.3145 18.3126,19.2285 18.3256,19.1405 L18.2736,19.1315 C18.2576,19.2315 18.1606,19.2365 18.0756,19.2345 L16.3056,19.2345 L16.2896,19.2345 C16.2086,19.2355 16.1206,19.2315 16.0886,19.1355 L16.0336,19.1355 C16.0326,19.2305 16.0256,19.3215 16.0116,19.4135 C16.0026,19.5085 15.9866,19.5995 15.9736,19.6895 L16.0466,19.6895 C16.0916,19.4495 16.1216,19.3725 16.3786,19.3765 L16.3786,19.3915 L16.3786,19.4055 C16.1246,19.4105 16.1296,19.4535 16.0746,19.7065 L16.0716,19.7185 L16.0596,19.7185 L15.9396,19.7185 L15.9416,19.7015 C15.9556,19.6055 15.9726,19.5095 15.9826,19.4095 C15.9966,19.3145 16.0026,19.2195 16.0026,19.1205 L16.0026,19.1065 L16.0176,19.1065 L16.1116,19.1065 L16.1146,19.1165 C16.1386,19.2025 16.2016,19.2035 16.2896,19.2045 L16.3056,19.2045 L18.0756,19.2045 C18.1696,19.2035 18.2396,19.2025 18.2456,19.1125 L18.2466,19.0965 L18.2616,19.0995 L18.3596,19.1145 L18.3566,19.1295 C18.3426,19.2225 18.3306,19.3145 18.3196,19.4055 C18.3126,19.4975 18.3126,19.5905 18.3126,19.6835 L18.3126,19.6925 L18.3026,19.6965 L18.1806,19.7415 L18.1806,19.7215 C18.1716,19.5925 18.1586,19.4055 17.9416,19.4055 L17.3936,19.4055 L17.3936,21.2155 C17.3976,21.4745 17.5006,21.4915 17.6636,21.4955 L17.7436,21.4955 L17.7436,21.5105 L17.7436,21.6275 L17.7296,21.6275 Z" id="Fill-54" fill="#1D1D1B"></path>
            <path d="M18.4689,21.5104 L18.5169,21.5104 C18.6409,21.5104 18.7709,21.4924 18.7709,21.3154 L18.7709,19.5194 C18.7709,19.3404 18.6409,19.3224 18.5169,19.3224 L18.4689,19.3224 L18.4689,19.2204 C18.6029,19.2204 18.8079,19.2344 18.9759,19.2344 C19.1479,19.2344 19.3539,19.2204 19.5149,19.2204 L19.5149,19.3224 L19.4669,19.3224 C19.3429,19.3224 19.2119,19.3404 19.2119,19.5194 L19.2119,21.3154 C19.2119,21.4924 19.3429,21.5104 19.4669,21.5104 L19.5149,21.5104 L19.5149,21.6134 C19.3499,21.6134 19.1439,21.6004 18.9729,21.6004 C18.8049,21.6004 18.6029,21.6134 18.4689,21.6134 L18.4689,21.5104 Z" id="Fill-56" fill="#1D1D1B"></path>
            <path d="M19.5148,21.6275 C19.3488,21.6275 19.1438,21.6135 18.9728,21.6135 C18.8048,21.6135 18.6028,21.6275 18.4688,21.6275 L18.4538,21.6275 L18.4538,21.6125 L18.4538,21.5105 L18.4538,21.4955 L18.4688,21.4955 L18.5168,21.4955 C18.6408,21.4925 18.7538,21.4815 18.7548,21.3155 L18.7548,19.5195 C18.7538,19.3515 18.6408,19.3405 18.5168,19.3375 L18.4538,19.3375 L18.4538,19.3225 L18.4538,19.2045 L18.4688,19.2045 C18.6028,19.2045 18.8088,19.2185 18.9758,19.2185 C19.1468,19.2185 19.3528,19.2045 19.5148,19.2045 L19.5298,19.2045 L19.5298,19.2205 L19.5298,19.3375 L19.5148,19.3375 L19.4668,19.3375 C19.3408,19.3405 19.2288,19.3515 19.2278,19.5195 L19.2278,21.3155 C19.2288,21.4815 19.3408,21.4925 19.4668,21.4955 L19.5298,21.4955 L19.5298,21.5105 L19.5298,21.6275 L19.5148,21.6275 Z M19.4988,21.5985 L19.4988,21.5245 L19.4668,21.5245 C19.3438,21.5245 19.1988,21.5035 19.1988,21.3155 L19.1988,19.5195 C19.1988,19.3285 19.3438,19.3085 19.4668,19.3085 L19.4988,19.3085 L19.4988,19.2345 C19.3408,19.2355 19.1428,19.2485 18.9758,19.2485 C18.8128,19.2485 18.6168,19.2355 18.4838,19.2345 L18.4838,19.3085 L18.5168,19.3085 C18.6388,19.3085 18.7858,19.3285 18.7858,19.5195 L18.7858,21.3155 C18.7858,21.5035 18.6388,21.5245 18.5168,21.5245 L18.4838,21.5245 L18.4838,21.5985 C18.6158,21.5965 18.8098,21.5845 18.9728,21.5845 C19.1388,21.5845 19.3378,21.5975 19.4988,21.5985 L19.4988,21.5985 Z" id="Fill-58" fill="#1D1D1B"></path>
            <path d="M20.882,19.1686 C21.612,19.1686 22.195,19.6216 22.195,20.3526 C22.195,21.1406 21.629,21.6646 20.9,21.6646 C20.172,21.6646 19.617,21.1706 19.617,20.4346 C19.617,19.7216 20.169,19.1686 20.882,19.1686 M20.934,21.5136 C21.599,21.5136 21.715,20.9276 21.715,20.4276 C21.715,19.9266 21.444,19.3196 20.875,19.3196 C20.276,19.3196 20.097,19.8546 20.097,20.3136 C20.097,20.9276 20.378,21.5136 20.934,21.5136" id="Fill-60" fill="#1D1D1B"></path>
            <g id="Group-64" transform="translate(19.000000, 18.679000)">
                <mask id="mask-8" fill="white">
                    <use xlink:href="#path-7"></use>
                </mask>
                <g id="Clip-63"></g>
                <path d="M0.6017,1.7552 C0.6037,1.0332 1.1617,0.4762 1.8817,0.4752 L1.8817,0.4892 L1.8817,0.5052 C1.1767,0.5052 0.6317,1.0492 0.6307,1.7552 C0.6317,2.4842 1.1797,2.9702 1.8997,2.9702 C2.6227,2.9702 3.1797,2.4532 3.1807,1.6722 C3.1797,0.9512 2.6067,0.5052 1.8817,0.5052 L1.8817,0.4892 L1.8817,0.4752 C2.6177,0.4762 3.2077,0.9332 3.2097,1.6722 C3.2087,2.4692 2.6367,2.9982 1.8997,3.0002 C1.1657,2.9982 0.6037,2.5002 0.6017,1.7552 M1.0817,1.6342 C1.0827,1.1732 1.2627,0.6252 1.8747,0.6252 C2.4567,0.6262 2.7287,1.2442 2.7297,1.7482 C2.7287,2.2482 2.6117,2.8492 1.9337,2.8492 L1.9337,2.8342 L1.9337,2.8192 C2.5847,2.8182 2.6987,2.2482 2.6997,1.7482 C2.6997,1.2512 2.4317,0.6562 1.8747,0.6552 C1.2877,0.6562 1.1137,1.1782 1.1117,1.6342 C1.1117,2.2452 1.3907,2.8182 1.9337,2.8192 L1.9337,2.8342 L1.9337,2.8492 C1.3647,2.8482 1.0827,2.2512 1.0817,1.6342" id="Fill-62" fill="#1D1D1B" mask="url(#mask-8)"></path>
            </g>
            <path d="M24.505,20.9371 L24.512,20.9301 L24.512,19.6451 C24.512,19.3641 24.317,19.3231 24.213,19.3231 L24.139,19.3231 L24.139,19.2201 C24.3,19.2201 24.457,19.2341 24.618,19.2341 C24.759,19.2341 24.9,19.2201 25.04,19.2201 L25.04,19.3231 L24.988,19.3231 C24.845,19.3231 24.684,19.3501 24.684,19.7581 L24.684,21.3181 C24.684,21.4381 24.687,21.5581 24.704,21.6651 L24.573,21.6651 L22.808,19.6971 L22.808,21.1091 C22.808,21.4081 22.866,21.5101 23.13,21.5101 L23.189,21.5101 L23.189,21.6131 C23.041,21.6131 22.894,21.5991 22.746,21.5991 C22.592,21.5991 22.435,21.6131 22.28,21.6131 L22.28,21.5101 L22.328,21.5101 C22.566,21.5101 22.637,21.3491 22.637,21.0761 L22.637,19.6311 C22.637,19.4391 22.48,19.3231 22.324,19.3231 L22.28,19.3231 L22.28,19.2201 C22.41,19.2201 22.544,19.2341 22.675,19.2341 C22.777,19.2341 22.876,19.2201 22.98,19.2201 L24.505,20.9371 Z" id="Fill-65" fill="#1D1D1B"></path>
            <g id="Group-69" transform="translate(22.000000, 18.679000)">
                <mask id="mask-10" fill="white">
                    <use xlink:href="#path-9"></use>
                </mask>
                <g id="Clip-68"></g>
                <path d="M2.7043,3.0003 L2.5623,2.9953 L0.8223,1.0563 L0.8223,2.4303 C0.8273,2.7293 0.8723,2.8133 1.1303,2.8153 L1.2033,2.8153 L1.2033,2.8313 L1.2033,2.9483 L1.1883,2.9483 C1.0403,2.9483 0.8933,2.9353 0.7463,2.9353 C0.5933,2.9353 0.4353,2.9483 0.2793,2.9483 L0.2663,2.9483 L0.2663,2.9343 L0.2663,2.8153 L0.2793,2.8153 L0.3283,2.8153 C0.5543,2.8143 0.6193,2.6693 0.6223,2.3963 L0.6223,0.9523 C0.6223,0.7693 0.4723,0.6583 0.3243,0.6583 L0.2663,0.6583 L0.2663,0.6443 L0.2663,0.5253 L0.2793,0.5253 C0.4113,0.5253 0.5453,0.5393 0.6743,0.5393 C0.7763,0.5393 0.8743,0.5253 0.9903,0.5313 L2.4973,2.2283 L2.4973,0.9663 C2.4963,0.6943 2.3133,0.6613 2.2133,0.6583 L2.1233,0.6583 L2.1233,0.6443 L2.1233,0.5253 L2.1393,0.5253 C2.3003,0.5253 2.4583,0.5393 2.6173,0.5393 C2.7583,0.5393 2.8973,0.5253 3.0403,0.5253 L3.0553,0.5253 L3.0553,0.5413 L3.0553,0.6583 L3.0403,0.6583 L2.9883,0.6583 C2.8473,0.6623 2.7013,0.6753 2.6983,1.0793 L2.6983,2.6393 C2.6983,2.7593 2.7013,2.8793 2.7183,2.9823 L2.7213,3.0003 L2.7043,3.0003 Z M2.5733,2.9703 L2.6863,2.9703 C2.6723,2.8663 2.6683,2.7533 2.6683,2.6393 L2.6683,1.0793 C2.6683,0.6673 2.8423,0.6303 2.9883,0.6293 L3.0253,0.6293 L3.0253,0.5563 C2.8903,0.5573 2.7553,0.5693 2.6173,0.5693 C2.4613,0.5693 2.3083,0.5573 2.1533,0.5563 L2.1533,0.6293 L2.2133,0.6293 C2.3193,0.6303 2.5263,0.6763 2.5263,0.9663 L2.5223,2.2623 L2.5163,2.2693 L2.5053,2.2803 L0.9793,0.5563 C0.8783,0.5563 0.7783,0.5693 0.6743,0.5693 C0.5483,0.5693 0.4193,0.5573 0.2953,0.5563 L0.2953,0.6293 L0.3243,0.6293 C0.4853,0.6303 0.6513,0.7513 0.6513,0.9523 L0.6513,2.3963 C0.6513,2.6703 0.5753,2.8463 0.3283,2.8473 L0.2953,2.8463 L0.2953,2.9193 C0.4433,2.9183 0.5963,2.9053 0.7463,2.9053 C0.8903,2.9053 1.0313,2.9183 1.1743,2.9193 L1.1743,2.8473 L1.1303,2.8473 C0.8603,2.8463 0.7933,2.7293 0.7933,2.4303 L0.7933,0.9793 L2.5733,2.9703 Z" id="Fill-67" fill="#1D1D1B" mask="url(#mask-10)"></path>
            </g>
            <path d="M25.591,21.1227 C25.558,21.2387 25.516,21.3287 25.516,21.3907 C25.516,21.4927 25.66,21.5107 25.773,21.5107 L25.811,21.5107 L25.811,21.6127 C25.674,21.6057 25.533,21.6007 25.396,21.6007 C25.273,21.6007 25.15,21.6057 25.027,21.6127 L25.027,21.5107 L25.046,21.5107 C25.18,21.5107 25.294,21.4317 25.344,21.2867 L25.894,19.7147 C25.938,19.5867 26,19.4157 26.02,19.2887 C26.13,19.2507 26.267,19.1837 26.332,19.1417 C26.342,19.1377 26.349,19.1347 26.36,19.1347 C26.369,19.1347 26.376,19.1347 26.383,19.1447 C26.394,19.1727 26.403,19.2027 26.414,19.2297 L27.045,21.0237 C27.086,21.1437 27.127,21.2697 27.172,21.3737 C27.213,21.4697 27.285,21.5107 27.398,21.5107 L27.419,21.5107 L27.419,21.6127 C27.265,21.6057 27.111,21.6007 26.945,21.6007 C26.778,21.6007 26.606,21.6057 26.431,21.6127 L26.431,21.5107 L26.469,21.5107 C26.547,21.5107 26.682,21.4967 26.682,21.4107 C26.682,21.3667 26.652,21.2737 26.612,21.1637 L26.48,20.7667 L25.701,20.7667 L25.591,21.1227 Z M26.092,19.6037 L26.085,19.6037 L25.766,20.5747 L26.407,20.5747 L26.092,19.6037 Z" id="Fill-70" fill="#1D1D1B"></path>
            <path d="M27.4171,21.6275 C27.2631,21.6215 27.1091,21.6135 26.9451,21.6135 C26.7781,21.6135 26.6061,21.6215 26.4321,21.6275 L26.4161,21.6285 L26.4161,21.6125 L26.4161,21.4955 L26.4321,21.4955 L26.4691,21.4955 C26.5481,21.4955 26.6661,21.4775 26.6661,21.4105 C26.6681,21.3715 26.6371,21.2775 26.5981,21.1685 L26.4681,20.7805 L25.7111,20.7805 L25.6051,21.1275 C25.5701,21.2445 25.5301,21.3345 25.5301,21.3905 C25.5301,21.4745 25.6591,21.4955 25.7721,21.4955 L25.8251,21.4955 L25.8251,21.5105 L25.8251,21.6285 L25.8101,21.6275 C25.6731,21.6215 25.5321,21.6135 25.3961,21.6135 C25.2721,21.6135 25.1491,21.6215 25.0261,21.6275 L25.0111,21.6285 L25.0111,21.6125 L25.0111,21.4955 L25.0261,21.4955 L25.0461,21.4955 C25.1731,21.4945 25.2801,21.4215 25.3301,21.2825 L25.8791,19.7085 C25.9231,19.5815 25.9841,19.4115 26.0151,19.2745 C26.1221,19.2375 26.2601,19.1685 26.3271,19.1275 C26.3361,19.1235 26.3461,19.1195 26.3591,19.1195 C26.3681,19.1185 26.3861,19.1215 26.3961,19.1405 C26.4071,19.1665 26.4171,19.1975 26.4291,19.2255 L27.0591,21.0185 C27.1001,21.1385 27.1411,21.2655 27.1861,21.3675 C27.2261,21.4585 27.2881,21.4945 27.3971,21.4955 L27.4331,21.4955 L27.4331,21.5105 L27.4331,21.6285 L27.4171,21.6275 Z M26.4451,21.5975 C26.6151,21.5915 26.7821,21.5845 26.9451,21.5845 C27.1051,21.5845 27.2541,21.5915 27.4031,21.5975 L27.4031,21.5245 L27.3971,21.5245 C27.2811,21.5255 27.2001,21.4805 27.1571,21.3785 C27.1121,21.2745 27.0711,21.1485 27.0301,21.0285 L26.3991,19.2345 C26.3901,19.2075 26.3791,19.1775 26.3711,19.1525 C26.3681,19.1485 26.3681,19.1485 26.3661,19.1485 L26.3591,19.1485 C26.3521,19.1485 26.3481,19.1515 26.3401,19.1535 C26.2721,19.1955 26.1361,19.2645 26.0341,19.2905 C26.0131,19.4205 25.9511,19.5915 25.9071,19.7195 L25.3571,21.2915 C25.3061,21.4405 25.1861,21.5255 25.0461,21.5245 L25.0411,21.5245 L25.0411,21.5975 C25.1581,21.5915 25.2761,21.5845 25.3961,21.5845 C25.5281,21.5845 25.6641,21.5915 25.7961,21.5975 L25.7961,21.5245 L25.7721,21.5245 C25.6611,21.5235 25.5051,21.5125 25.5001,21.3905 C25.5011,21.3215 25.5441,21.2345 25.5771,21.1185 L25.5911,21.1225 L25.5771,21.1175 L25.6891,20.7515 L26.4891,20.7515 L26.6271,21.1585 C26.6641,21.2695 26.6951,21.3605 26.6951,21.4105 C26.6901,21.5165 26.5471,21.5235 26.4691,21.5245 L26.4451,21.5245 L26.4451,21.5975 Z M25.7451,20.5895 L26.0741,19.5885 L26.0851,19.5885 L26.0921,19.5885 L26.0921,19.6045 L26.0881,19.6055 L26.0921,19.6045 L26.0921,19.5885 L26.1031,19.5885 L26.4271,20.5895 L25.7451,20.5895 Z M25.7861,20.5595 L26.3861,20.5595 L26.0881,19.6415 L25.7861,20.5595 Z" id="Fill-72" fill="#1D1D1B"></path>
            <path d="M28.2824,21.277 C28.2824,21.415 28.3784,21.456 28.4874,21.469 C28.6284,21.48 28.7824,21.48 28.9404,21.463 C29.0844,21.445 29.2084,21.363 29.2694,21.277 C29.3244,21.202 29.3544,21.106 29.3764,21.03 L29.4744,21.03 C29.4374,21.226 29.3884,21.418 29.3474,21.613 C29.0474,21.613 28.7444,21.6 28.4434,21.6 C28.1414,21.6 27.8404,21.613 27.5384,21.613 L27.5384,21.51 L27.5864,21.51 C27.7094,21.51 27.8444,21.493 27.8444,21.281 L27.8444,19.519 C27.8444,19.34 27.7094,19.323 27.5864,19.323 L27.5384,19.323 L27.5384,19.22 C27.7204,19.22 27.8984,19.234 28.0794,19.234 C28.2554,19.234 28.4264,19.22 28.6004,19.22 L28.6004,19.323 L28.5144,19.323 C28.3854,19.323 28.2824,19.327 28.2824,19.508 L28.2824,21.277 Z" id="Fill-74" fill="#1D1D1B"></path>
            <path d="M29.3478,21.6275 C29.0458,21.6275 28.7438,21.6135 28.4438,21.6135 C28.1418,21.6135 27.8398,21.6275 27.5368,21.6275 L27.5238,21.6275 L27.5238,21.6125 L27.5238,21.4955 L27.5368,21.4955 L27.5858,21.4955 C27.7098,21.4915 27.8268,21.4835 27.8288,21.2805 L27.8288,19.5185 C27.8268,19.3515 27.7098,19.3405 27.5858,19.3375 L27.5238,19.3375 L27.5238,19.3225 L27.5238,19.2045 L27.5368,19.2045 C27.7198,19.2045 27.8988,19.2185 28.0788,19.2185 C28.2538,19.2185 28.4248,19.2045 28.6008,19.2045 L28.6158,19.2045 L28.6158,19.2205 L28.6158,19.3375 L28.6008,19.3375 L28.5148,19.3375 C28.3818,19.3415 28.2988,19.3355 28.2968,19.5085 L28.2968,21.2765 C28.2968,21.4045 28.3808,21.4395 28.4888,21.4545 C28.5488,21.4585 28.6128,21.4605 28.6788,21.4605 C28.7628,21.4605 28.8498,21.4565 28.9388,21.4475 C29.0778,21.4315 29.1988,21.3505 29.2568,21.2695 C29.3098,21.1945 29.3398,21.1015 29.3608,21.0265 L29.3638,21.0155 L29.3748,21.0155 L29.4938,21.0155 L29.4908,21.0335 C29.4518,21.2295 29.4048,21.4205 29.3628,21.6155 L29.3598,21.6275 L29.3478,21.6275 Z M29.3358,21.5985 C29.3748,21.4115 29.4198,21.2305 29.4568,21.0445 L29.3868,21.0445 C29.3658,21.1195 29.3348,21.2115 29.2818,21.2855 C29.2168,21.3745 29.0898,21.4585 28.9418,21.4775 C28.8518,21.4855 28.7628,21.4905 28.6788,21.4905 C28.6128,21.4905 28.5478,21.4875 28.4858,21.4835 C28.3738,21.4715 28.2668,21.4235 28.2668,21.2765 L28.2668,19.5085 C28.2668,19.3175 28.3868,19.3085 28.5148,19.3085 L28.5858,19.3085 L28.5858,19.2345 C28.4168,19.2355 28.2498,19.2485 28.0788,19.2485 C27.9028,19.2485 27.7288,19.2355 27.5528,19.2345 L27.5528,19.3085 L27.5858,19.3085 C27.7078,19.3085 27.8578,19.3285 27.8578,19.5185 L27.8578,21.2805 C27.8578,21.5025 27.7088,21.5245 27.5858,21.5245 L27.5528,21.5245 L27.5528,21.5985 C27.8488,21.5975 28.1458,21.5845 28.4438,21.5845 C28.7418,21.5845 29.0388,21.5975 29.3358,21.5985 L29.3358,21.5985 Z" id="Fill-76" fill="#1D1D1B"></path>
            <g id="Group-80" transform="translate(28.000000, 18.679000)">
                <mask id="mask-12" fill="white">
                    <use xlink:href="#path-11"></use>
                </mask>
                <g id="Clip-79"></g>
                <path d="M1.4328,0.4437 C1.6398,0.4437 1.7938,0.6027 1.7938,0.8057 C1.7938,1.0077 1.6398,1.1657 1.4328,1.1657 C1.2268,1.1657 1.0728,1.0077 1.0728,0.8057 C1.0728,0.6027 1.2268,0.4437 1.4328,0.4437 L1.4328,0.4437 Z M1.4328,1.0987 C1.5948,1.0987 1.7188,0.9617 1.7188,0.8057 C1.7188,0.6497 1.5968,0.5117 1.4328,0.5117 C1.2708,0.5117 1.1468,0.6497 1.1468,0.8057 C1.1468,0.9617 1.2708,1.0987 1.4328,1.0987 L1.4328,1.0987 Z M1.2538,0.9967 L1.2538,0.9787 C1.2978,0.9717 1.3058,0.9727 1.3058,0.9467 L1.3058,0.6787 C1.3058,0.6407 1.3018,0.6287 1.2548,0.6307 L1.2548,0.6117 L1.4398,0.6117 C1.5028,0.6117 1.5618,0.6417 1.5618,0.7087 C1.5618,0.7607 1.5268,0.8007 1.4768,0.8167 L1.5368,0.8997 C1.5638,0.9367 1.5948,0.9717 1.6158,0.9847 L1.6158,0.9967 L1.5448,0.9967 C1.5108,0.9967 1.4818,0.9247 1.4148,0.8307 L1.3748,0.8307 L1.3748,0.9497 C1.3748,0.9727 1.3838,0.9717 1.4278,0.9787 L1.4278,0.9967 L1.2538,0.9967 Z M1.3748,0.8057 L1.4178,0.8057 C1.4648,0.8057 1.4868,0.7707 1.4868,0.7137 C1.4868,0.6567 1.4538,0.6357 1.4148,0.6357 L1.3748,0.6357 L1.3748,0.8057 Z" id="Fill-78" fill="#1D1D1B" mask="url(#mask-12)"></path>
            </g>
            <path d="M8.0211,7.1173 C8.0211,3.9103 10.6211,1.3113 13.8271,1.3113 C17.0341,1.3113 19.6331,3.9103 19.6331,7.1173 C19.6331,10.3243 17.0341,12.9233 13.8271,12.9233 C10.6211,12.9233 8.0211,10.3243 8.0211,7.1173" id="Fill-81" fill="#FEFEFE"></path>
            <g id="Group-85" transform="translate(7.000000, 0.679000)">
                <mask id="mask-14" fill="white">
                    <use xlink:href="#path-13"></use>
                </mask>
                <g id="Clip-84"></g>
                <path d="M10.338,6.324 C10.336,4.837 9.406,3.569 8.097,3.067 L8.097,9.581 C9.406,9.078 10.336,7.811 10.338,6.324 L10.338,6.324 Z M5.599,9.58 L5.599,3.068 C4.291,3.572 3.362,4.838 3.359,6.324 C3.362,7.81 4.291,9.076 5.599,9.58 L5.599,9.58 Z M6.849,0.818 C3.808,0.82 1.345,3.283 1.344,6.324 C1.345,9.365 3.808,11.828 6.849,11.828 C9.89,11.828 12.354,9.365 12.354,6.324 C12.354,3.283 9.89,0.82 6.849,0.818 L6.849,0.818 Z M6.835,12.3480709 C3.508,12.364 0.77,9.668 0.77,6.387 C0.77,2.801 3.508,0.32 6.835,0.320999698 L8.395,0.320999698 C11.683,0.32 14.684,2.8 14.684,6.387 C14.684,9.667 11.683,12.3480709 8.395,12.3480709 L6.835,12.3480709 Z" id="Fill-83" fill="#004A98" mask="url(#mask-14)"></path>
            </g>
        </g>
    </g>
</svg>