<?xml version="1.0" encoding="UTF-8"?>
<svg width="40px" height="30px" viewBox="0 0 40 30" version="1.1" xmlns="http://www.w3.org/2000/svg" xmlns:xlink="http://www.w3.org/1999/xlink">
    <title>ic_pa/visa</title>
    <g id="ic_pa/visa" stroke="none" stroke-width="1" fill="none" fill-rule="evenodd">
        <rect id="Rectangle" stroke="#1E1E1E" x="0.5" y="0.5" width="39" height="29" rx="3"></rect>
        <g id="Group-5" transform="translate(7.000000, 10.000000)" fill="#1C3076">
            <path d="M12.3935,0.9029 L10.7425,8.6229 L8.7455,8.6229 L10.3965,0.9029 L12.3935,0.9029 Z M20.7965,5.8879 L21.8475,2.9889 L22.4525,5.8879 L20.7965,5.8879 Z M23.0255,8.6229 L24.8725,8.6229 L23.2595,0.9029 L21.5555,0.9029 C21.1715,0.9029 20.8485,1.1259 20.7045,1.4689 L17.7075,8.6229 L19.8055,8.6229 L20.2215,7.4699 L22.7835,7.4699 L23.0255,8.6229 Z M17.8115,6.1029 C17.8205,4.0659 14.9955,3.9519 15.0145,3.0419 C15.0195,2.7659 15.2835,2.4709 15.8605,2.3959 C16.1465,2.3589 16.9355,2.3289 17.8305,2.7409 L18.1805,1.1029 C17.6995,0.9289 17.0815,0.7619 16.3115,0.7619 C14.3385,0.7619 12.9485,1.8109 12.9375,3.3139 C12.9255,4.4249 13.9305,5.0449 14.6855,5.4149 C15.4645,5.7939 15.7255,6.0359 15.7215,6.3749 C15.7165,6.8919 15.1005,7.1219 14.5265,7.1309 C13.5215,7.1459 12.9395,6.8589 12.4765,6.6419 L12.1135,8.3349 C12.5805,8.5489 13.4415,8.7349 14.3335,8.7449 C16.4335,8.7449 17.8055,7.7079 17.8115,6.1029 L17.8115,6.1029 Z M9.5395,0.9029 L6.3035,8.6229 L4.1925,8.6229 L2.6005,2.4619 C2.5035,2.0829 2.4195,1.9439 2.1255,1.7839 C1.6455,1.5229 0.8525,1.2789 0.1555,1.1269 L0.2025,0.9029 L3.6015,0.9029 C4.0345,0.9029 4.4235,1.1909 4.5225,1.6899 L5.3635,6.1579 L7.4415,0.9029 L9.5395,0.9029 Z" id="Fill-3"></path>
        </g>
        <rect id="Rectangle" fill="#1C3076" x="4" y="5" width="32" height="3"></rect>
        <rect id="Rectangle-Copy" fill="#F9B300" x="4" y="21" width="32" height="3"></rect>
    </g>
</svg>