<?xml version="1.0" encoding="UTF-8"?>
<svg width="40px" height="30px" viewBox="0 0 40 30" version="1.1" xmlns="http://www.w3.org/2000/svg" xmlns:xlink="http://www.w3.org/1999/xlink">
    <title>ic_pa/googlepay</title>
    <defs>
        <polygon id="path-1" points="0.00035 0.0001 11.796 0.0001 11.796 12.2101 0.00035 12.2101"></polygon>
        <polygon id="path-3" points="0.4493 0.8992 6.676 0.8992 6.676 10 0.4493 10"></polygon>
        <polygon id="path-5" points="0.5614 0.244 8.7334 0.244 8.7334 4.5395 0.5614 4.5395"></polygon>
    </defs>
    <g id="ic_pa/googlepay" stroke="none" stroke-width="1" fill="none" fill-rule="evenodd">
        <g id="Group-3" transform="translate(14.000000, 8.000000)">
            <mask id="mask-2" fill="white">
                <use xlink:href="#path-1"></use>
            </mask>
            <g id="Clip-2"></g>
        </g>
        <rect id="Rectangle" stroke="#1E1E1E" x="0.5" y="0.5" width="39" height="29" rx="3"></rect>
        <g id="Group-17" transform="translate(4.000000, 8.000000)">
            <path d="M14.9814,2.8722 L14.9814,6.1002 L16.9424,6.1002 C17.3784,6.1142 17.8004,5.9372 18.0984,5.6202 C18.7084,4.9792 18.6934,3.9482 18.0624,3.3292 C17.7644,3.0342 17.3644,2.8722 16.9424,2.8722 L14.9814,2.8722 Z M14.9814,7.2342 L14.9814,10.9772 L13.8124,10.9772 L13.8124,1.7372 L16.9144,1.7372 C17.6624,1.7232 18.3884,2.0102 18.9194,2.5402 C19.9794,3.5432 20.0444,5.2302 19.0494,6.3132 C19.0064,6.3572 18.9624,6.4012 18.9194,6.4462 C18.3744,6.9692 17.7064,7.2342 16.9144,7.2342 L14.9814,7.2342 Z" id="Fill-1" fill="#3C4043"></path>
            <path d="M20.9458,9.0402 C20.9458,9.3502 21.0918,9.6372 21.3308,9.8132 C21.5918,10.0192 21.9118,10.1312 22.2388,10.1232 C22.7328,10.1232 23.2058,9.9242 23.5538,9.5702 C23.9388,9.2022 24.1348,8.7682 24.1348,8.2662 C23.7718,7.9722 23.2628,7.8242 22.6098,7.8312 C22.1368,7.8312 21.7378,7.9492 21.4178,8.1782 C21.1058,8.4062 20.9458,8.6932 20.9458,9.0402 M22.4568,4.4492 C23.3218,4.4492 24.0048,4.6852 24.5058,5.1492 C25.0068,5.6132 25.2538,6.2622 25.2538,7.0802 L25.2538,10.9772 L24.1348,10.9772 L24.1348,10.1012 L24.0848,10.1012 C23.5968,10.8232 22.9588,11.1852 22.1518,11.1852 C21.4688,11.1852 20.8878,10.9772 20.4298,10.5652 C19.9798,10.1822 19.7258,9.6142 19.7398,9.0182 C19.7398,8.3622 19.9868,7.8462 20.4738,7.4552 C20.9608,7.0642 21.6138,6.8732 22.4278,6.8732 C23.1258,6.8732 23.6918,7.0062 24.1418,7.2572 L24.1418,6.9832 C24.1418,6.5782 23.9678,6.1952 23.6628,5.9302 C23.3498,5.6502 22.9508,5.4952 22.5368,5.4952 C21.8828,5.4952 21.3668,5.7752 20.9888,6.3352 L19.9578,5.6802 C20.5098,4.8612 21.3448,4.4492 22.4568,4.4492" id="Fill-3" fill="#3C4043"></path>
            <g id="Group-7" transform="translate(25.000000, 3.756200)">
                <mask id="mask-4" fill="white">
                    <use xlink:href="#path-3"></use>
                </mask>
                <g id="Clip-6"></g>
                <polygon id="Fill-5" fill="#3C4043" mask="url(#mask-4)" points="6.6763 0.8992 2.7673 10.0002 1.5613 10.0002 3.0143 6.8162 0.4493 0.8992 1.7213 0.8992 3.5733 5.4382 3.5953 5.4382 5.4053 0.8992"></polygon>
            </g>
            <path d="M10.2524,6.424 C10.2524,6.063 10.2234,5.701 10.1654,5.348 L5.2324,5.348 L5.2324,7.39 L8.0584,7.39 C7.9414,8.045 7.5644,8.635 7.0124,9.003 L7.0124,10.329 L8.6974,10.329 C9.6854,9.408 10.2524,8.045 10.2524,6.424" id="Fill-8" fill="#4285F4"></path>
            <path d="M5.2324,11.6115 C6.6414,11.6115 7.8334,11.1395 8.6974,10.3295 L7.0124,9.0035 C6.5404,9.3275 5.9374,9.5115 5.2324,9.5115 C3.8664,9.5115 2.7114,8.5755 2.2974,7.3235 L0.5614,7.3235 L0.5614,8.6935 C1.4474,10.4845 3.2564,11.6115 5.2324,11.6115" id="Fill-10" fill="#34A853"></path>
            <path d="M2.2974,7.3234 C2.0794,6.6674 2.0794,5.9524 2.2974,5.2894 L2.2974,3.9264 L0.5614,3.9264 C-0.1866,5.4224 -0.1866,7.1904 0.5614,8.6864 L2.2974,7.3234 Z" id="Fill-12" fill="#FBBC04"></path>
            <g id="Group-16" transform="translate(0.000000, 0.756200)">
                <mask id="mask-6" fill="white">
                    <use xlink:href="#path-5"></use>
                </mask>
                <g id="Clip-15"></g>
                <path d="M5.2324,2.3445 C5.9804,2.3295 6.6994,2.6165 7.2374,3.1405 L8.7334,1.6215 C7.7824,0.7235 6.5324,0.2295 5.2324,0.2435 C3.2564,0.2435 1.4474,1.3785 0.5614,3.1695 L2.2974,4.5395 C2.7114,3.2805 3.8664,2.3445 5.2324,2.3445" id="Fill-14" fill="#EA4335" mask="url(#mask-6)"></path>
            </g>
        </g>
    </g>
</svg>