<svg xmlns="http://www.w3.org/2000/svg" width="24" height="23" viewBox="0 0 24 23">
    <g fill="none" fill-rule="evenodd">
        <g fill="#FFF" fill-rule="nonzero">
            <g>
                <g>
                    <path d="M16.021 8.907H7.793c-.401 0-.726-.325-.726-.726 0-.402.325-.727.726-.727h8.228c.402 0 .727.325.727.727 0 .4-.325.726-.727.726zM12.002 12.487H7.793c-.401 0-.726-.325-.726-.726 0-.401.325-.726.726-.726h4.209c.4 0 .726.325.726.726 0 .4-.325.726-.726.726z" transform="translate(-1163 -973) translate(1033 960) translate(130 13)"/>
                    <path d="M15.981.014H8.02C3.591.014.001 3.604.001 8.032v3.172c0 4.429 3.59 8.019 8.018 8.019h5.185l1.115-1.453h-6.3c-3.62 0-6.566-2.945-6.566-6.566V8.032c0-3.62 2.946-6.566 6.566-6.566h7.962c3.62 0 6.566 2.946 6.566 6.566v3.172c0 3.236-2.353 5.93-5.437 6.467l-2.986 3.896c-.244.318-.184.774.134 1.019.131.1.287.15.441.15.218 0 .434-.098.577-.284l2.667-3.472c3.48-.876 6.056-4.024 6.056-7.776V8.032C24 3.604 20.41.014 15.981.014z" transform="translate(-1163 -973) translate(1033 960) translate(130 13)"/>
                </g>
            </g>
        </g>
    </g>
</svg>
