<svg width="20" height="20" viewBox="0 0 20 20" fill="none" xmlns="http://www.w3.org/2000/svg">
    <path d="M18.17 0H1.837A1.853 1.853 0 0 0 0 1.836V18.17A1.85 1.85 0 0 0 1.837 20H18.17A1.85 1.85 0 0 0 20 18.169V1.836C20 .836 19.166 0 18.17 0zM6.17 13.464H3.833c-.342-.011-.419-.3-.248-.55l2.418-4.46a.2.2 0 0 0 0-.286L4.41 5.383c-.086-.166 0-.415.166-.415h2.397c.085 0 .168.019.252.167l1.779 3.118c.08.082.08.162 0 .248L6.417 13.25s-.099.206-.248.214zM16.335 2.92l-4.679 8.585c-.082.085-.082.133 0 .218l3.01 5.36c.166.317 0 .522-.247.522h-2.332c-.085 0-.136-.058-.254-.27l-3.166-5.612c-.058-.065-.056-.143 0-.222l4.836-8.916c.097-.188.247-.23.332-.23h2.288c.294-.009.343.3.212.565z" fill="#FFDC00"/>
</svg>
