<?xml version="1.0" encoding="UTF-8"?>
<svg width="40px" height="30px" viewBox="0 0 40 30" version="1.1" xmlns="http://www.w3.org/2000/svg" xmlns:xlink="http://www.w3.org/1999/xlink">
    <title>ic_pa/paypal</title>
    <g id="ic_pa/paypal" stroke="none" stroke-width="1" fill="none" fill-rule="evenodd">
        <g transform="translate(4.000000, 11.000000)" fill-rule="nonzero" id="Group">
            <g>
                <path d="M12.583585,2.00000005 L10.9089182,2.00000005 C10.7943778,1.99992454 10.6968294,2.08705918 10.6789852,2.20538657 L10.0016745,6.69648692 C9.99537284,6.73866286 10.0070396,6.78161021 10.033603,6.81402117 C10.0601664,6.84643212 10.0989642,6.86505848 10.1397812,6.86499617 L10.9392821,6.86499617 C11.0539019,6.86505179 11.1514793,6.77778261 11.1692152,6.65935346 L11.3518883,5.44803426 C11.3696098,5.32970095 11.4670495,5.24246205 11.5815764,5.2423917 L12.1117202,5.2423917 C13.2148601,5.2423917 13.8515224,4.68410928 14.0177892,3.57778816 C14.0927195,3.09377267 14.0209725,2.71347479 13.8042625,2.44713822 C13.5662487,2.15468018 13.1440927,2.00000005 12.583585,2.00000005 L12.583585,2.00000005 Z M12.7767875,3.64027482 C12.6852061,4.26872668 12.2260746,4.26872668 11.7821251,4.26872668 L11.5294191,4.26872668 L11.7067051,3.09505314 C11.7174274,3.02411539 11.7758956,2.97187247 11.8445669,2.97187247 L11.9603905,2.97187247 C12.2628051,2.97187247 12.5480788,2.97187247 12.6954906,3.15216184 C12.783399,3.25972084 12.8103347,3.41952278 12.7767875,3.64027482 L12.7767875,3.64027482 Z M17.5894647,3.62004348 L16.7875151,3.62004348 C16.7188438,3.6200446 16.6603756,3.6722864 16.6496532,3.74322414 L16.6141471,3.9778052 L16.5580718,3.89278237 C16.3844589,3.62926283 15.9973192,3.54116688 15.6109142,3.54116688 C14.7247293,3.54116688 13.9678357,4.24311739 13.8204239,5.22779441 C13.7437796,5.7189805 13.8527468,6.18865479 14.1191655,6.51619755 C14.3635458,6.81736275 14.7132204,6.94284824 15.1292547,6.94284824 C15.8432959,6.94284824 16.2392509,6.46267415 16.2392509,6.46267415 L16.2034999,6.69571864 C16.1970527,6.73788597 16.2085842,6.78089124 16.2350561,6.81340402 C16.2615279,6.84591679 16.3002853,6.86467626 16.3411169,6.86473992 L17.0634837,6.86473992 C17.1781035,6.8647957 17.2756809,6.77752652 17.2934168,6.65909736 L17.7268369,3.78855258 C17.7332931,3.74647773 17.7217833,3.70355816 17.6953479,3.67113088 C17.6689125,3.63870359 17.6302105,3.62003031 17.5894647,3.62004348 L17.5894647,3.62004348 Z M16.4716327,5.25237932 C16.3942537,5.73152905 16.0306216,6.05318167 15.5668376,6.05318167 C15.3339661,6.05318167 15.1478648,5.97507335 15.0283682,5.82705169 C14.9098511,5.68005439 14.864795,5.47082653 14.902505,5.23778203 C14.9747416,4.76272979 15.3444955,4.43057736 15.8011783,4.43057736 C16.0289075,4.43057736 16.2140293,4.50971005 16.3359746,4.65901219 C16.4581648,4.80985088 16.5066491,5.0203592 16.4716327,5.25237932 L16.4716327,5.25237932 Z M21.8604893,3.62004297 L21.0546217,3.62004297 C20.9774628,3.62017122 20.9053412,3.66013701 20.861909,3.7268342 L19.7504435,5.43907101 L19.2793134,3.79367444 C19.2496195,3.69063317 19.1588949,3.62009548 19.0559919,3.62004297 L18.2640819,3.62004297 C18.2189798,3.61991805 18.1765994,3.64259324 18.1503061,3.68091809 C18.1240129,3.71924295 18.1170477,3.76849337 18.1316072,3.81313749 L19.0192613,6.53745326 L18.184744,7.76951597 C18.1545093,7.81404872 18.1505748,7.872508 18.1745464,7.92103113 C18.198518,7.96955425 18.2463851,7.99999977 18.2986086,7.99999977 L19.1034967,7.99999977 C19.1797784,8.00010942 19.251254,7.96105871 19.2947402,7.89551365 L21.9750885,3.84924659 C22.004699,3.80462777 22.0081746,3.74650521 21.9841104,3.69837576 C21.9600462,3.65024631 21.9124215,3.62004297 21.8604893,3.62004297 L21.8604893,3.62004297 Z" id="Shape" fill="#253B80"></path>
                <path d="M24.6953651,2.00025904 L22.9480157,2.00025904 C22.8286183,2.00031012 22.7269946,2.08841711 22.7083938,2.20800953 L22.0017902,6.75080303 C21.995139,6.79339097 22.0072122,6.83679655 22.034829,6.86958388 C22.0624457,6.90237121 22.1028362,6.92125168 22.145359,6.92125168 L23.0420251,6.92125168 C23.1255949,6.92112744 23.1966634,6.85938928 23.2096072,6.77567091 L23.4101436,5.48798052 C23.4286316,5.36828517 23.5302854,5.28004214 23.6497655,5.27997099 L24.2025819,5.27997099 C25.3536867,5.27997099 26.0176284,4.71526267 26.1913415,3.59620765 C26.2697679,3.10662108 26.1944071,2.72194591 25.9683246,2.45254378 C25.7202725,2.15671951 25.2801141,2.00025904 24.6953651,2.00025904 L24.6953651,2.00025904 Z M24.8969234,3.65941353 C24.8016367,4.29509895 24.3226484,4.29509895 23.8592431,4.29509895 L23.5958634,4.29509895 L23.7810722,3.10791628 C23.7920427,3.03614543 23.8530169,2.98322799 23.924641,2.98331768 L24.0454738,2.98331768 C24.360712,2.98331768 24.6585788,2.98331768 24.812366,3.16568231 C24.9040763,3.27447933 24.9319215,3.43612061 24.8969234,3.65941353 L24.8969234,3.65941353 Z M29.9174876,3.63894933 L29.0813656,3.63894933 C29.0097015,3.63874944 28.9486662,3.69171991 28.9377968,3.76354782 L28.900755,4.00082893 L28.8419991,3.91482748 C28.6608777,3.64827479 28.2572502,3.55916485 27.8541336,3.55916485 C26.9296222,3.55916485 26.1402494,4.2691949 25.9864622,5.26520568 C25.9067586,5.76204538 26.0199276,6.23712569 26.2978685,6.5684385 C26.553329,6.87307015 26.9176156,7 27.3516429,7 C28.0965655,7 28.5096451,6.51429904 28.5096451,6.51429904 L28.4723479,6.7500259 C28.4656077,6.79276798 28.4777029,6.83635636 28.5054345,6.86926303 C28.5331661,6.90216969 28.5737408,6.92108 28.6164276,6.92099264 L29.3697804,6.92099264 C29.4892605,6.92092149 29.5909144,6.83267846 29.6094023,6.71298311 L30.0618228,3.80939799 C30.0683131,3.76670797 30.0560763,3.72327411 30.028326,3.69050315 C30.0005757,3.65773218 29.960085,3.63889889 29.9174876,3.63894933 L29.9174876,3.63894933 Z M28.7513107,5.29007357 C28.6710961,5.77473837 28.2912264,6.10009325 27.8073843,6.10009325 C27.5649524,6.10009325 27.3702915,6.0210859 27.2456268,5.87136048 C27.1219839,5.72267123 27.0754901,5.51103513 27.1143201,5.27530826 C27.1901919,4.7947881 27.5754262,4.45881256 28.05186,4.45881256 C28.2894382,4.45881256 28.4825663,4.53885608 28.6097856,4.6898767 C28.7377713,4.84245156 28.7883524,5.05538286 28.7513107,5.29007357 L28.7513107,5.29007357 Z M30.9038204,2.12485753 L30.1867429,6.75080303 C30.1800917,6.79339097 30.192165,6.83679655 30.2197817,6.86958388 C30.2473984,6.90237121 30.2877889,6.92125168 30.3303117,6.92125168 L31.0512211,6.92125168 C31.171032,6.92125168 31.2727053,6.83317791 31.2910984,6.71324215 L31.998213,2.1707077 C32.0048561,2.12809532 31.9927878,2.0846683 31.9651807,2.0518426 C31.9375736,2.01901689 31.8971894,2.00007635 31.8546442,2 L31.0473892,2 C30.9758017,2.00025704 30.9149781,2.05315352 30.9038204,2.12485753 L30.9038204,2.12485753 Z" id="Shape" fill="#179BD7"></path>
                <path d="M1.58494741,7 L1.71853766,6.1733382 L1.42096091,6.1666194 L0,6.1666194 L0.987495035,0.0666914647 C0.993571318,0.028169302 1.02769497,-0.000204390425 1.06770027,0 L3.46364011,0 C4.25905127,0 4.80797182,0.161252417 5.09456505,0.479524673 C5.22892159,0.62883144 5.31449087,0.78485701 5.35587064,0.956559792 C5.39929386,1.13672329 5.40006015,1.35197388 5.35765866,1.61450494 L5.35459349,1.63366598 L5.35459349,1.80188493 L5.48895003,1.87604063 C5.59152002,1.92666559 5.68371608,1.99514719 5.76098371,2.07810245 C5.87592752,2.20575974 5.95025785,2.36800642 5.98167583,2.56036331 C6.01411552,2.75819477 6.00338743,2.99360177 5.95025785,3.26011435 C5.88895449,3.56669091 5.78984738,3.83370118 5.6560017,4.05218675 C5.53790788,4.24791458 5.37912605,4.41743542 5.1898407,4.54987597 C5.01206094,4.6728052 4.80081976,4.76612193 4.56199207,4.82584464 C4.33057187,4.88457197 4.06671197,4.91418448 3.777309,4.91418448 L3.5908446,4.91418448 C3.45750978,4.91418448 3.32800642,4.96096726 3.22634501,5.0448279 C3.12482773,5.12958334 3.05748349,5.24668977 3.03630457,5.37529354 L3.02225589,5.44969808 L2.78623793,6.90668327 L2.77550984,6.96018486 C2.77270011,6.9771063 2.76784692,6.98556701 2.76069486,6.99129044 C2.75376655,6.99681037 2.74512284,6.99988047 2.73617352,7 L1.58494741,7 Z" id="Path" fill="#253B80"></path>
                <path d="M6.34795703,2 C6.34073607,2.04771213 6.33248355,2.09649045 6.32319946,2.14660151 C6.00418796,3.83944913 4.91279212,4.42425589 3.51888981,4.42425589 L2.80917304,4.42425589 C2.63870691,4.42425589 2.49506148,4.55219902 2.46849868,4.72598845 L2.10512988,7.10786317 L2.00223127,7.78302976 C1.99393581,7.83722881 2.00900895,7.89246512 2.04348235,7.9341965 C2.07795575,7.97592788 2.12837484,8 2.1814657,8 L3.44023298,8 C3.58929413,8 3.71591874,7.88804976 3.73938685,7.73611728 L3.75176563,7.67001333 L3.9887677,6.11550422 L4.00398329,6.0302088 C4.0271935,5.87774323 4.15407601,5.76579298 4.30313716,5.76579298 L4.49139779,5.76579298 C5.71096559,5.76579298 6.66567907,5.25402044 6.94471742,3.77307863 C7.06128427,3.15442026 7.00093772,2.63784984 6.69249976,2.27454465 C6.59474097,2.16215808 6.47798644,2.06912366 6.34795703,2 L6.34795703,2 Z" id="Path" fill="#179BD7"></path>
                <path d="M5.6559197,2.11915854 C5.55089447,2.08851891 5.44405378,2.064605 5.33603669,2.04755986 C5.12260053,2.01448015 4.90688954,1.99860847 4.6909526,2.00009556 L2.7360234,2.00009556 C2.58229816,2 2.45144983,2.11292025 2.42784019,2.26611015 L2.0119657,4.9225018 L2,5 C2.0267705,4.82526559 2.1759391,4.6963548 2.35125972,4.69644303 L3.08302865,4.69644303 C4.52024197,4.69644303 5.64554942,4.10783212 5.97447318,2.40501696 C5.98431164,2.3546029 5.99255468,2.30552965 6,2.25752903 C5.91320489,2.21162773 5.82274647,2.17314608 5.72957522,2.14248845 C5.70514873,2.13431489 5.68059373,2.12653725 5.6559197,2.11915854 L5.6559197,2.11915854 Z" id="Path" fill="#222D65"></path>
                <path d="M2.48807394,2.00868431 C2.51086081,1.85957191 2.63836739,1.74966192 2.78802225,1.75013045 L4.6907142,1.75013045 C4.91612833,1.75013045 5.1265321,1.76500186 5.31856113,1.7963101 C5.44850617,1.81689846 5.57665676,1.84769165 5.70184279,1.8884085 C5.79630451,1.91997764 5.88403745,1.95728662 5.96504161,2.00033545 C6.06027973,1.38799851 5.96426522,0.971077152 5.63584899,0.593551994 C5.27378887,0.177935147 4.62032081,0 3.78414049,0 L1.3566037,0 C1.18579621,0 1.04009224,0.125232948 1.01369472,0.295601938 L0.00256612082,6.75683936 C-0.00696504969,6.81754791 0.0103273786,6.87942145 0.049894619,6.92618408 C0.0894618594,6.97294671 0.147342689,6.99991685 0.20831151,7 L1.70701786,7 L2.08331194,4.59317928 L2.48807394,2.00868431 Z" id="Path" fill="#253B80"></path>
            </g>
        </g>
        <rect id="Rectangle" stroke="#1E1E1E" x="0.5" y="0.5" width="39" height="29" rx="3"></rect>
    </g>
</svg>