<svg xmlns="http://www.w3.org/2000/svg" width="14" height="12" viewBox="0 0 375 357" xml:space="preserve"><path class="selected" d="M346.146 134.001c-21.525-1.013-42.57-2.012-63.614-3.044-12.753-.626-25.5-1.458-38.26-1.88-4.695-.155-6.948-2.027-8.613-6.466-11.804-31.47-23.908-62.827-35.919-94.218-2.899-7.576-5.76-15.168-8.758-22.705-.5-1.258-1.613-2.272-2.443-3.398-.81 1.142-1.9 2.176-2.388 3.442-6.49 16.838-12.9 33.707-19.321 50.571-8.484 22.282-17.036 44.537-25.372 66.874-1.643 4.404-4.128 5.863-8.857 5.955-17.591.346-35.175 1.16-52.756 1.917-12.923.557-25.84 1.274-38.757 1.969a4661.338 4661.338 0 0 0-35.254 2.033c-.88.054-1.729.607-2.592.928.552.803.956 1.788 1.68 2.381 6.015 4.93 12.098 9.774 18.142 14.668 14.92 12.082 29.805 24.206 44.75 36.256 10.693 8.62 21.462 17.145 32.192 25.719 2.326 1.858 5.03 3.435 6.8 5.728 1.064 1.381 1.298 4.066.817 5.877-6.575 24.777-13.353 49.5-20.055 74.243-4.281 15.807-8.55 31.617-12.718 47.454-.325 1.233.19 2.687.315 4.038 1.331-.29 2.886-.232 3.96-.922 16.02-10.3 31.989-20.683 47.95-31.078 19.428-12.654 38.855-25.312 58.236-38.04 2.538-1.666 4.352-1.544 7.015.216 28.604 18.901 57.338 37.606 86.038 56.362 7.208 4.71 14.407 9.438 21.658 14.082.998.639 2.276.84 3.423 1.245-.113-1.1-.082-2.237-.363-3.292-4.178-15.661-8.4-31.31-12.605-46.964-6.952-25.882-13.86-51.775-20.901-77.632-.747-2.74-.511-4.505 1.864-6.404 14.738-11.783 29.336-23.743 44-35.621a18524.58 18524.58 0 0 1 40.544-32.754c4.638-3.736 9.417-7.301 13.978-11.128 1.143-.959 1.692-2.626 2.513-3.968-1.49-.479-2.96-1.284-4.476-1.382-7.118-.46-14.248-.726-21.853-1.062m-174.98-67.29c4.92-12.829 9.812-25.668 14.8-38.47.558-1.431 1.67-2.647 2.526-3.963.88 1.275 2.054 2.437 2.599 3.843a18766.095 18766.095 0 0 1 25.864 67.203c4.5 11.748 8.82 23.566 13.489 35.245.821 2.055 2.647 4.493 4.56 5.151 3.2 1.1 6.836 1.055 10.302 1.236 20.038 1.05 40.08 2.035 60.122 3.023 14.08.693 28.163 1.319 42.239 2.092 1.31.072 2.573.99 3.858 1.516-.64 1.089-1.037 2.476-1.956 3.22-12.464 10.11-25.013 20.115-37.515 30.178-16.497 13.28-32.938 26.632-49.494 39.84-2.3 1.835-2.809 3.544-2.037 6.359 7.347 26.798 14.57 53.63 21.804 80.46 2.669 9.898 5.28 19.812 7.88 29.729.235.898.18 1.873.26 2.812-.994-.316-2.103-.448-2.963-.98a648.745 648.745 0 0 1-13.4-8.54c-27.309-17.849-54.632-35.676-81.866-53.64-2.769-1.826-4.721-1.837-7.48.001-16.814 11.203-33.754 22.215-50.645 33.3-13.57 8.904-27.098 17.873-40.741 26.663-1.448.933-3.545.857-5.341 1.249-.015-1.7-.38-3.487.017-5.084 1.518-6.096 3.304-12.125 4.949-18.19 7.49-27.616 14.912-55.25 22.477-82.845 2.247-8.196 1.714-9.769-5.219-15.055-7.627-5.815-15.082-11.86-22.55-17.882-13.266-10.698-26.466-21.479-39.732-32.178-7.21-5.816-14.518-11.51-21.726-17.33-.848-.684-1.34-1.81-1.997-2.732 1.035-.313 2.052-.79 3.11-.908 3.615-.407 7.239-.808 10.87-.997 20.04-1.042 40.081-2.027 60.123-3.02 13.747-.68 27.49-1.6 41.246-1.86 4.408-.084 6.057-1.914 7.42-5.547 7.91-21.077 15.97-42.098 24.148-63.9z"/></svg>