<svg xmlns="http://www.w3.org/2000/svg" width="66" height="51" viewBox="0 0 66 51">
    <g fill="#181715" fill-rule="nonzero">
        <path d="M49.84 18.52H16.16c-.16 0-.32-.08-.44-.2a.451.451 0 0 1-.12-.44c.16-1.04 1.6-10.04 4.92-11.08 1.72-.52 7.56-.68 12.4-.68h.12c4.92 0 10.68.16 12.4.68 3.28 1 4.76 10.04 4.92 11.08.04.16-.04.32-.12.44-.08.12-.24.2-.4.2zM16.8 17.4h32.36c-.64-3.64-2.16-8.96-4.04-9.52-1.32-.4-6.08-.64-12.08-.64h-.12c-6.08 0-10.76.24-12.08.64-1.88.56-3.4 5.88-4.04 9.52zM10.36 37.4c-2.8 0-5.04-2.28-5.04-5.04 0-2.76 2.28-5.04 5.04-5.04 2.76 0 5.04 2.24 5.04 5.04s-2.28 5.04-5.04 5.04zm0-9c-2.16 0-3.96 1.76-3.96 3.96s1.76 3.96 3.96 3.96 3.96-1.76 3.96-3.96-1.8-3.96-3.96-3.96zM55.64 37.4c-2.8 0-5.04-2.28-5.04-5.04 0-2.76 2.28-5.04 5.04-5.04 2.76 0 5.04 2.28 5.04 5.04 0 2.76-2.24 5.04-5.04 5.04zm0-9c-2.16 0-3.96 1.76-3.96 3.96s1.76 3.96 3.96 3.96c2.16 0 3.96-1.76 3.96-3.96s-1.76-3.96-3.96-3.96z"/>
        <path d="M64.24 26.96c-3-5.88-7.36-8.52-8.88-9.32-.52-2.32-2.72-11.28-5.72-14.36C47.48 1.08 38.2.48 33.08.48h-.12c-5.16 0-14.44.6-16.56 2.8-3 3.08-5.2 12.08-5.72 14.36-1.52.8-5.84 3.44-8.88 9.32-1.8 3.52-.72 12.4 2.4 14.4 2 1.28 4.44 1.84 5.24 1.84v5.04c0 1.24 1 2.24 2.24 2.24h5.08c1.24 0 2.24-1 2.24-2.24v-4.88-.16h28.24v5.04c0 1.24 1 2.24 2.24 2.24h5.08c1.24 0 2.24-1 2.24-2.24v-4.88-.16c.8 0 3.2-.56 5.24-1.84 2.92-2 4-10.88 2.2-14.4zm-43.88 2.92c.2-.24.44-.36.68-.36 1.8-.08 7-.12 11.84-.12h.28c4.8 0 10 .08 11.84.12.24 0 .48.12.68.36 1.56 1.68 1.76 7.84 1.72 11.12H18.64c-.04-3.32.16-9.44 1.72-11.12zm40.28 9.6c-1.72 1.08-3.68 1.48-4.04 1.52h-8.16c.04-2.84 0-9.72-2-11.84-.44-.44-.92-.68-1.44-.72-1.84-.04-7.04-.12-11.88-.12h-.28c-4.84 0-10.04.08-11.88.12-.56 0-1.04.24-1.44.72-2 2.16-2.04 9.04-2 11.84H9.36c-.36 0-2.32-.4-4.04-1.52C3.84 38.52 2 31.32 3.72 28c3.24-6.32 8.24-8.52 8.28-8.56.32-.16.56-.44.64-.8.64-3 2.84-11.32 5.28-13.84 1-1.04 7-2.12 15-2.16h.12c7.96 0 14 1.12 15 2.16 2.44 2.52 4.64 10.84 5.28 13.84.08.36.32.64.64.8.04.04 5.04 2.2 8.28 8.56 1.72 3.32-.12 10.52-1.6 11.48z"/>
    </g>
</svg>
