<svg xmlns="http://www.w3.org/2000/svg" width="66" height="40" viewBox="0 0 66 40">
    <path fill="#181715" fill-rule="nonzero" d="M64.48 21.04c-.24-.08-5.52-2.12-11.76-1.84 1.24-6.52-.36-12.52-.48-12.84-.16-.6-.76-.92-1.32-.8-.32.08-5.76 1.48-10.68 5.24-2.36-5.72-6.32-9.64-6.48-9.8-.44-.4-1.12-.4-1.56 0-.16.2-4.12 4.12-6.48 9.84C20.84 7.08 15.4 5.68 15.08 5.6c-.6-.12-1.16.2-1.32.8-.08.32-1.68 6.32-.48 12.84C7.04 18.96 1.76 21 1.52 21.08c-.56.2-.84.84-.64 1.4.16.44 3.96 10.8 12.84 14.84 3 1.36 6.16 1.84 9.08 1.84 4.88 0 8.96-1.32 10.2-1.72 1.24.44 5.32 1.72 10.2 1.72 2.88 0 6.08-.44 9.08-1.84 8.88-4.04 12.68-14.4 12.84-14.84.2-.6-.08-1.2-.64-1.44zM48.36 24.8c-3.6 6.12-10.88 9-13.64 9.88-.56-2.84-1.6-10.56 2-16.72 3.6-6.12 10.88-9 13.64-9.88.56 2.84 1.6 10.6-2 16.72zM33 3.44c1.28 1.48 3.92 4.76 5.48 8.92-1.36 1.28-2.64 2.76-3.64 4.48-.8 1.36-1.4 2.8-1.84 4.24-.44-1.44-1.04-2.88-1.84-4.24-1-1.72-2.28-3.2-3.64-4.48 1.56-4.16 4.2-7.44 5.48-8.92zM15.64 8.08c2.76.88 10 3.76 13.64 9.88 3.6 6.12 2.56 13.88 2 16.72-2.76-.88-10.04-3.76-13.64-9.88-3.6-6.12-2.56-13.88-2-16.72zm-1 27.24C8.2 32.36 4.56 25.4 3.4 22.76c1.88-.56 5.96-1.6 10.44-1.28.44 1.52 1.04 3 1.88 4.44 3.4 5.8 9.56 8.92 13.2 10.32-3.6.76-9.28 1.36-14.28-.92zm36.72 0c-5 2.28-10.68 1.72-14.28.92 3.64-1.4 9.8-4.48 13.2-10.32.84-1.44 1.44-2.92 1.88-4.44 4.44-.32 8.56.72 10.44 1.28-1.16 2.64-4.76 9.6-11.24 12.56z"/>
</svg>
