<svg xmlns="http://www.w3.org/2000/svg" width="52" height="66" viewBox="0 0 52 66">
    <g fill="#181715" fill-rule="nonzero">
        <path d="M50.32 16.96h-7.04V5.6c0-2.56-2.08-4.68-4.68-4.68-2.56 0-4.68 2.08-4.68 4.68v11.36H18.04V5.6c0-2.56-2.08-4.68-4.68-4.68C10.76.92 8.72 3 8.72 5.6v11.36H1.68c-.6 0-1.12.48-1.12 1.12v14.08c0 12 8.36 22.08 19.6 24.76V64c0 .6.48 1.12 1.12 1.12.6 0 1.12-.48 1.12-1.12v-6.68c1.2.16 2.4.28 3.6.28 1.24 0 2.44-.08 3.64-.28V64c0 .6.48 1.12 1.12 1.12.64 0 1.12-.48 1.12-1.12v-7.12c11.2-2.64 19.56-12.72 19.56-24.76V18.04c0-.6-.52-1.08-1.12-1.08zM36.16 5.6c0-1.36 1.08-2.44 2.44-2.44 1.36 0 2.44 1.08 2.44 2.44v11.36h-4.92V5.6h.04zm-25.24 0c0-1.36 1.08-2.44 2.44-2.44 1.36 0 2.44 1.08 2.44 2.44v11.36h-4.88V5.6zM49.2 32.12c0 12.8-10.4 23.2-23.2 23.2-12.8 0-23.2-10.4-23.2-23.2V19.16h46.4v12.96z"/>
        <path d="M21.32 50.28c-.2 0-.44-.08-.6-.2-.52-.36-.64-1.04-.32-1.56l8.68-13-7.76 1.36c-.44.08-.88-.12-1.12-.48-.24-.36-.24-.84 0-1.24l9.2-13.68c.36-.52 1.04-.64 1.56-.28s.64 1.04.28 1.56l-7.76 11.48 7.76-1.36c.44-.08.88.12 1.12.48.24.36.24.84 0 1.24L22.24 49.76c-.24.32-.56.52-.92.52z"/>
        <path d="M21.16 50.64c-.2 0-.4-.04-.6-.16-.32-.2-.52-.6-.52-.96l.28-8.96c0-.6.56-1.08 1.16-1.08.6 0 1.08.52 1.08 1.16l-.24 7.12 7.04-3.56c.56-.28 1.2-.04 1.48.48.28.56.04 1.2-.48 1.48l-8.72 4.4c-.16.04-.32.08-.48.08z"/>
    </g>
</svg>
