<svg xmlns="http://www.w3.org/2000/svg" width="38" height="64" viewBox="0 0 38 64">
    <g fill="#181715" fill-rule="nonzero">
        <path d="M13.4 12.88L7.96 1.84c-.36-.76-1.6-.76-2 0L.48 12.88c-.08.16-.12.32-.12.48V62.4c0 .6.48 1.12 1.12 1.12H12.4c.6 0 1.12-.48 1.12-1.12V13.36c0-.16-.04-.32-.12-.48zm-10.12-.6l2.6-5.24c.68 0 1.48.04 2.16.04l2.56 5.2H3.28zm-.68 2.2h3.8v46.84H2.6V14.48zm4.92 46.84V14.48h3.8v46.84h-3.8zM36.52 5.92h-4.04c-.6-1.68-1.28-2.96-2.04-3.68l-.16-.16c-1.96-1.88-3.2-2.48-5.8.2-2.52 2.56-3.92 8.24-3.92 15.92v40.64c0 2.6 2.12 4.72 4.72 4.72h4.4c2.6 0 4.72-2.12 4.72-4.72V18.2c0-3.48-.48-7.08-1.24-10.04h2.24v22.76c0 .6.48 1.12 1.12 1.12.64 0 1.12-.48 1.12-1.12V7.04c-.04-.64-.52-1.12-1.12-1.12zM26.08 3.84c.72-.72 1.04-1.08 1.4-1.08.32 0 .64.32 1.32.92l.16.16c.52.52 1.16 1.8 1.72 3.56v.04c.84 2.68 1.52 6.56 1.52 10.72v8.24c-3.96 2.52-8 .72-9.4-.04V18.2c0-6.92 1.2-12.28 3.28-14.36zm3.6 57.48h-4.4c-1.36 0-2.48-1.12-2.48-2.48V28.88c1.2.52 2.96 1.08 5 1.08 1.4 0 2.88-.28 4.4-1V58.8c-.04 1.4-1.16 2.52-2.52 2.52z"/>
    </g>
</svg>
