<svg xmlns="http://www.w3.org/2000/svg" width="26" height="60" viewBox="0 0 26 60">
    <path fill="#181715" fill-rule="nonzero" d="M24.72 59.6H1.68c-.6 0-1.12-.48-1.12-1.12v-4.24c0-.6.48-1.12 1.12-1.12 3.52 0 5.28-.76 5.28-2.24V28.32C6.96 26.8 5.2 26 1.68 26c-.6 0-1.12-.48-1.12-1.12v-4.24c0-.6.48-1.12 1.12-1.12h16.56c.6 0 1.12.48 1.12 1.12V50.92c0 .44.08.76.36 1.04.4.44 1.6 1.12 5 1.12.6 0 1.12.48 1.12 1.12v4.24c0 .64-.52 1.16-1.12 1.16zM2.8 57.36h20.8v-2.04c-2.64-.12-4.48-.72-5.48-1.8-.68-.72-1-1.64-.96-2.68V21.76H2.8v2.04c5.24.28 6.4 2.56 6.4 4.48v22.6c0 1.92-1.16 4.16-6.4 4.44v2.04zm10.04-41.68c-1.04 0-2.04-.2-2.96-.6-.88-.4-1.68-.92-2.32-1.6a7.76 7.76 0 0 1-1.6-2.32c-.4-.92-.6-1.88-.6-2.96 0-2.08.76-3.88 2.24-5.28C9.08 1.52 10.84.8 12.88.8s3.8.72 5.24 2.2c1.44 1.44 2.2 3.2 2.2 5.24s-.72 3.8-2.12 5.28c-1.48 1.4-3.28 2.16-5.36 2.16zm0-12.72c-1.44 0-2.68.48-3.72 1.52-1.04 1-1.56 2.2-1.56 3.68 0 .76.12 1.4.44 2.04.28.64.68 1.2 1.16 1.68.48.48 1.04.84 1.68 1.16.6.28 1.32.44 2.04.44 1.48 0 2.68-.52 3.68-1.56s1.52-2.28 1.52-3.72c0-1.44-.52-2.64-1.52-3.68-1.08-1.04-2.28-1.56-3.72-1.56z"/>
</svg>
