<svg xmlns="http://www.w3.org/2000/svg" width="62" height="62" viewBox="0 0 62 62">
    <g fill="#181715" fill-rule="nonzero">
        <path d="M7.64 22.76h-.12l-3.56-.88a.561.561 0 0 1-.4-.68c.08-.28.36-.48.68-.4l3.56.88c.28.08.48.36.4.68-.08.24-.32.4-.56.4zM7.48 44.76h-.16l-3.28-.88c-.28-.08-.48-.4-.4-.68.08-.28.4-.48.68-.4l3.28.88c.28.08.48.4.4.68-.04.24-.28.4-.52.4zM15.44 23.76c-.12 0-.24-.04-.32-.12a.553.553 0 0 1-.24-.44v-7.92c0-.24.16-.44.36-.52l15.08-5.04c.16-.04.36-.04.52.08.16.12.24.28.24.44v7.92c0 .24-.16.44-.36.52L15.6 23.76h-.16zm.56-8.08v6.76l13.96-4.68v-6.72L16 15.68z"/>
        <g transform="translate(.4 -.2)">
            <path d="M39.36 18.6c-1.08 0-2.12.12-3.2.24V4.48c0-.36-.16-.68-.44-.88-.28-.2-.64-.28-1-.16l-1.6.52-.08-1.8c0-.16-.08-.36-.24-.44-.16-.08-.32-.12-.52-.04l-4.52 1.68V1.4c0-.2-.08-.36-.24-.48A.492.492 0 0 0 27 .88l-4.76 2.08V.92c0-.2-.12-.36-.28-.48-.16-.12-.36-.12-.56 0l-1.52.76c0-.16-.04-.28-.12-.4-.28-.56-.96-.76-1.52-.44L.88 9.64l-.04.04c-.04.04-.12.04-.16.08-.04.04-.08.12-.12.16l-.04.04c-.16.2-.28.44-.28.68V52c0 .52.36.96.84 1.08l8.48 2.04c.08.04.16.04.24.04.12 0 .24 0 .32-.04l10.6-3.36C24.56 58 31.44 62.2 39.28 62.2c12.04 0 21.8-9.76 21.8-21.8.08-12.04-9.68-21.8-21.72-21.8zM32.04 4.28L9.8 11.2h-.16l22.32-8.24.08 1.32zm-5.36-.56L7.56 10.76l-.28-.04L26.64 2.2v1.52h.04zm-5.52-.32L5.44 10.32h-.08l15.8-8.52v1.6zM2.48 12l6.24 1.28v39.36l-6.24-1.48V12zm8.48 40.52V13.16l23-7.2v13.32c-9.4 2.4-16.4 10.96-16.4 21.08 0 3.36.8 6.52 2.16 9.36l-8.76 2.8zm28.4 7.44c-10.8 0-19.56-8.8-19.56-19.56 0-10.8 8.8-19.56 19.56-19.56 10.76 0 19.56 8.8 19.56 19.56 0 10.8-8.76 19.56-19.56 19.56z"/>
            <path d="M39.36 49.8c-5.2 0-9.4-4.24-9.4-9.4s4.24-9.4 9.4-9.4c5.2 0 9.4 4.24 9.4 9.4s-4.2 9.4-9.4 9.4zm0-16.6c-3.96 0-7.2 3.24-7.2 7.2s3.24 7.2 7.2 7.2 7.2-3.24 7.2-7.2c0-4-3.24-7.2-7.2-7.2zM28.2 35.48c-.08 0-.16 0-.24-.04-.28-.12-.4-.44-.28-.72 1.76-3.84 5.96-6.92 10-7.32.28-.04.56.2.6.48.04.32-.2.56-.48.6-3.68.36-7.52 3.2-9.12 6.68a.52.52 0 0 1-.48.32zM24.68 33.84c-.08 0-.16 0-.24-.04-.28-.12-.4-.44-.28-.72 2.12-4.84 7.32-8.72 12.96-9.6.28-.04.6.16.64.48.04.32-.16.6-.48.64-5.24.8-10.08 4.4-12.08 8.92-.08.2-.28.32-.52.32z"/>
            <circle cx="39.36" cy="40.4" r="1.64"/>
        </g>
    </g>
</svg>
