<svg xmlns="http://www.w3.org/2000/svg" width="64" height="56" viewBox="0 0 64 56">
    <path fill="#1D1D1B" fill-rule="nonzero" d="M51.865 32.665c3.74-1.413 6.15-3.782 6.15-6.525 0-2.992-2.909-5.569-7.272-6.898 2.743-1.164 4.488-3.034 4.488-5.154 0-2.41-2.202-4.446-5.569-5.569 1.496-.872 2.37-2.077 2.37-3.449 0-2.743-3.575-4.82-8.313-4.82-4.737 0-8.311 2.077-8.311 4.82 0 1.372.873 2.577 2.369 3.45-3.367 1.122-5.61 3.158-5.61 5.568 0 2.12 1.745 3.99 4.488 5.154l-.5.124a12.454 12.454 0 0 0-4.986-1.039c-3.574 0-6.94 1.538-9.268 4.156a12.404 12.404 0 0 0-9.267-4.156c-6.857 0-12.426 5.57-12.426 12.468.831 15.376 20.405 24.062 21.236 24.395l.416.207.457-.166c.166-.083 3.948-1.537 8.27-4.447 3.616 1.663 8.229 2.577 13.09 2.577 11.222 0 20.032-4.738 20.032-10.805 0-4.447-4.82-8.229-11.844-9.891zM43.719 2.577c3.658 0 5.985 1.496 5.985 2.493 0 1.04-2.327 2.494-5.985 2.494-3.657 0-5.984-1.496-5.984-2.494 0-.997 2.327-2.493 5.984-2.493zm-9.225 11.511c0-1.953 3.781-4.156 9.184-4.156 5.444 0 9.184 2.203 9.184 4.156 0 1.954-3.781 4.156-9.184 4.156-5.403 0-9.184-2.202-9.184-4.156zm9.225 6.483c7.065 0 12.01 2.951 12.01 5.61 0 2.66-4.945 5.611-12.01 5.611h-.124c0-.332.041-.665.041-.997 0-3.907-1.828-7.44-4.696-9.683 1.496-.374 3.117-.54 4.78-.54zm-31.044.084c3.325 0 6.442 1.62 8.312 4.363l.956 1.372.956-1.372c1.911-2.743 4.987-4.363 8.311-4.363 5.57 0 10.1 4.53 10.1 10.098 0 1.746-.292 3.408-.79 4.946H25.765c-.25 0-.457.124-.54.374l-2.286 5.569-2.452-13.008c-.041-.291-.29-.457-.582-.457-.29 0-.498.207-.581.457l-2.577 13.88L14.545 32.5a.575.575 0 0 0-.54-.457c-.25-.042-.499.124-.582.374l-2.16 6.275L9.1 35.906a.667.667 0 0 0-.457-.207H3.657c-.582-1.58-.997-3.2-1.08-4.946 0-5.569 4.53-10.098 10.098-10.098zm9.31 32.249c-2.37-1.122-13.632-6.899-17.83-16.042h4.281l2.619 3.408c.124.166.332.25.54.208a.599.599 0 0 0 .457-.374l1.829-5.361 2.368 10.805c.042.25.291.457.582.457a.54.54 0 0 0 .54-.457l2.535-13.631 2.245 11.886c.041.249.249.457.498.457.25.041.5-.125.582-.374l2.868-6.982h13.963c-3.781 9.475-15.626 14.96-18.078 16zm21.734-1.829c-3.99 0-7.77-.665-10.888-1.87.042-.041.042-.041.083-.041 5.86-4.447 9.392-9.642 10.39-15.086h.374c9.6 0 17.704 3.906 17.704 8.52.041 4.612-8.063 8.477-17.663 8.477z"/>
</svg>
