<svg xmlns="http://www.w3.org/2000/svg" width="58" height="58" viewBox="0 0 58 58">
    <g fill="#000" fill-rule="nonzero">
        <path d="M54.367 26.211h-1.2a3.343 3.343 0 0 0-3.334 3.333v1.278c-3.21-.555-11.577-1.666-19.077.267-4.145 1.067-6.334 3.1-7.478 5.133a10.892 10.892 0 0 0-3.067-4.2c-3.955-3.355-9.555-3.444-12.044-3.289v-2.21c0-1.834-1.5-3.334-3.334-3.334H4.09a3.343 3.343 0 0 0-3.333 3.333v27.59c0 1.832 1.5 3.332 3.333 3.332h.744c1.834 0 3.334-1.5 3.334-3.333V48.59h41.655v5.522c0 1.833 1.5 3.333 3.334 3.333h1.2c1.833 0 3.333-1.5 3.333-3.333V29.544a3.32 3.32 0 0 0-3.322-3.333zM31.31 33.244c7.322-1.888 15.811-.644 18.522-.155v7.633H24.3c-.011-.089-.011-.189-.022-.289.089-1.922 1.044-5.644 7.033-7.189zm-12.522.478c1.922 1.634 3.022 3.978 3.289 6.99H8.167v-9.756c2.1-.123 7.222-.112 10.622 2.766zm36.689 20.39c0 .61-.5 1.11-1.111 1.11h-1.2c-.611 0-1.111-.5-1.111-1.11v-6.634c0-.611-.5-1.111-1.112-1.111H7.056c-.612 0-1.112.5-1.112 1.11v6.634c0 .611-.5 1.111-1.11 1.111h-.745c-.611 0-1.111-.5-1.111-1.11v-27.6c0-.612.5-1.112 1.11-1.112h.745c.611 0 1.111.5 1.111 1.111v15.311c0 .611.5 1.111 1.112 1.111h43.888c.612 0 1.112-.5 1.112-1.11V29.543c0-.61.5-1.11 1.11-1.11h1.2c.612 0 1.112.5 1.112 1.11v24.567zM55.3 20.567c-.189 0-.378-.045-.544-.145L30.089 6.644 3.21 20.444a1.056 1.056 0 0 1-.878.056 1.106 1.106 0 0 1-.644-.6L.267 16.644a1.114 1.114 0 0 1 .51-1.433L29.478.456c.2-.1.412-.145.634-.123.222-.022.467.023.667.134l26.489 14.766c.5.278.71.89.477 1.411L56.322 19.9a1.1 1.1 0 0 1-1.022.667zM2.711 16.722l.533 1.211L29.6 4.4a1.09 1.09 0 0 1 1.044.022L54.778 17.89l.522-1.2L30.389 2.8a1.22 1.22 0 0 1-.6-.011L2.71 16.722z"/>
    </g>
</svg>
