<svg xmlns="http://www.w3.org/2000/svg" width="60" height="69" viewBox="0 0 60 69">
    <path fill="#181715" fill-rule="nonzero" d="M59.68 26.44c-.56-1.88-3-3.88-4.88-4.56-.44-.12-.76-.12-1.12.12-1 .56-1.76 2.68-2.44 6.24L35.68 1.36c-.24-.44-.76-.68-1.32-.44L13.56 8c-.56.24-.88.76-.76 1.32L17.36 29c.12.44.56.88 1 .88l8.24.24c-.56 3.12-1.68 5.76-3.44 7.76-1.44 1.68-3.24 2.68-4.88 3.32-2.24-2-4.68-3.88-6.56-2.44-.68.44-1 1.24-1.12 2 0 .32 0 .68.12 1.12-2.56-1.12-5.12-2.12-6.12-2-1 .12-1.76.76-2.32 1.76-.56 1-.68 2.12-.44 3.12-1.44 1.32-.88 2.88-.56 3.88.12.32.24.56.32.88-1 1.68-.44 3.68.32 5.12-.56 1-.76 2.32.24 3.88 1.32 1.88 8 4.12 10.76 5l1.88 4.12c.24.44.56.68 1 .68.12 0 .32 0 .44-.12.56-.24.76-.88.56-1.44l-2.12-4.56c-.12-.32-.32-.44-.68-.56-4.32-1.32-9.32-3.32-10.12-4.32-.68-.88-.24-1.44 0-1.68.44-.32.56-1 .24-1.56 0 0-1.68-2.32-.56-3.44.24-.24.32-.56.24-.88-.12-.68-.32-1.32-.56-1.76-.44-1.12-.44-1.24.32-1.76.44-.32.68-.88.32-1.44-.32-.76-.24-1.56.12-2 .24-.32.44-.56.68-.56.88 0 5 1.76 8.44 3.44.44.24 1.12.12 1.44-.32.32-.44.24-1.12-.12-1.44l-.32-.32c.68-.12 1.56-.24 2.56-.44.32.32.68.56 1 .88.88.76 1.56 1.44 2 1.68.68.68 1.76 5.56 2.44 9.56 0 .24.12.44.24.56l7.32 8.76c.44.44 1.12.56 1.56.12.44-.44.56-1.12.12-1.56l-7.12-8.56c-.56-3.76-1.68-9.76-3.32-10.88-.32-.24-1-.88-1.68-1.44l-.12-.12c1.68-.68 3.32-1.76 4.76-3.44 1.88-2.24 3.24-5 3.76-8.44l19.88.56c-2.88.88-3.32 1.68-3.56 2-.24.32-.24.76 0 1.12.76 1.88 2.88 4.24 4.76 4.68.24.12.56.12.76.12.44 0 .88-.12 1.32-.44 1-.76 1.76-2.68 2.32-4.68 3.76 5.88 6.44 15.68 2.68 19.68-1.88 2-4.88 3.12-7.68 4.12-2.88 1.12-5.32 2-5.76 3.76-.24 1.12.44 2.44 2 4 .12.12.24.12.32.12.08 0 .32 0 .44-.24.24-.24.24-.56 0-.76-1.32-1.24-1.88-2.32-1.68-3 .24-1.24 2.56-2.12 5-3 2.76-1 6-2.24 8.12-4.44C61 49.12 57.56 38 53.44 32c0-.24.12-.32.12-.56 3.12-.88 5-1.88 5.76-2.88.56-.56.68-1.32.36-2.12zm-46.24 15.8c-.32-.56-.56-1-.56-1.44 0-.12 0-.24.24-.32.32-.24 1.24.24 2.68 1.44-.92.2-1.68.2-2.36.32zm34.68-15.12c-4.76-2.76-13.32-7.56-20.68-11.44l7.32-11.44 13.36 22.88zm-21.68-12c-4.44-2.44-8.32-4.44-10.56-5.68L34 3.24l-7.56 11.88zm-11.12-4.8c2.12 1.12 6 3.24 10.56 5.68l-6.76 10.56-3.8-16.24zm4.44 17.24l6.44-10.12c.68 3.88.88 7.32.68 10.32l-7.12-.2zm7.56-10.8c7.56 4.12 16.24 8.88 20.68 11.56l-19.88-.56c.2-3.2-.12-6.88-.8-11zm31.24 11.12c-.56.76-2.56 1.68-5.44 2.56l-.32.12-.12.32C52 34.2 51 36.64 50.24 37.2c-.32.24-.68.24-1.12.12-1.44-.44-3.32-2.44-4-4.12v-.24c.32-.56 2.12-1.56 6.44-2.32l.32-.12v-.44c.68-4.88 1.56-7 2.24-7.32h.24c1.68.68 3.76 2.44 4.24 3.88.16.6.16 1.04-.04 1.24z"/>
</svg>
