<svg xmlns="http://www.w3.org/2000/svg" width="64" height="67" viewBox="0 0 64 67">
    <g fill="#1D1D1B" fill-rule="nonzero">
        <path d="M35.116 43.747l-1.931-4.769 2.6-1.024.316.748-1.655.67.473 1.143 1.576-.63.316.749-1.577.63.512 1.3 1.656-.67.315.789zM41.698 40.634c-.197.472-.63.788-1.262 1.064-.394.157-.709.236-.985.236s-.512-.04-.71-.158a1.769 1.769 0 0 1-.512-.433 9.023 9.023 0 0 1-.354-.63l-1.261-3.114.906-.355 1.222 3.035c.079.157.118.276.197.394a.92.92 0 0 0 .276.276c.118.079.236.079.394.079.157 0 .315-.04.512-.119.355-.157.552-.315.67-.551.079-.237.04-.552-.118-.946l-1.182-2.956.906-.355 1.182 2.917c.316.63.355 1.182.119 1.616zM45.757 39.49l-2.089-1.458-.079.04.789 1.97-.907.355-1.931-4.769c.197-.079.394-.157.591-.276.237-.078.473-.197.749-.315s.512-.158.749-.197c.236-.04.433-.04.63 0s.355.118.513.276c.157.118.276.315.354.552.08.197.119.354.119.512 0 .158-.04.355-.08.512-.039.158-.157.316-.275.434-.118.118-.236.236-.394.355.118.078.197.118.315.197.118.078.197.118.276.197l1.734 1.143-1.064.473zm-1.498-3.31c-.197-.473-.551-.552-1.143-.315-.078.04-.118.04-.197.079-.078.039-.118.039-.157.078l.552 1.38c.039 0 .078-.04.157-.04.079-.04.118-.04.197-.078.276-.119.473-.276.591-.473.08-.197.08-.395 0-.631zM50.644 34.682c.158.394.237.789.237 1.143 0 .355-.04.67-.197.986-.119.315-.316.551-.552.788-.237.236-.513.394-.828.552-.355.157-.71.236-1.025.236-.315 0-.59-.079-.867-.197a1.687 1.687 0 0 1-.71-.591c-.196-.276-.393-.552-.55-.946a3.123 3.123 0 0 1-.237-1.143c0-.355.04-.67.197-.985.118-.316.315-.552.552-.789.236-.236.512-.394.827-.551a2.71 2.71 0 0 1 .946-.197c.315 0 .591.04.867.157.276.119.512.316.749.552.236.237.433.552.591.985zm-.946.434c-.197-.512-.473-.907-.827-1.104-.316-.197-.71-.197-1.104-.04-.158.08-.315.159-.433.277a.946.946 0 0 0-.276.473c-.08.197-.08.394-.08.59 0 .237.08.474.158.75.119.236.237.473.355.67.118.197.276.315.434.433.157.119.354.158.512.197.197 0 .394 0 .591-.118.158-.079.316-.158.434-.276.118-.118.236-.276.315-.473.079-.197.118-.394.079-.63 0-.197-.04-.434-.158-.75zM28.376 57.896a2.645 2.645 0 0 1-1.418.394c-.789 0-1.459-.315-1.932-.867-.354-.394-.59-.946-.709-1.655h-.591v-.473h.552v-.158-.433h-.552v-.473h.63c.119-.67.395-1.222.789-1.616.473-.513 1.103-.789 1.891-.789.552 0 1.025.158 1.262.316l-.197.63c-.237-.157-.631-.276-1.065-.276-.512 0-.945.198-1.26.513-.277.276-.474.71-.592 1.222h2.68v.473h-2.759v.551h2.799v.473h-2.72c.079.552.276.986.512 1.261.355.355.828.552 1.34.552.513 0 .946-.197 1.183-.315l.157.67z"/>
        <path d="M36.81 52.772c-1.221 0-2.325.316-3.35.867-.63-3.192-3.428-5.635-6.818-5.635-3.823 0-6.936 3.113-6.936 6.936s3.113 6.936 6.936 6.936a7.065 7.065 0 0 0 3.35-.867c.592 3.193 3.43 5.636 6.819 5.636 3.823 0 6.936-3.113 6.936-6.936s-3.113-6.937-6.936-6.937zM26.683 59.67a4.743 4.743 0 0 1-4.73-4.729 4.743 4.743 0 0 1 4.73-4.73 4.743 4.743 0 0 1 4.73 4.73c0 .118.039.236.078.355-.749.867-1.261 1.97-1.498 3.113-.078.04-.197.08-.276.158a4.71 4.71 0 0 1-3.034 1.103zm10.129 4.77a4.743 4.743 0 0 1-4.73-4.73 4.743 4.743 0 0 1 4.73-4.73 4.743 4.743 0 0 1 4.729 4.73 4.743 4.743 0 0 1-4.73 4.73z"/>
        <path d="M38.505 62.665a2.645 2.645 0 0 1-1.419.394c-.788 0-1.458-.315-1.93-.867-.355-.394-.592-.946-.67-1.656h-.592v-.472h.552v-.158-.434h-.552V59h.63c.119-.67.395-1.221.789-1.615.473-.513 1.103-.789 1.892-.789.551 0 1.024.158 1.26.316l-.196.63c-.237-.157-.63-.276-1.064-.276-.513 0-.946.197-1.261.513-.276.276-.473.71-.592 1.221h2.68v.473h-2.758v.552h2.798v.473h-2.72c.08.552.276.985.513 1.261.354.355.827.552 1.34.552.512 0 .946-.197 1.182-.315l.118.67zM63.768 34.919l-6.227-15.962a1.087 1.087 0 0 0-.591-.591 1.01 1.01 0 0 0-.828 0l-2.68 1.064-2.561-6.582a1.087 1.087 0 0 0-.592-.59 1.01 1.01 0 0 0-.827 0l-26.88 10.404a18.5 18.5 0 0 0-2.088-3.271 24.828 24.828 0 0 0-3.035-3.075c-1.064-.867-2.01-1.734-2.877-2.522a27.038 27.038 0 0 1-2.128-2.168c-.433-.551-.67-1.103-.67-1.615 0-.828.315-1.222.552-1.42.315-.236.985-.551 2.522-.551 1.222 0 2.444.158 3.547.512.316.08.67.04.946-.157.276-.197.434-.513.473-.828l.394-5.754c.04-.512-.315-.985-.827-1.143-.75-.197-1.577-.315-2.405-.394a47.416 47.416 0 0 0-2.325-.079c-2.167 0-4.06.276-5.596.788-1.577.513-2.877 1.261-3.902 2.168-1.064.946-1.813 2.01-2.286 3.271a10.241 10.241 0 0 0-.71 3.784c0 1.3.198 2.443.592 3.468a12.1 12.1 0 0 0 1.025 2.01A11.1 11.1 0 0 0 1.3 18.799C.473 20.297.039 21.992.039 23.805c0 1.773.355 3.39.986 4.808a16.608 16.608 0 0 0 2.404 3.705c.906 1.064 1.931 2.05 2.995 2.995 1.025.867 2.01 1.695 2.877 2.443.828.71 1.537 1.42 2.089 2.129.434.551.67 1.103.67 1.694 0 .631-.236 1.104-.749 1.537-.552.434-1.537.71-2.877.71-1.222 0-2.522-.197-3.862-.591a1.152 1.152 0 0 0-.946.157 1.121 1.121 0 0 0-.473.828l-.434 5.833c-.039.512.316 1.025.828 1.143.749.197 1.616.355 2.483.433.906.08 1.655.158 2.286.158 2.325 0 4.335-.276 5.99-.828 1.695-.551 3.114-1.3 4.178-2.246 1.104-.985 1.931-2.089 2.404-3.31.473-1.183.75-2.444.75-3.705 0-1.3-.198-2.483-.592-3.508-.276-.67-.591-1.34-.985-1.931.63-.591 1.221-1.222 1.734-1.931l2.837 7.251c.158.434.592.71 1.025.71a1.4 1.4 0 0 0 .394-.079l2.68-1.064 2.562 6.582c.118.276.315.473.591.59.158.08.276.08.434.08a1.4 1.4 0 0 0 .394-.08l30.426-11.862c.59-.315.867-.985.63-1.537zm-12.375-14.74l-6.03 2.365-2.286-5.518 6.148-2.404 2.168 5.557zM20.69 31.924a9.37 9.37 0 0 1-2.72 3.113c-.236.158-.393.434-.433.749-.04.276.04.591.237.828.551.67.985 1.418 1.26 2.246.316.788.474 1.734.474 2.72 0 .985-.197 1.93-.591 2.876-.355.907-.986 1.735-1.813 2.483-.867.75-2.01 1.38-3.43 1.813-1.457.473-3.23.71-5.32.71-.59 0-1.26-.04-2.05-.118a14.81 14.81 0 0 1-1.3-.198l.276-3.586c1.104.236 2.168.355 3.193.355 1.93 0 3.31-.394 4.295-1.222.986-.828 1.498-1.931 1.498-3.192 0-1.065-.394-2.129-1.143-3.075a16.865 16.865 0 0 0-2.365-2.404c-.906-.748-1.852-1.576-2.877-2.443-.985-.867-1.93-1.774-2.758-2.759-.828-.946-1.498-2.05-2.09-3.192-.512-1.104-.788-2.444-.788-3.902 0-1.458.316-2.759.986-3.941a10.007 10.007 0 0 1 2.68-3.074c.236-.158.394-.434.433-.71.04-.276-.04-.591-.236-.827-.552-.75-1.025-1.498-1.3-2.286-.277-.75-.434-1.656-.434-2.68 0-1.064.197-2.05.551-2.996.355-.906.946-1.694 1.695-2.404.828-.71 1.892-1.3 3.153-1.734 1.3-.433 2.956-.67 4.887-.67.71 0 1.458.04 2.168.079.394.04.749.079 1.143.118l-.237 3.547a13.965 13.965 0 0 0-2.877-.276c-1.773 0-3.034.355-3.902 1.025-.906.749-1.379 1.813-1.379 3.114 0 1.064.394 2.049 1.143 2.995.63.788 1.419 1.616 2.365 2.443.906.828 1.891 1.656 2.956 2.562a23.086 23.086 0 0 1 2.758 2.798c.67.789 1.262 1.695 1.735 2.641l-1.498.591a1.141 1.141 0 0 0-.63 1.419l2.403 6.188c-.039.078-.078.157-.118.276zm5.597 7.685l-5.44-13.952 21.204-8.276 2.286 5.517-18.642 7.291a1.141 1.141 0 0 0-.63 1.42l2.877 7.37-1.655.63zm1.221-7.804l21.204-8.276 5.754 13.794-21.558 8.395-5.4-13.913zm28.022 5.163l-5.754-13.794 6.148-2.404 5.44 13.912-5.834 2.286z"/>
        <path d="M15.095 23.49c-.67-.75-1.498-1.538-2.404-2.365a134.527 134.527 0 0 1-2.76-2.562 1.129 1.129 0 0 0-1.418-.079c-.788.591-1.38 1.261-1.734 2.05a5.347 5.347 0 0 0-.513 2.285c0 .946.198 1.892.592 2.72.354.788.906 1.616 1.576 2.404.67.749 1.458 1.576 2.404 2.443.907.828 1.97 1.774 3.153 2.799.197.197.473.276.71.276.197 0 .433-.08.63-.197.788-.552 1.38-1.222 1.774-2.05a5.347 5.347 0 0 0 .512-2.286c0-1.064-.236-2.05-.749-2.956-.433-.827-1.024-1.655-1.773-2.483zm0 6.857c-.08.197-.237.394-.394.591-.867-.749-1.656-1.497-2.405-2.128-.867-.788-1.615-1.537-2.207-2.246a8.305 8.305 0 0 1-1.26-1.892c-.277-.552-.395-1.143-.395-1.813 0-.473.118-.907.315-1.38.08-.197.237-.394.355-.59.71.67 1.419 1.3 2.089 1.891a23.997 23.997 0 0 1 2.246 2.207c.631.67 1.104 1.38 1.459 2.05.315.59.473 1.26.473 1.93.039.434-.08.907-.276 1.38z"/>
    </g>
</svg>
