<svg xmlns="http://www.w3.org/2000/svg" width="64" height="54" viewBox="0 0 64 54">
    <path fill="#000" fill-rule="nonzero" d="M43.656 23.3c-.8-.156-1.39-.244-1.856-.289V15.7c0-2.056-1.256-3.722-3.544-4.789a7.104 7.104 0 0 0 .822-3.322c0-3.933-3.2-7.145-7.145-7.145-3.933 0-7.144 3.2-7.144 7.145 0 1.244.322 2.422.889 3.444-2.3 1.1-3.545 2.767-3.545 4.79v7.266a90.93 90.93 0 0 0-1.622.178C8.59 25.61.89 31.344.89 37.867c0 8.8 13.667 15.689 31.111 15.689 17.444 0 31.111-6.89 31.111-15.69 0-6.477-7.633-12.2-19.455-14.566zM31.933 2.656a4.932 4.932 0 0 1 4.923 4.922 4.932 4.932 0 0 1-4.923 4.922 4.932 4.932 0 0 1-4.922-4.922 4.932 4.932 0 0 1 4.922-4.922zM24.356 15.81c0-1.578 1.577-2.511 2.744-2.989a7.099 7.099 0 0 0 4.833 1.9 7.137 7.137 0 0 0 4.934-1.989c1.3.511 2.7 1.411 2.7 2.967v8.733c0 .556-.456 1-1 1-.545 0-1-.455-1-1v-6.222c0-.611-.5-1.111-1.111-1.111-.612 0-1.112.5-1.112 1.111v6.222c0 1.1.556 2.067 1.39 2.645-.934 7.855-2.712 12.522-4.8 12.522-2.09 0-3.867-4.656-4.8-12.489a3.232 3.232 0 0 0 1.444-2.689V18.2c0-.611-.5-1.111-1.111-1.111s-1.111.5-1.111 1.111v6.222c0 .556-.456 1-1 1-.556 0-1-.455-1-1V15.812zm7.577 26.011c3.145 0 5.3-3.7 6.556-11.244 5.478 1.133 9.122 3.7 9.122 6.489 0 3.844-6.944 7.089-15.167 7.089-8.222 0-15.166-3.245-15.166-7.09 0-2.61 3.178-5.033 8.144-6.266 1.256 7.4 3.4 11.022 6.511 11.022zM32 51.344c-15.656 0-28.889-6.166-28.889-13.466 0-5.322 7.167-10.322 17.745-12.411.01 0 .666-.078 1.377-.156a3.211 3.211 0 0 0 2.734 2.433c.077.678.177 1.323.266 1.956-5.61 1.378-9.077 4.167-9.077 7.367 0 4.6 7.155 8.2 16.277 8.2 9.123 0 16.278-3.6 16.278-8.2 0-3.39-3.933-6.323-10.055-7.578.088-.6.166-1.211.244-1.845.056-.01.111-.022.167-.033.089-.011.189-.033.277-.055.112-.034.223-.067.323-.1.089-.034.166-.067.255-.1.1-.045.2-.1.3-.167.078-.045.156-.089.222-.145.09-.066.178-.144.267-.21.067-.056.133-.112.189-.178.078-.09.156-.178.222-.267a2.44 2.44 0 0 0 .156-.2c.066-.1.122-.211.178-.322.033-.067.077-.145.11-.211.056-.123.09-.256.123-.39 0-.01 0-.01.011-.022.444.056 1 .145 1.544.245C53.79 27.6 60.89 32.578 60.89 37.867c0 7.3-13.233 13.477-28.889 13.477z"/>
</svg>
