<svg xmlns="http://www.w3.org/2000/svg" width="66" height="64" viewBox="0 0 66 64">
    <g fill="#181715" fill-rule="nonzero">
        <path d="M65.08 5.96L54.56.8c-.28-.12-.6-.16-.92-.04-.28.12-.52.36-.64.68l-2.52 7.2c-.52-.32-1.12-.6-1.76-.76-2.04-.4-3.88.4-4.16 1.88-.28 1.44 1.16 2.96 3.2 3.36 2 .4 3.88-.4 4.16-1.84v-.04l2.76-7.92 8.48 4.16-2.72 7.2c-.52-.36-1.12-.64-1.84-.76-2.04-.4-3.88.4-4.16 1.88-.28 1.44 1.16 2.96 3.2 3.36 1.64.32 3.16-.16 3.84-1.12.04-.04.04-.08.08-.08.04-.08.08-.16.12-.2l3.92-10.4c.24-.56 0-1.16-.52-1.4zM64.52 39.08c-.28-1.44-2.12-2.28-4.16-1.88-.68.12-1.28.4-1.76.72l-2.52-7.24c-.12-.28-.32-.56-.64-.68-.28-.12-.64-.12-.92.04l-5.2 2.56c-.56.28-.76.92-.52 1.48.28.56.92.8 1.48.52l4.08-2 2.76 7.92v.04c.28 1.44 2.12 2.28 4.16 1.88 2.08-.4 3.48-1.92 3.24-3.36zM27.16 63.08c-4.08 0-7.84-1.36-11.16-4.08C2.28 47.8.36 17.24.28 15.96c-.04-.36.12-.72.4-.92.28-.24.64-.28 1-.2 24.64 7 37.48-4.56 37.6-4.68.28-.24.68-.36 1.04-.28.36.08.68.36.76.72.4 1.24 9.76 30.28.84 44.68-2.64 4.28-6.68 6.84-11.92 7.6-.96.16-1.88.2-2.84.2zM2.64 17.36c.56 6.4 3.48 30.72 14.8 39.96 3.56 2.92 7.68 4.04 12.28 3.36 4.56-.68 8.04-2.88 10.36-6.56 7.28-11.72 1.24-35.08-.6-41.28-3.92 2.84-16.2 9.88-36.84 4.52z"/>
        <path d="M28.24 30.72c.2.92 2.2-2.24 5.28-2.84 3.08-.6 6.16 1.56 5.96.64-.2-.92-3.52-4.6-6.64-4-3.08.6-4.8 5.28-4.6 6.2zM20.88 31.56c.32.88-3-.84-6 .24-3 1.04-4.52 4.48-4.84 3.56-.32-.88.72-5.76 3.68-6.8s6.88 2.12 7.16 3zM36.4 44.28c-.2-1.24-4.2 3-9.8 3.84-5.6.84-10.68-2.12-10.48-.84.2 1.24 5.56 6.2 11.16 5.4 5.6-.8 9.32-7.16 9.12-8.4z"/>
    </g>
</svg>
