<svg xmlns="http://www.w3.org/2000/svg" width="64" height="61" viewBox="0 0 64 61">
    <g fill="none" fill-rule="nonzero">
        <path fill="#010202" d="M48.256 30.208l1.408-1.536-8.576-4.352-1.408 1.536 8.576 4.352zM48 33.024l-11.008-5.632a.963.963 0 0 1-.64-.896c-.128-.384 0-.768.384-1.152l3.328-3.456a1.361 1.361 0 0 1 1.536-.256l10.88 5.632c.384.128.64.512.64.896s0 .768-.256 1.152l-3.2 3.456c-.256.256-.64.384-.896.384-.384 0-.64-.128-.768-.128z"/>
        <path fill="#000" d="M61.568 28.928L35.456 56.32c-.512.768-.64 1.408-.512 1.92l26.88-28.032c-.128-.384-.256-.768-.256-1.28zM34.304 60.544l-17.408-11.52a45.54 45.54 0 0 0 4.992 1.152l11.008 7.296c0-.512.256-1.024.384-1.536l-.384-.256-8.32-5.248H25.6c.768 0 1.536 0 2.304-.128l6.656 4.224 15.872-16.64 10.88-11.52-19.84-10.88L26.496 30.72l-2.048-.512.64-.768 15.744-15.744c.256-.256.768-.384 1.024-.128L63.36 25.344l.256.256c.128.128.128.256.128.384v.64c-1.024 2.048-.128 3.2-.128 3.2.256.384.256.896 0 1.28l-28.16 29.44c-.128 0-.128.128-.256.128h-.128c-.128 0-.256.128-.384.128s-.256 0-.256-.128 0-.128-.128-.128z"/>
        <path fill="#010202" d="M12.16 55.04l-.512-5.12-.64 5.12h1.152zm1.024-12.416c.768.512 1.28 1.28 1.28 2.176v.384c0 .256-.128.512-.256.768.256.128.64.256 1.024.384 3.712 1.536 7.04 2.176 10.112 2.176 5.376.128 9.472-1.536 10.752-2.176v-5.76l-10.624 2.688-8.832-2.56-2.048-.64-1.152-.384v1.536l-.256 1.408zm3.456-9.216l-9.856 2.688 4.352 1.28 6.528-1.408 1.024-.256 3.328-.64.64-.128.384 1.792h-.128l-2.432.512-.896.128-3.328.64-1.408.256.896.256 2.048.64 1.408.384 1.28.384 4.608 1.28 17.408-4.48-16.256-4.48-1.408-.384-1.792-.512-.384.128-4.096 1.152-1.92.768zm-6.4 13.312c-.512-.512-.896-1.152-.896-1.92 0-1.024.64-1.92 1.408-2.304v-3.328L.128 36.096l15.744-4.352 2.048-.512 4.992-1.408h.128l1.28.384 2.048.512 23.168 6.4-12.032 3.072v7.296l-.512.256c-.256.128-3.84 2.048-9.344 2.56-.768 0-1.536.128-2.304.128H24.32c-.896 0-1.792-.128-2.688-.256-1.536-.256-3.328-.64-4.992-1.152-1.152-.384-2.432-.896-3.712-1.408l1.024 9.344H8.96l1.28-10.24z"/>
        <path fill="#000" d="M9.984 7.168l-1.024.128-.128-5.504 3.584 3.968-.896.768-.64.512z"/>
        <path fill="#010202" d="M9.6 1.152l6.912 7.68.128.128c.128.128.128.128.128.256l8.448 20.224-.64.768-1.28-.384h-.128l-7.936-18.816-4.736 1.92 7.552 18.176-2.048.512L8.064 12.8v-.128c0-.128-.128-.256-.128-.384L7.68 1.92c0-.512.256-.896.64-1.024.512-.256.896-.128 1.28.256zm.384 6.016l.128 3.712 3.968-1.664-2.56-2.688.768-.768-3.456-3.968.128 5.504 1.024-.128z"/>
    </g>
</svg>
