<svg xmlns="http://www.w3.org/2000/svg" width="56" height="62" viewBox="0 0 56 62">
    <path fill="#000" fill-rule="nonzero" d="M50.678 13.189c-.056-.567-.534-1-1.111-1H38.922C38.4 5.467 33.733.2 28.056.2 22.378.2 17.71 5.478 17.189 12.189H6.544c-.566 0-1.044.433-1.1 1L.667 60.178a1.1 1.1 0 0 0 .277.855c.212.234.512.367.823.367h52.589c.31 0 .61-.133.822-.367a1.1 1.1 0 0 0 .278-.855l-4.778-46.99zM28.067 2.422c4.466 0 8.144 4.278 8.633 9.767H19.433c.49-5.489 4.178-9.767 8.634-9.767zM3 59.178L7.567 14.41h41l4.566 44.767H3z"/>
</svg>
