<svg xmlns="http://www.w3.org/2000/svg" width="64" height="66" viewBox="0 0 64 66">
    <g fill="#181715" fill-rule="nonzero">
        <path d="M58.52 30.2c-.84-.64-1.68-.2-2-.04l-.12.04c-1.32.64-2.68 1.24-4 1.88-.68.32-.92.12-1.04 0-1.28-1-1.96-2.16-2.08-3.56-.08-.96.24-1.32.84-1.56 1.16-.48 2.32-1.04 3.52-1.64l.16-.08c.44-.2 1.48-.64 1.48-1.88 0-1.16-1-1.68-1.44-1.92l-.12-.04c-2.56-1.36-5.72-1.32-8.4.08-2.48 1.28-4.12 3.52-4.48 6.12-.44 3.32-1.96 5.88-4.96 8.32l-1.44 1.2-7.2-7.84 6.16-5.68c.44-.4.48-1.12.08-1.56l-8.08-8.72c-.2-.2-.48-.36-.76-.36s-.6.08-.8.28L4.88 30.72c-.44.4-.48 1.12-.08 1.56L12.88 41c.2.2.48.36.76.36h.04c.28 0 .56-.12.76-.28l6.16-5.68 6.84 7.44-.56.48-1.84 1.52c-1.4 1.16-2.8 1.6-4.44 1.32-5.16-.8-9.16 3.12-10.68 7.04-.16.44-.68 1.72.36 2.64.92.76 1.88.2 2.24 0 .04-.04.12-.08.16-.08.48-.24.96-.44 1.44-.68.72-.36 1.4-.68 2.12-1 .32-.12 1.28-.56 2.28.88 1.08 1.6 1.16 3.48.8 3.8-.16.16-.48.28-.76.44l-.2.08c-.6.28-1.24.56-1.84.84-.56.24-1.08.48-1.6.72-.4.2-1.52.72-1.44 2 .04 1 .84 1.44 1.32 1.72 1.04.6 2.6.92 4.2.92 2.12 0 4.36-.52 5.72-1.44 2.6-1.8 3.24-4.48 3.48-6.6.28-2.36 1.2-4.12 2.96-5.56.8-.68 1.64-1.36 2.44-2.04l.2-.16L45.16 62c.76.84 1.84 1.32 3 1.36h.2c1.08 0 2.12-.4 2.92-1.12l.32-.32c.84-.76 1.32-1.84 1.36-3 .04-1.16-.36-2.24-1.12-3.08L40.72 43.76c.76-.64 1.48-1.28 2.24-1.92 1.8-1.56 3.56-2.12 5.72-1.84 5.44.76 9.4-4 10.48-7.6.2-.92.04-1.68-.64-2.2zm-44.76 8.48L7.2 31.6l17.32-15.96 6.56 7.12-17.32 15.92zm8.48-4.8l3.4-3.12 7.16 7.76c-.32.28-.64.52-1 .8l-2.6 2.12-6.96-7.56zM50.12 57.4c.36.4.56.92.56 1.48-.04.56-.24 1.08-.68 1.44l-.32.32c-.4.36-.92.56-1.48.56-.56-.04-1.08-.24-1.44-.68L35.48 48.28l2.72-2.32c.24-.24.52-.44.76-.68L50.12 57.4zm-1.2-19.52c-2.76-.4-5.24.4-7.48 2.36-1.56 1.36-3.08 2.68-4.68 4l-4.64 3.92c-.8.68-1.6 1.36-2.4 2-2.2 1.8-3.44 4.12-3.76 7.04-.28 2.48-1.04 4-2.52 5-1.64 1.16-5.56 1.4-7.36.56.44-.2.88-.4 1.36-.6.64-.28 1.28-.56 1.88-.84l.16-.08c.44-.2.96-.44 1.4-.84 1.48-1.4.92-4.56-.52-6.64-1.28-1.84-3.16-2.48-5-1.68-.76.32-1.48.68-2.2 1.04-.32.16-.64.32-.96.44 1.32-2.96 4.32-5.72 8.08-5.16 2.28.36 4.28-.24 6.16-1.84l6.76-5.48c1.36-1.12 2.76-2.28 4.16-3.4 3.48-2.84 5.24-5.84 5.76-9.76.24-1.84 1.44-3.48 3.28-4.44 2-1.04 4.4-1.08 6.32-.12l-.04.04c-1.08.52-2.2 1.08-3.32 1.52-1.12.48-2.44 1.52-2.2 3.84.2 2 1.16 3.72 2.92 5.08.68.52 1.8 1 3.4.24 1.12-.52 2.2-1.04 3.32-1.56-1.2 2.68-4.16 5.88-7.88 5.36z"/>
        <path d="M62 16.88c-.16 0-.32-.04-.48-.12L32 2.56 2.48 16.76c-.56.28-1.2.04-1.48-.52s-.04-1.2.52-1.48l30-14.44c.32-.16.64-.16.96 0l30 14.44c.56.28.8.92.52 1.48-.2.4-.6.64-1 .64z"/>
    </g>
</svg>
