<svg xmlns="http://www.w3.org/2000/svg" width="60" height="60" viewBox="0 0 60 60">
    <g fill="#181715" fill-rule="nonzero" transform="translate(.4)">
        <circle cx="21.32" cy="15.08" r="1.6"/>
        <circle cx="37.88" cy="15.08" r="1.6"/>
        <path d="M51.04 15.6v-3.16C51.04 5.72 45.56.2 38.8.2H20.36C13.64.2 8.12 5.68 8.12 12.44v3.16c-4.52.72-8 4.64-8 9.4 0 3.68 2.08 6.96 5.32 8.56v10.48c0 3.36 2.72 6.08 6.08 6.08h3.72c-.6 1.32-1.52 3.8-3.08 8.4-.04.16-.04.36.08.52.12.16.28.24.44.24h1.88c.2 0 .4-.12.48-.28l4.8-8.84h19.12l4.8 8.84c.08.16.28.28.48.28h1.88c.16 0 .36-.08.44-.24.12-.16.12-.32.08-.52-1.56-4.6-2.48-7.04-3.08-8.4h4.08c3.36 0 6.08-2.72 6.08-6.08V33.56c3.28-1.6 5.32-4.88 5.32-8.56.04-4.76-3.44-8.68-8-9.4zM20.36 2.44H38.8c5.52 0 10 4.48 10 10v3.08c-4.88.4-8.76 4.48-8.76 9.48 0 .32-.04 1.16-.08 2.04v.36H19.28l-.12-2.4c0-5-3.88-9.08-8.76-9.48v-3.08c-.04-5.52 4.44-10 9.96-10zM19.4 29.6h20.4c2.44 0 4.44 2 4.44 4.44 0 2.44-2 4.44-4.44 4.44H19.4c-2.44 0-4.44-2-4.44-4.44 0-2.44 2-4.44 4.44-4.44zm-5.16 28.52h-.76c1.12-3.28 2.36-6.64 3-8h2.16l-4.4 8zm31.12 0h-.76l-4.36-8h2.16c.6 1.36 1.84 4.72 2.96 8zm6.88-26.36l-.72.28v12c0 2.12-1.72 3.88-3.88 3.88H11.52c-2.12 0-3.88-1.72-3.88-3.88v-12l-.72-.28c-2.8-1.12-4.64-3.76-4.64-6.8 0-4.04 3.28-7.28 7.28-7.28s7.28 3.28 7.28 7.36L17 27.8c-2.52.96-4.36 3.4-4.36 6.24 0 3.68 3 6.68 6.68 6.68h20.4c3.68 0 6.68-3 6.68-6.68 0-2.84-1.8-5.28-4.32-6.24l.04-.68c.04-.96.08-1.8.08-2.16 0-4.04 3.28-7.28 7.28-7.28 4.04 0 7.28 3.28 7.28 7.28.12 3.04-1.72 5.72-4.52 6.8z"/>
    </g>
</svg>
