<svg width="45" height="45" viewBox="0 0 45 45" fill="none" xmlns="http://www.w3.org/2000/svg">
    <path d="M37.279 18.567a3.269 3.269 0 0 0-1.693-1.86 3.261 3.261 0 0 0-2.513-.118 3.29 3.29 0 0 0-1.978 4.206 3.292 3.292 0 0 0 3.095 2.172c.04 0 .08-.009.12-.01.343 1.67 1.847 9.83-.642 13.587-.656.989-1.517 1.566-2.634 1.762-.286.05-.567.075-.844.075-5.322-.002-9.088-8.881-10.005-11.273 1.596-.603 2.755-1.667 3.445-3.174 1.972-4.297-.475-10.949-1.373-13.106a1.727 1.727 0 1 0-1.89.28c.232.108.476.158.716.16.816 1.969 3.17 8.311 1.412 12.145-.63 1.373-1.706 2.257-3.29 2.705-1.673.47-3.238.28-4.652-.571-3.919-2.36-5.685-9.011-5.98-10.228a1.71 1.71 0 0 0 .454-.583 1.727 1.727 0 1 0-1.642.99c.39 1.6 2.248 8.316 6.521 10.891 1.113.67 2.299 1.006 3.544 1.006.5 0 1.01-.055 1.528-.164.913 2.444 4.942 12.173 11.198 12.172.352 0 .71-.03 1.076-.095 1.453-.255 2.616-1.03 3.459-2.303 2.809-4.242 1.18-12.852.817-14.57a3.255 3.255 0 0 0 1.751-4.096zm-1.25 1.98a2.04 2.04 0 0 1-3.76-.176 2.038 2.038 0 0 1 2.784-2.532c.492.232.865.64 1.05 1.153.185.51.16 1.063-.073 1.556z" fill="#000"/>
</svg>
