<svg width="45" height="45" viewBox="0 0 45 45" fill="none" xmlns="http://www.w3.org/2000/svg">
    <path d="M9.821 31.175a2.248 2.248 0 0 1-2.245-2.245 2.247 2.247 0 0 1 2.245-2.244 2.247 2.247 0 0 1 2.245 2.244 2.248 2.248 0 0 1-2.245 2.245zm0-3.864c-.893 0-1.62.726-1.62 1.62 0 .893.727 1.62 1.62 1.62.893 0 1.62-.727 1.62-1.62 0-.894-.727-1.62-1.62-1.62zM15.914 31.175a2.248 2.248 0 0 1-2.245-2.245 2.247 2.247 0 0 1 2.245-2.244 2.247 2.247 0 0 1 2.245 2.244 2.248 2.248 0 0 1-2.245 2.245zm0-3.864c-.894 0-1.62.726-1.62 1.62 0 .893.726 1.62 1.62 1.62.893 0 1.62-.727 1.62-1.62 0-.894-.727-1.62-1.62-1.62zM22.006 31.175a2.248 2.248 0 0 1-2.245-2.245 2.247 2.247 0 0 1 2.245-2.244 2.247 2.247 0 0 1 2.245 2.244 2.248 2.248 0 0 1-2.245 2.245zm0-3.864c-.893 0-1.62.726-1.62 1.62 0 .893.727 1.62 1.62 1.62.893 0 1.62-.727 1.62-1.62 0-.894-.727-1.62-1.62-1.62zM28.1 31.175a2.248 2.248 0 0 1-2.245-2.245 2.247 2.247 0 0 1 2.244-2.244 2.247 2.247 0 0 1 2.245 2.244 2.247 2.247 0 0 1-2.245 2.245zm0-3.864c-.894 0-1.62.726-1.62 1.62 0 .893.726 1.62 1.62 1.62.893 0 1.619-.727 1.619-1.62 0-.894-.726-1.62-1.62-1.62z" fill="#000"/>
    <path d="M40.71 30.151c-3.798-4.798-2.855-11.76-2.845-11.83a.625.625 0 0 0-1.238-.178c-.018.125-.193 1.405-.114 3.23h-6.786l-.774-3.009a.624.624 0 0 0-.484-.457l-6.136-1.208-2.9-6.497a.625.625 0 0 0-.571-.37H9.493a.625.625 0 0 0-.581.396l-2.461 6.23a.613.613 0 0 0-.044.23v8.152a4.208 4.208 0 0 0-1.628 3.32v1.542a4.221 4.221 0 0 0 4.217 4.217h19.928a4.22 4.22 0 0 0 4.216-4.217v-1.18h5.082c.405.826.9 1.638 1.508 2.406a.623.623 0 0 0 .878.102.626.626 0 0 0 .103-.879zM7.658 16.807l2.261-5.725h8.538l2.867 6.422c.083.185.25.32.45.358l6.067 1.195 1.259 4.896c-.058-.003-.116-.01-.175-.01H8.997c-.469 0-.918.08-1.34.223v-7.359zM31.89 29.701a2.97 2.97 0 0 1-2.966 2.967H8.997a2.97 2.97 0 0 1-2.967-2.967V28.16a2.97 2.97 0 0 1 2.967-2.967h19.927a2.97 2.97 0 0 1 2.966 2.966v1.542zm1.154-2.43a4.229 4.229 0 0 0-2.581-3.032l-.415-1.614h6.556c.145 1.416.456 3.033 1.073 4.647h-4.633z" fill="#000"/>
    <path d="M20.043 17.866h-.022L8.923 17.08a.314.314 0 0 1-.268-.427l1.799-4.486a.313.313 0 0 1 .29-.196l6.95-.014c.124 0 .236.072.286.185l2.348 5.284a.312.312 0 0 1-.285.44zM9.395 16.488l10.15.717-2.053-4.623-6.536.014-1.561 3.892z" fill="#000"/>
</svg>
