<svg width="45" height="45" viewBox="0 0 45 45" fill="none" xmlns="http://www.w3.org/2000/svg">
    <path d="M27.523 40.245H17.477a.626.626 0 0 1-.598-.44l-5.854-18.98a.638.638 0 0 1-.027-.184v-7.546c0-.137.044-.27.127-.378l5.854-7.729a.622.622 0 0 1 .498-.247h10.046c.196 0 .38.091.498.247l5.854 7.729a.624.624 0 0 1 .127.377v7.547c0 .063-.01.125-.028.185l-5.853 18.978a.626.626 0 0 1-.598.441zm-9.585-1.25h9.124l5.69-18.448v-7.242l-5.54-7.314h-9.425l-5.539 7.314v7.242l5.69 18.448z" fill="#000"/>
    <path d="M26.071 18.028h-2.946v-5.873a.625.625 0 1 0-1.25 0v5.873h-2.946a.625.625 0 1 0 0 1.25h2.946v11.997a.624.624 0 1 0 1.25 0V19.278h2.946a.625.625 0 1 0 0-1.25z" fill="#000"/>
</svg>
