<svg width="45" height="45" viewBox="0 0 45 45" fill="none" xmlns="http://www.w3.org/2000/svg">
    <path d="m38.818 23.946-8.547-7.738V8.741a.625.625 0 0 0-.625-.625H25.88a.625.625 0 0 0-.625.625v2.924L22.92 9.552a.625.625 0 0 0-.839 0l-15.9 14.394a.624.624 0 0 0 .42 1.089h1.45l-.014 9.973a.625.625 0 1 0 1.25.002l.015-9.975h26.45v9.974a.624.624 0 1 0 1.25 0v-9.974h1.397a.626.626 0 0 0 .419-1.089zm-2.703-.161a2.85 2.85 0 0 0 .32-.31l.342.31h-.662zm-27.893 0 .326-.294c.1.11.206.207.315.294h-.64zm16.4-7.865c-.125 1.943-1.02 3.506-2.068 3.506-1.05 0-1.948-1.571-2.069-3.52.898-.21 1.644-1.125 2.042-2.422.406 1.322 1.173 2.25 2.094 2.436zm2.391-.976 2.247 2.035c-.325 1.446-1.096 2.447-1.915 2.447-1.043 0-1.934-1.55-2.064-3.48.579-.047 1.247-.255 1.732-1.002zm5.086 4.605c-.012 2.214-1 4.078-2.168 4.078-1.09 0-2.02-1.62-2.151-3.634.877-.237 1.625-1.187 2.005-2.539l2.314 2.095zm-4.982.483c-.14 1.995-1.066 3.595-2.148 3.595-1.084 0-2.01-1.601-2.15-3.598.937-.148 1.72-1.07 2.13-2.397.418 1.344 1.216 2.271 2.168 2.4zM22.157 20c-.132 2.01-1.063 3.628-2.15 3.628-1.082 0-2.005-1.594-2.148-3.584 1.01-.058 1.863-1.006 2.299-2.411.392 1.264 1.122 2.157 1.999 2.367zm-4.395-.573c-.844 0-1.617-1.032-1.931-2.53l2.391-2.164c.437.682 1 1.102 1.607 1.199-.127 1.937-1.021 3.495-2.067 3.495zm-.563.517c-.118 2.037-1.057 3.684-2.155 3.684-1.165 0-2.15-1.851-2.167-4.056l2.422-2.193c.355 1.331 1.058 2.27 1.9 2.565zM9.013 23.07l3.206-2.902c-.172 1.932-1.08 3.46-2.137 3.46-.374 0-.741-.198-1.069-.558zm3.55-1.352c.275.905.716 1.629 1.26 2.067h-2.52c.544-.438.985-1.162 1.26-2.067zm4.962 0c.275.905.716 1.629 1.26 2.067h-2.52c.544-.438.985-1.162 1.26-2.067zm4.962 0c.275.905.717 1.63 1.26 2.068h-2.52c.544-.44.985-1.163 1.26-2.068zm4.963 0c.275.905.716 1.629 1.26 2.067h-2.52c.544-.438.985-1.162 1.26-2.067zm4.962 0c.275.905.716 1.629 1.26 2.067h-2.52c.544-.438.985-1.162 1.26-2.067zm.342-1.575 3.215 2.912c-.33.367-.702.573-1.076.573-1.063 0-1.973-1.541-2.139-3.485zM26.503 9.366h2.517v5.71l-2.517-2.28v-3.43zm.035 5.149c-.407.696-.989.818-1.575.818-1.151 0-2.123-1.848-2.123-4.042l-.003-.127 3.701 3.351zm-4.327-3.395.004.177c0 2.187-.973 4.035-2.123 4.035-.514 0-1.01-.375-1.398-1.028l3.517-3.184z" fill="#000"/>
</svg>
