<svg width="45" height="45" viewBox="0 0 45 45" fill="none" xmlns="http://www.w3.org/2000/svg">
    <path d="M36.174 13.472h-3.957v-6.39c0-1.449-1.18-2.627-2.628-2.627a2.631 2.631 0 0 0-2.63 2.628v6.389h-8.93v-6.39c0-1.449-1.18-2.627-2.628-2.627a2.631 2.631 0 0 0-2.629 2.628v6.389H8.815a.625.625 0 0 0-.625.625v7.911c0 6.757 4.71 12.432 11.02 13.92v3.993a.624.624 0 1 0 1.25 0v-3.756c.665.095 1.344.147 2.034.147.695 0 1.378-.052 2.046-.149v3.757a.624.624 0 1 0 1.25 0v-3.995c6.303-1.493 11.009-7.164 11.009-13.917v-7.911a.624.624 0 0 0-.625-.625zm-7.965-6.39a1.38 1.38 0 0 1 2.757 0v6.39H28.21v-6.39zm-14.187 0a1.38 1.38 0 0 1 2.756 0v6.39h-2.756v-6.39zM35.55 22.009c0 7.198-5.856 13.054-13.055 13.054-7.198 0-13.054-5.856-13.054-13.054v-7.286h26.109v7.286z" fill="#000"/>
    <path d="M19.859 32.214a.623.623 0 0 1-.519-.973l4.89-7.317-4.372.771a.623.623 0 0 1-.627-.964l5.186-7.686a.625.625 0 0 1 1.037.699l-4.362 6.465 4.363-.77a.624.624 0 0 1 .628.962l-5.703 8.534a.625.625 0 0 1-.521.279z" fill="#000"/>
    <path d="M19.77 32.433a.623.623 0 0 1-.624-.644l.156-5.048a.631.631 0 0 1 .644-.606c.345.012.616.3.606.645l-.125 3.995 3.971-2.01a.625.625 0 1 1 .564 1.116l-4.91 2.485a.649.649 0 0 1-.283.067z" fill="#000"/>
</svg>
