<svg width="45" height="45" viewBox="0 0 45 45" fill="none" xmlns="http://www.w3.org/2000/svg">
    <path d="M40.48 16.849c-.508-.375-1.02-.096-1.213.01l-.07.037c-.871.436-1.74.876-2.61 1.316-.442.222-.65.14-.812.019-.878-.664-1.364-1.45-1.482-2.405-.076-.613.092-.938.6-1.162.757-.334 1.499-.717 2.216-1.086l.203-.1c.27-.128.906-.424.877-1.166-.027-.708-.617-.992-.934-1.145l-.075-.037c-1.687-.834-3.727-.763-5.458.19-1.602.882-2.621 2.355-2.799 4.04-.233 2.224-1.216 3.972-3.189 5.668l-.375.324V6.182a.625.625 0 0 0-.625-.625H6.588a.625.625 0 0 0-.625.625V32.06c0 .345.28.625.625.625h2.324c-.025.065-.054.131-.078.197-.107.298-.389 1.089.252 1.609.554.45 1.132.09 1.35-.045.04-.026.08-.051.118-.07.319-.159.635-.322.95-.486a38.11 38.11 0 0 1 1.383-.694c.612-.287 1.175-.09 1.669.589.772 1.059.851 2.38.598 2.637-.117.117-.331.222-.538.325l-.123.06c-.403.202-.81.398-1.216.593-.353.17-.706.34-1.057.512-.278.138-.932.46-.869 1.238.05.602.526.857.781.995l.062.033c.638.352 1.557.52 2.528.52 1.444 0 3.005-.37 3.932-1.047 1.66-1.212 2.012-2.956 2.131-4.34.088-1.017.37-1.876.862-2.626h3.088c.345 0 .625-.279.625-.625v-2.903l1.913-1.705c1.019-.91 2.032-1.824 3.035-2.75 1.182-1.091 2.369-1.506 3.837-1.34 3.543.399 6.043-2.757 6.687-5.125.063-.233.254-.938-.352-1.388zM7.213 31.434V6.807h16.896v15.627l-1.06.918-.566.483V8.945a.313.313 0 0 0-.313-.313H9.152a.313.313 0 0 0-.312.313v20.661c0 .172.14.313.312.313h1.562c-.46.458-.862.971-1.19 1.516H7.213zm4.213-2.141H9.464V16.519h5.62v11.54c-1.402-.031-2.64.46-3.658 1.235zm10.432-14.025h-5.523V9.258h5.523v6.011zm-6.773 0h-5.62V9.258h5.62v6.011zm1.25 1.25h5.523v7.85l-1.98 1.69-1.204 1.053c-.744.648-1.499.977-2.34 1.013V16.519zm6.44 14.916c.447-.386.892-.776 1.335-1.166v1.166h-1.335zm11.508-9.315c-1.838-.21-3.372.321-4.825 1.663a244.33 244.33 0 0 1-3.018 2.735l-2.998 2.674c-.52.459-1.042.916-1.567 1.368-1.407 1.212-2.17 2.73-2.336 4.642-.146 1.687-.632 2.715-1.624 3.439-1.143.834-3.965 1.078-5.118.442l-.06-.033a1 1 0 0 1 .037-.018c.346-.171.695-.338 1.043-.507.413-.198.825-.396 1.236-.6l.114-.058c.287-.141.611-.3.876-.567.889-.9.462-2.963-.477-4.252-.846-1.162-2.045-1.53-3.21-.985-.482.226-.954.472-1.427.717-.298.154-.595.308-.896.457.784-2.122 2.82-4.232 5.49-3.897 1.468.185 2.77-.237 3.972-1.288l4.37-3.755c.893-.777 1.786-1.552 2.684-2.323 2.23-1.92 3.346-3.921 3.616-6.486.134-1.273.92-2.393 2.158-3.074 1.354-.745 3.002-.808 4.302-.165l.085.041.09.044-.018.009c-.055.025-.108.05-.158.077l-.089.045c-.7.361-1.425.735-2.148 1.053-.71.313-1.519.994-1.336 2.46.16 1.29.822 2.382 1.97 3.249.424.322 1.139.599 2.129.098a648.84 648.84 0 0 1 2.415-1.217c-.595 1.864-2.592 4.312-5.282 4.012z" fill="#000"/>
</svg>
