<svg width="35" height="33" viewBox="0 0 35 33" fill="none" xmlns="http://www.w3.org/2000/svg">
    <path d="M2.853 30.12 1.078 17.252a.5.5 0 0 1 .496-.568h13.471a.5.5 0 0 1 .493.585L13.31 30.186a2 2 0 0 1-1.971 1.66H4.834a2 2 0 0 1-1.98-1.727z" stroke="#000" stroke-linecap="round"/>
    <path d="M12.502 18.252c3.66 3.66 4.705 7.843 1.568 8.365" stroke="#000" stroke-linecap="round"/>
    <circle cx="5.706" cy="9.888" r="1.318" stroke="#000" stroke-width=".5"/>
    <circle cx="9.365" cy="13.548" r="1.841" stroke="#000" stroke-width=".5"/>
    <path d="M19.298 25.572 10.707 2.323a.826.826 0 1 1 1.55-.573l8.61 23.3-1.569.522z" stroke="#000" stroke-linecap="round"/>
    <path d="m17.798 26.702 4.937-1.722a1.592 1.592 0 0 1 1.786.532l-7.79 2.718a1.592 1.592 0 0 1 1.067-1.528z" fill="#D9D9D9" stroke="#000"/>
    <path d="M18.776 32.368h10.456c2.266-.174 6.274-1.568 4.183-1.568-2.614 0-4.183-.523-5.229-2.614-.836-1.673-2.788-2.44-3.66-2.614-2.09 0-6.586.627-7.841 3.137s.871 3.485 2.091 3.66z" stroke="#000" stroke-linecap="round"/>
    <path d="M22.435 32.369c-2.265-1.22-6.169-3.974-3.66-5.228M28.956 32.369c-.472 0-11.35-3.137-7.567-6.274" stroke="#000" stroke-width=".5" stroke-linecap="round"/>
    <path d="M32.369 31.323c-3.603-.95-10.5-3.327-9.265-5.228" stroke="#000" stroke-width=".5" stroke-linecap="round"/>
</svg>
