<svg width="45" height="45" viewBox="0 0 45 45" fill="none" xmlns="http://www.w3.org/2000/svg">
    <path d="M8.21 15.817a1.293 1.293 0 1 0 0-2.586 1.293 1.293 0 0 0 0 2.586zM14.314 29.59a.313.313 0 0 1-.313-.313V12.465a.313.313 0 0 1 .626 0v16.811c0 .173-.14.313-.313.313zM20.148 29.59a.313.313 0 0 1-.312-.313V12.465a.313.313 0 0 1 .625 0v16.811c0 .173-.14.313-.313.313zM25.982 29.59a.313.313 0 0 1-.312-.313V12.465a.313.313 0 0 1 .625 0v16.811c0 .173-.14.313-.313.313zM31.817 29.59a.313.313 0 0 1-.313-.313V12.465a.313.313 0 0 1 .625 0v16.811c0 .173-.139.313-.312.313z" fill="#000"/>
    <path d="M38.125 13.357c-.82-.686-2-.765-2.766-.73v-.256a3.54 3.54 0 0 0-6.46-2.005 3.54 3.54 0 0 0-2.916-1.537 3.54 3.54 0 0 0-2.917 1.537 3.54 3.54 0 0 0-2.918-1.537 3.54 3.54 0 0 0-2.917 1.537 3.54 3.54 0 0 0-2.917-1.537 3.544 3.544 0 0 0-3.536 3.41 3.432 3.432 0 0 0-2.567-1.157 3.448 3.448 0 0 0-3.443 3.443 3.448 3.448 0 0 0 3.443 3.444c1.017 0 1.93-.447 2.561-1.15v13.31a3.546 3.546 0 0 0 2.918 3.484v3.184a.624.624 0 1 0 1.25 0v-3.184a3.545 3.545 0 0 0 2.291-1.479 3.54 3.54 0 0 0 2.918 1.538 3.54 3.54 0 0 0 2.917-1.538 3.54 3.54 0 0 0 2.917 1.538 3.54 3.54 0 0 0 2.918-1.538 3.54 3.54 0 0 0 6.46-2.005V13.88c.607-.031 1.474.026 1.965.438.274.23.407.564.407 1.02v21.46a.624.624 0 1 0 1.25 0v-21.46c0-.826-.297-1.51-.858-1.98zM8.211 16.718a2.196 2.196 0 0 1-2.193-2.194c0-1.21.983-2.193 2.193-2.193s2.194.984 2.194 2.193c0 1.21-.985 2.194-2.194 2.194zm6.103 15.702a2.296 2.296 0 0 1-2.293-2.292V12.37a2.296 2.296 0 0 1 2.293-2.292 2.295 2.295 0 0 1 2.292 2.293v17.757a2.294 2.294 0 0 1-2.292 2.292zm5.834 0a2.296 2.296 0 0 1-2.292-2.292V12.37a2.296 2.296 0 0 1 2.292-2.292 2.295 2.295 0 0 1 2.293 2.293v17.757a2.295 2.295 0 0 1-2.293 2.292zm5.835 0a2.295 2.295 0 0 1-2.292-2.292V12.37a2.295 2.295 0 0 1 2.292-2.292 2.296 2.296 0 0 1 2.292 2.293v17.757a2.295 2.295 0 0 1-2.292 2.292zm8.126-2.292a2.296 2.296 0 0 1-2.292 2.292 2.295 2.295 0 0 1-2.292-2.292V12.37a2.295 2.295 0 0 1 2.292-2.292 2.296 2.296 0 0 1 2.292 2.293v17.757z" fill="#000"/>
</svg>
