<svg width="45" height="45" viewBox="0 0 45 45" fill="none" xmlns="http://www.w3.org/2000/svg">
    <path d="M27.14 21.724a1.872 1.872 0 0 1-1.822-2.298c.115-.486.41-.898.835-1.16a1.86 1.86 0 0 1 1.412-.231c.486.114.899.411 1.161.835.263.425.345.926.23 1.412-.115.486-.41.898-.835 1.16-.3.186-.637.282-.98.282zm-.006-3.114a1.24 1.24 0 0 0-.652.187c-.282.175-.48.449-.556.772a1.247 1.247 0 0 0 .925 1.496 1.246 1.246 0 0 0 1.497-.925 1.239 1.239 0 0 0-.153-.94 1.237 1.237 0 0 0-1.06-.59z" fill="#000"/>
    <path d="M32.682 23.733a7.339 7.339 0 0 0-3.249-7.593 7.33 7.33 0 0 0-5.563-1.007c-3.98.864-6.516 4.805-5.653 8.787a7.4 7.4 0 0 0 .527 1.553l-8.852 9.34a.624.624 0 0 0-.168.365l-.442 4.168a.626.626 0 0 0 .758.677l3.914-.88a.626.626 0 0 0 .488-.603l.014-1.43 1.38-.057a.625.625 0 0 0 .598-.565l.131-1.41 1.614-.386a.624.624 0 0 0 .47-.503l.303-1.763 1.71-.368a.625.625 0 0 0 .492-.556l.117-1.34 1.826-.62a.635.635 0 0 0 .21-.122c.25.076.502.134.755.183a8.02 8.02 0 0 0-.285 2.091c0 4.422 3.58 8.02 7.98 8.02 4.398 0 7.977-3.598 7.977-8.02.001-4.107-3.088-7.499-7.052-7.961zm-9.336 4.383a.626.626 0 0 0-.666.156l-.13.137-2.065.701c-.235.08-.4.29-.421.537l-.114 1.286-1.673.36a.625.625 0 0 0-.485.506l-.304 1.773-1.648.394a.625.625 0 0 0-.477.55l-.123 1.312-1.428.057a.625.625 0 0 0-.6.618l-.014 1.529-2.58.58.327-3.092 9.008-9.508a.623.623 0 0 0 .095-.729 6.175 6.175 0 0 1-.61-1.63 6.145 6.145 0 0 1 4.696-7.3 6.103 6.103 0 0 1 4.623.837 6.092 6.092 0 0 1 2.676 3.86c.192.884.18 1.771-.018 2.642-3.083.133-5.716 2.026-6.925 4.71a6.243 6.243 0 0 1-1.144-.286zm8.412 10.348c-3.71 0-6.729-3.037-6.729-6.77 0-3.733 3.018-6.77 6.729-6.77 3.71 0 6.728 3.037 6.728 6.77 0 3.733-3.019 6.77-6.728 6.77z" fill="#000"/>
    <path d="m33.442 33.736-.163.074c-.178.08-.375.145-.584.192-.741.168-1.32.044-1.652-.27-.211-.2-.362-.503-.45-.899h1.865v-.905h-1.975l-.001-.042v-.217c0-.083.001-.161.005-.236l.003-.072h1.968v-.906H30.63c.038-.137.082-.269.134-.391.07-.17.166-.32.28-.444.114-.122.25-.22.406-.29.313-.14.786-.126 1.188-.034.206.047.388.105.541.173l.162.071.31-1.016-.133-.054a3.994 3.994 0 0 0-.655-.196c-.685-.149-1.338-.091-1.828.096a2.423 2.423 0 0 0-.814.501c-.225.214-.412.47-.554.762a3.54 3.54 0 0 0-.278.822h-.942v.905h.817a6.768 6.768 0 0 0-.01.407v.16h-.807v.906h.886c.121.763.393 1.337.808 1.705.441.39 1.045.588 1.794.588a4.5 4.5 0 0 0 .84-.085 4 4 0 0 0 .835-.254l.127-.055-.296-.996zM36.666 15.483 21.454 5.073a.624.624 0 0 0-.706 0L5.536 15.482a.625.625 0 0 0 .706 1.031l2.604-1.782v15.954a.624.624 0 1 0 1.25 0v-16.81l11.005-7.53L35.96 16.514a.622.622 0 0 0 .868-.163.625.625 0 0 0-.162-.87z" fill="#000"/>
</svg>
