<svg width="45" height="45" viewBox="0 0 45 45" fill="none" xmlns="http://www.w3.org/2000/svg">
    <circle cx="23.52" cy="16.784" r="2.635" stroke="#000" stroke-width="1.2"/>
    <path d="M28.311 27.568c0 3.21-.592 6.088-1.525 8.14-.958 2.107-2.158 3.123-3.267 3.123s-2.309-1.016-3.266-3.123c-.933-2.052-1.526-4.93-1.526-8.14 0-3.21.593-6.087 1.526-8.14.957-2.106 2.157-3.122 3.266-3.122 1.11 0 2.31 1.016 3.267 3.122.933 2.053 1.525 4.93 1.525 8.14z" fill="#FFDC00" stroke="#000" stroke-width="1.2"/>
    <path d="M23.52 22.715v15.638M19.206 22.176c.575.36 2.3 1.079 4.601 1.079s3.643-.72 4.027-1.079" stroke="#000" stroke-width="1.2"/>
    <path d="M35.475 8.75a.6.6 0 1 0-.186-1.186l.186 1.185zm-9.241 6.099c.036-.09.138-.26.344-.507.198-.237.463-.515.786-.82a23.467 23.467 0 0 1 2.442-1.978c1.916-1.362 4.103-2.548 5.67-2.795l-.187-1.185c-1.86.293-4.24 1.623-6.178 3.002a24.63 24.63 0 0 0-2.571 2.083c-.346.327-.647.64-.885.926-.229.276-.43.562-.536.83l1.115.444zM11.564 8.75a.6.6 0 0 1 .186-1.186l-.186 1.185zm9.241 6.099c-.036-.09-.138-.26-.344-.507a9.721 9.721 0 0 0-.786-.82 23.454 23.454 0 0 0-2.442-1.978c-1.916-1.362-4.103-2.548-5.67-2.795l.187-1.185c1.86.293 4.24 1.623 6.178 3.002.982.699 1.879 1.43 2.571 2.083.346.327.647.64.885.926.229.276.43.562.536.83l-1.115.444zM31.608 18.463a.6.6 0 1 0 0-1.2v1.2zm-4.429 1.98 1.864-1.863-.848-.849-1.864 1.864.848.849zm2.147-1.98h2.282v-1.2h-2.282v1.2zm-.283.117a.4.4 0 0 1 .283-.117v-1.2a1.6 1.6 0 0 0-1.131.468l.848.849zM37.223 24.89a.6.6 0 1 0-.446-1.114l.446 1.115zm-3.357.23.333-.499-.333.5zm.926.097-.222-.557.222.557zm-6.626-1.463 1.063-.708-.665-.999-1.063.709.665.998zm1.507-.708 3.86 2.573.666-.998-3.86-2.574-.666.999zm5.342 2.728 2.208-.883-.446-1.114-2.207.883.445 1.114zm-1.481-.155a1.6 1.6 0 0 0 1.481.155l-.445-1.114a.4.4 0 0 1-.37-.039l-.666.998zm-4.305-2.573a.4.4 0 0 1 .444 0l.666-.999a1.6 1.6 0 0 0-1.775 0l.665.999zM33.221 35.911a.6.6 0 1 0 1.088-.507l-1.087.507zm-4.515-6.764.649-.433-.666-.998-.649.432.666.999zm1.233-.269 3.282 7.033 1.088-.507-3.282-7.034-1.088.508zm-.584-.164a.4.4 0 0 1 .584.164l1.088-.508a1.6 1.6 0 0 0-2.338-.654l.666.998zM14.892 18.463a.6.6 0 1 1 0-1.2v1.2zm4.428 1.98-1.864-1.863.849-.849 1.864 1.864-.849.849zm-2.146-1.98h-2.282v-1.2h2.282v1.2zm.282.117a.4.4 0 0 0-.282-.117v-1.2a1.6 1.6 0 0 1 1.13.468l-.848.849zM9.277 24.89a.6.6 0 1 1 .446-1.114l-.446 1.115zm3.356.23-.332-.499.332.5zm-.926.097.223-.557-.223.557zm4.859-2.718.333.499-.333-.5zm2.371 1.293-1.638-.82.537-1.072 1.638.819-.537 1.073zm-2.038-.794-3.933 2.621-.665-.998 3.932-2.622.666.999zm-5.415 2.776-2.207-.883.446-1.114 2.207.883-.445 1.114zm1.482-.155a1.6 1.6 0 0 1-1.481.155l.445-1.114a.4.4 0 0 0 .37-.039l.666.998zm4.333-2.646a.4.4 0 0 0-.4.025l-.666-.999a1.6 1.6 0 0 1 1.603-.1l-.537 1.074zM13.278 35.911a.6.6 0 0 1-1.087-.507l1.087.507zm2.797-7.41.543.253-.543-.254zm2.323.683-1.238-.619.536-1.073 1.238.62-.536 1.072zm-1.78-.43-3.34 7.157-1.087-.507 3.34-7.157 1.087.507zm.542-.189a.4.4 0 0 0-.542.19l-1.087-.508a1.6 1.6 0 0 1 2.165-.755l-.536 1.073z" fill="#000"/>
</svg>
