<svg width="45" height="45" viewBox="0 0 45 45" fill="none" xmlns="http://www.w3.org/2000/svg">
    <path d="M22.597 37.74V26.13M25.67 26l4.522 11.74M19.521 26.26 15 38" stroke="#000" stroke-width="1.2" stroke-linecap="round"/>
    <rect x="9.714" y="11" width="25.714" height="15" rx="1" fill="#FFDC00" stroke="#000" stroke-width="1.2"/>
    <path d="M18 32h9" stroke="#000" stroke-width="1.2" stroke-linecap="square"/>
    <path d="m19.744 21-1.362-4.05h-1.014L16.012 21h.786l.282-.864h1.524l.276.864h.864zm-1.314-1.482h-1.17l.42-1.272c.06-.198.114-.408.156-.6h.012c.042.192.096.396.162.606l.42 1.266zM21.483 21c.51 0 .918.012 1.194.012 1.163 0 1.643-.642 1.643-1.254 0-.462-.282-.798-.726-.912v-.006a.926.926 0 0 0 .588-.882c0-.666-.485-1.032-1.457-1.032-.607 0-1.242.03-1.242.03V21zm.78-3.444c.125-.006.27-.012.407-.012.51 0 .69.222.69.528 0 .348-.24.564-.75.564-.15 0-.252 0-.348-.006v-1.074zm0 1.668c.083-.006.293-.006.365-.006.607 0 .852.216.852.576 0 .348-.245.594-.78.594a4.65 4.65 0 0 1-.438-.018v-1.146zm6.628.924c-.221.096-.54.186-.803.186-.78 0-1.152-.486-1.152-1.35 0-.78.36-1.38 1.11-1.38.276 0 .552.06.81.168l.125-.726a2.907 2.907 0 0 0-.894-.144c-1.302 0-2.003.882-2.003 2.184 0 1.026.462 1.962 1.866 1.962.384 0 .762-.09 1.062-.21l-.12-.69z" fill="#000"/>
    <path d="M9 26h27M22.5 11V9" stroke="#000" stroke-width="1.2" stroke-linecap="round"/>
</svg>
