<svg width="45" height="45" viewBox="0 0 45 45" fill="none" xmlns="http://www.w3.org/2000/svg">
    <path d="M35.25 18.782a.312.312 0 0 0-.3-.223h-.979a3.702 3.702 0 0 0-2.782-3.27c.052-2.755.105-9.436-.568-10.138a.424.424 0 0 0-.3-.138h-.016c-.61 0-.88.716-1.116 1.348-.09.237-.324.862-.448.862h-.002c-.136-.007-.402-.613-.515-.872-.297-.677-.66-1.52-1.404-1.328-.577.152-.995.807-1.365 1.384-.18.283-.515.808-.64.818-.132-.045-.399-.524-.558-.81-.392-.704-.886-1.58-1.635-1.392-.617.153-.788.792-.924 1.304-.163.611-.27.88-.593.896-.33.02-.59-.319-.977-.872-.417-.596-.937-1.338-1.825-1.338-1.03 0-1.376.964-1.605 1.602-.076.21-.203.563-.275.608-.145-.008-.417-.593-.548-.874-.302-.651-.614-1.325-1.217-1.337a.481.481 0 0 0-.308.13c-.67.67-.636 6.958-.575 10.149a3.702 3.702 0 0 0-2.789 3.58 3.703 3.703 0 0 0 3.698 3.698H30.29a3.702 3.702 0 0 0 3.682-3.386h.739c.163.667.56 2.667-.243 3.744-.353.475-.896.706-1.657.706H22.476a.313.313 0 0 0-.312.312v3.218a3.166 3.166 0 0 1-1.078-.365.624.624 0 0 0-.956.531v10.082c0 1.156.938 2.904 2.352 2.904s2.351-1.748 2.351-2.904V27.33a.626.626 0 0 0-.953-.533 3.138 3.138 0 0 1-1.092.37V24.26H32.81c.96 0 1.686-.323 2.16-.958 1.152-1.549.317-4.4.28-4.52zM14.745 5.678c.192.14.41.608.561.935.287.62.56 1.205 1.08 1.234.538.028.712-.504.898-1.02.25-.696.47-1.189 1.017-1.189.563 0 .927.521 1.313 1.072.404.576.795 1.17 1.52 1.138.815-.04 1.018-.803 1.166-1.36.133-.494.23-.798.472-.859.29-.076.666.6.939 1.09.337.606.629 1.13 1.088 1.13h.007c.474-.006.799-.516 1.176-1.105.292-.457.656-1.027.997-1.116.226-.062.482.54.672.974.274.626.534 1.218 1.054 1.246.59.022.83-.629 1.069-1.267.11-.296.285-.758.443-.9.318.84.425 5.272.349 9.506-.091-.007-.183-.014-.276-.014h-2.899v-5.69a.313.313 0 0 0-.625 0v5.69h-1.269v-2.302a.313.313 0 0 0-.625 0v2.302H22.08v-4.95a.313.313 0 0 0-.625 0v4.95H18.2v-2.302a.313.313 0 0 0-.625 0v2.302h-1.362V9.945a.313.313 0 0 0-.625 0v5.228h-.902c-.097 0-.191.007-.286.015-.077-4.237.029-8.672.346-9.51zM30.29 21.32H14.685a2.45 2.45 0 0 1-2.449-2.448 2.45 2.45 0 0 1 2.448-2.448H30.29a2.45 2.45 0 0 1 2.448 2.448 2.45 2.45 0 0 1-2.448 2.448zm-6.707 16.092c0 .727-.617 1.654-1.101 1.654s-1.102-.927-1.102-1.654v-9.14c.636.188 1.566.19 2.203 0v9.14z" fill="#000"/>
</svg>
