<svg width="45" height="45" viewBox="0 0 45 45" fill="none" xmlns="http://www.w3.org/2000/svg">
    <path d="M37.435 26.855a4.09 4.09 0 0 0 1.177-2.872 4.11 4.11 0 0 0-4.105-4.105 4.11 4.11 0 0 0-4.018 4.941c-.084-.008-.165-.025-.25-.025h-6.836a34.722 34.722 0 0 1-.762-3.868l5.41-4.196a.625.625 0 1 0-.767-.988l-5.895 4.574c-.22.185-.497.275-.782.25A1.075 1.075 0 0 1 20 18.68l3.736-3.168a.624.624 0 0 0 .073-.881.794.794 0 0 0-.354-.234.727.727 0 0 0-.519.068L17.8 17.348a2.696 2.696 0 0 0-1.352-.056l-.302.061a1.064 1.064 0 0 1-.194-.252 1.072 1.072 0 0 1 .454-1.45l6.399-3.419c.416.127.857.197 1.315.197.083 0 .337-.018.385-.025 3.745-.534 5.881 5.593 5.903 5.655a.626.626 0 0 0 1.182-.407c-.082-.235-1.67-4.752-4.782-6.12a4.5 4.5 0 0 0 1.821-3.613 4.515 4.515 0 0 0-4.51-4.51 4.515 4.515 0 0 0-4.51 4.51 4.5 4.5 0 0 0 1.835 3.622l-5.624 3.005a2.31 2.31 0 0 0-1 3.073l-4.321.868a2.61 2.61 0 0 0-2.043 3.07 2.592 2.592 0 0 0 1.112 1.656c.58.386 1.275.523 1.958.386l3.237-.65c.145.663.301 1.42.368 1.845H6.31A2.61 2.61 0 0 0 3.704 27.4c0 .88.44 1.656 1.11 2.128a2.539 2.539 0 0 0-1.11 2.107c0 1.393 1.103 2.525 2.46 2.525h2.222v5.555a.624.624 0 1 0 1.25 0V34.16H35.99v5.553a.624.624 0 1 0 1.25 0V34.16h1.597c1.357 0 2.46-1.133 2.46-2.525v-1.899c0-1.556-1.676-2.785-3.862-2.882zM20.859 7.919a3.264 3.264 0 0 1 3.26-3.26 3.264 3.264 0 0 1 3.26 3.26 3.264 3.264 0 0 1-3.26 3.26 3.264 3.264 0 0 1-3.26-3.26zm12.958 20.107c-.333.318-.584.683-.706 1.086h-.909c.334-.39.552-.87.617-1.391.313.142.648.245.998.305zm.69-6.898a2.858 2.858 0 0 1 2.855 2.855 2.858 2.858 0 0 1-2.855 2.855 2.858 2.858 0 0 1-2.855-2.855 2.858 2.858 0 0 1 2.855-2.855zm-14.001.684a2.33 2.33 0 0 0 .982-.129c.201 1.299.451 2.409.626 3.111h-1.677c-.099-.478-.372-1.84-.636-3.164.222.093.456.161.705.182zm-9.227.561c-.73.146-1.45-.33-1.597-1.063a1.359 1.359 0 0 1 1.063-1.598l5.949-1.195c.374-.075.699-.037.94.11.236.146.392.398.459.737l.188 1.033c.153.777.926 4.662.978 4.869.113.45.508.778.939.778h10.04c.748 0 1.357.608 1.357 1.357 0 .636-.444 1.2-1.08 1.369l.001.006c-.013.003-.025 0-.039.003l-10.943 2.973c-.28.065-.567.016-.81-.136a1.065 1.065 0 0 1-.476-.669 1.076 1.076 0 0 1 .82-1.289l6.751-1.74a.626.626 0 0 0-.311-1.21l-6.736 1.736c-.263.06-.506.172-.727.313h-.54l-.054-.018c-.312-.148-.846-1.288-1.044-3.83l-.006-.08c-.06-.56-.501-2.528-.551-2.75a.627.627 0 0 0-.733-.477l-3.838.771zm-4.969 3.67h8.957c.148 1.16.38 2.061.694 2.714H6.31a1.358 1.358 0 0 1 0-2.714zm-1.356 5.594c0-.703.542-1.275 1.21-1.275H17a2.318 2.318 0 0 0 1.062 2.315c.162.1.333.176.51.234H6.163c-.667 0-1.21-.572-1.21-1.274zm35.092 0c0 .702-.542 1.274-1.21 1.274h-18.8l9.383-2.549h4.223c.346 0 .625-.279.625-.625 0-.874 1.35-1.641 2.89-1.641s2.89.767 2.89 1.641v1.9z" fill="#000"/>
</svg>
