<svg width="45" height="45" viewBox="0 0 45 45" fill="none" xmlns="http://www.w3.org/2000/svg">
    <path d="M41.336 22.435h-.027l-4.904-7.69h.29c1.067 0 1.936-.885 1.936-1.97 0-1.087-.869-1.97-1.936-1.97H25.267V7.073c0-1.223-1.79-1.97-2.767-1.97-.975 0-2.766.748-2.766 1.97v3.73H8.305c-1.067 0-1.936.884-1.936 1.97 0 1.086.869 1.97 1.936 1.97h.082l-4.707 7.69h-.016a.625.625 0 0 0-.625.626c0 3.505 2.786 6.357 6.21 6.357 3.426 0 6.212-2.852 6.212-6.357a.625.625 0 0 0-.625-.625h-.027l-4.904-7.69h9.828v21.21h-4.93c-1.067 0-1.936.884-1.936 1.97 0 1.087.87 1.97 1.937 1.97h15.39c1.068 0 1.937-.883 1.937-1.97 0-1.086-.869-1.97-1.936-1.97h-4.929v-21.21h9.619l-4.708 7.69h-.015a.625.625 0 0 0-.625.625c0 3.505 2.786 6.357 6.21 6.357 3.426 0 6.212-2.852 6.212-6.357a.622.622 0 0 0-.623-.625zM9.25 28.167c-2.53 0-4.623-1.96-4.924-4.482h9.849c-.3 2.523-2.394 4.482-4.925 4.482zm4.818-5.732H4.413l4.707-7.69h.044l4.904 7.69zm10.574-8.94a.625.625 0 0 0-.625.625v22.46a.623.623 0 0 0 .625.626h5.554c.378 0 .686.323.686.72 0 .397-.307.72-.686.72H14.805c-.378 0-.686-.323-.686-.72 0-.397.307-.72.686-.72h5.554c.346 0 .625-.28.625-.625V14.12a.625.625 0 0 0-.625-.625H8.305c-.378 0-.686-.323-.686-.72 0-.398.308-.72.686-.72H20.36c.345 0 .625-.28.625-.626l-.001-4.35c.047-.227.93-.725 1.517-.725.588 0 1.471.498 1.517.72v4.355c0 .345.28.625.625.625h12.053c.378 0 .686.323.686.72 0 .398-.307.72-.686.72H24.642zm10.977 1.25h.045l4.903 7.69h-9.655l4.707-7.69zm.13 13.422c-2.53 0-4.624-1.96-4.924-4.482h9.849c-.3 2.523-2.394 4.482-4.925 4.482z" fill="#000"/>
</svg>
