<svg width="45" height="45" viewBox="0 0 45 45" fill="none" xmlns="http://www.w3.org/2000/svg">
    <path d="M39.81 18.78h-6.368c-.02-.264-.033-.53-.071-.791.72-.125 1.445-.01 1.453-.01a.312.312 0 0 0 .26-.54l-2.47-2.239a.374.374 0 0 0-.044-.034 11.224 11.224 0 0 0-.645-1.255c.618-.393 1.334-.565 1.341-.567a.313.313 0 0 0 .035-.599l-3.14-1.123a.187.187 0 0 0-.047-.01 11.14 11.14 0 0 0-1.08-.92 5.022 5.022 0 0 1 1.02-1.035.313.313 0 0 0 .113-.357c-.046-.13-.175-.224-.31-.209l-3.33.163a.187.187 0 0 0-.049.01c-.434-.17-.887-.316-1.351-.433a5.04 5.04 0 0 1 .548-1.35.311.311 0 0 0-.4-.447l-3.013 1.425a.451.451 0 0 0-.048.027c-.47.008-.94.046-1.408.113-.125-.72-.012-1.445-.01-1.453a.312.312 0 0 0-.54-.26l-2.239 2.47a.331.331 0 0 0-.034.044c-.429.186-.849.403-1.256.645-.393-.618-.565-1.334-.567-1.342a.312.312 0 0 0-.286-.24.297.297 0 0 0-.312.207l-1.124 3.139a.178.178 0 0 0-.01.049c-.326.336-.634.698-.92 1.08-.598-.42-1.03-1.015-1.034-1.021a.313.313 0 0 0-.566.197l.163 3.33c0 .018.004.035.009.052-.17.434-.316.886-.433 1.348a5 5 0 0 1-1.349-.548.312.312 0 0 0-.448.4l.986 2.083H5.19a.625.625 0 0 0-.625.625v4.663c0 .346.28.625.625.625h3.216v12.9c0 .345.28.624.625.624h3.685c.346 0 .625-.28.625-.625V24.693H31.66v12.899c0 .346.28.625.625.625h3.685c.345 0 .625-.28.625-.625v-12.9h3.216c.346 0 .625-.279.625-.624v-4.663a.625.625 0 0 0-.625-.625zm-29.016-1.548c.306.12.67.234 1.048.281a.31.31 0 0 0 .344-.241c.135-.598.319-1.178.546-1.725.037-.089.007-.187-.045-.27l-.112-2.304c.236.228.529.47.857.659a.31.31 0 0 0 .41-.09c.353-.5.746-.965 1.168-1.384.068-.068.077-.171.062-.267l.778-2.173c.131.301.31.639.542.94a.314.314 0 0 0 .414.072 10.466 10.466 0 0 1 1.606-.833.313.313 0 0 0 .193-.26l1.516-1.673c.006.327.04.707.14 1.072a.31.31 0 0 0 .355.227c.586-.102 1.18-.153 1.77-.153h.035a.312.312 0 0 0 .277-.166l2.041-.965c-.12.306-.233.671-.28 1.049-.02.16.083.308.24.344.598.134 1.18.318 1.726.546.089.036.187.006.27-.045L29 9.759c-.228.237-.47.53-.66.859-.08.14-.04.317.091.41.5.353.965.746 1.384 1.168.066.067.17.076.267.062l2.173.777c-.301.131-.639.31-.94.542a.312.312 0 0 0-.073.414c.327.518.608 1.058.834 1.607a.31.31 0 0 0 .26.192l1.673 1.516a4.437 4.437 0 0 0-1.073.14.313.313 0 0 0-.226.355c.056.323.09.65.116.98h-6.764a3.749 3.749 0 0 0-2.933-2.886 3.73 3.73 0 0 0-2.82.558 3.728 3.728 0 0 0-1.58 2.327h-7.203l-.732-1.548zm13.68 1.548a2.217 2.217 0 0 0-1.643-1.393 2.237 2.237 0 0 0-2.519 1.393h-.933a3.103 3.103 0 0 1 3.627-2.272 3.12 3.12 0 0 1 2.408 2.271h-.94v.001zm-.687 0h-2.783a1.61 1.61 0 0 1 1.705-.78c.47.094.853.386 1.078.78zM12.091 36.967H9.656V24.693h2.435v12.274zm23.252 0h-2.435V24.693h2.435v12.274zm3.842-13.524H5.815V20.03h33.37v3.413z" fill="#000"/>
</svg>
