<svg width="45" height="45" viewBox="0 0 45 45" fill="none" xmlns="http://www.w3.org/2000/svg">
    <path d="M11.986 17.58a.625.625 0 0 1-.62-.557c-.496-4.455 3.216-6.445 5.247-6.876a.624.624 0 1 1 .26 1.223c-.207.044-4.757 1.087-4.265 5.515a.625.625 0 0 1-.622.694z" fill="#000"/>
    <path d="M28.446 7.101c-1.46 0-2.686.68-3.767 1.28-.795.44-1.548.858-2.193.872-.663.006-1.41-.416-2.218-.871-1.067-.6-2.275-1.28-3.713-1.28-3.775 0-8.386 3.868-8.386 8.385 0 2.622.811 3.67 1.526 4.596.266.344.517.669.696 1.02.588 1.441.887 3.948 1.175 6.372.357 3 .695 5.832 1.58 7.246 1.234 1.973 3.045 3.268 4.395 3.173.614-.048 1.103-.392 1.34-.945.294-.687.47-2.302.672-4.172.201-1.863.453-4.182.807-4.86.082-.157.16-.327.24-.502.437-.96.76-1.551 1.816-1.551h.018c1.081.006 1.406.597 1.847 1.56.078.172.155.338.236.493.354.678.606 2.997.807 4.86.203 1.87.378 3.485.672 4.172.237.553.725.897 1.34.945.05.003.102.006.154.006 1.334 0 3.053-1.28 4.241-3.179 1.03-1.644 1.63-6.088 2.114-9.66.236-1.744.46-3.392.632-3.82.156-.391.441-.872.742-1.38.718-1.212 1.612-2.72 1.612-4.374 0-4.625-3.762-8.386-8.385-8.386zm5.698 12.121c-.326.552-.635 1.072-.827 1.552-.22.546-.404 1.854-.71 4.119-.443 3.27-1.05 7.749-1.935 9.164-1.17 1.868-2.588 2.653-3.24 2.59-.176-.013-.24-.083-.287-.19-.22-.515-.41-2.268-.578-3.815-.29-2.668-.511-4.48-.942-5.303-.07-.137-.138-.284-.207-.436-.415-.907-1.043-2.278-2.975-2.29h-.027c-1.915 0-2.54 1.373-2.955 2.283-.07.154-.138.305-.21.442-.43.825-.653 2.636-.942 5.304-.168 1.547-.358 3.3-.578 3.814-.047.108-.11.177-.287.19-.648.066-2.07-.72-3.24-2.589-.737-1.177-1.073-4-1.398-6.73-.298-2.508-.607-5.1-1.28-6.742-.253-.504-.553-.892-.844-1.268-.65-.84-1.264-1.635-1.264-3.83 0-3.777 3.99-7.137 7.135-7.137 1.11 0 2.122.57 3.1 1.12.369.209 1.575.932 1.843 1.087 2.225 1.282 5.648 1.67 5.67 1.67a.625.625 0 0 0 .068-1.245c-.026-.003-1.739-.2-3.43-.77.49-.193.978-.46 1.48-.739.995-.552 2.024-1.123 3.16-1.123 3.935 0 7.136 3.202 7.136 7.136.001 1.313-.762 2.6-1.436 3.736z" fill="#000"/>
</svg>
