<?xml version="1.0" encoding="UTF-8"?>
<svg width="41px" height="30px" viewBox="0 0 41 30" version="1.1" xmlns="http://www.w3.org/2000/svg" xmlns:xlink="http://www.w3.org/1999/xlink">
    <title>ic_pa/applePay</title>
    <defs>
        <polygon id="path-1" points="0 0.3251 40.105 0.3251 40.105 26 0 26"></polygon>
    </defs>
    <g id="ic_pa/applePay" stroke="none" stroke-width="1" fill="none" fill-rule="evenodd">
        <g>
            <g id="Group-3" transform="translate(0.000000, 1.675100)">
                <mask id="mask-2" fill="white">
                    <use xlink:href="#path-1"></use>
                </mask>
                <g id="Clip-2"></g>
            </g>
            <path d="M36.3453666,2.8556 L36.7452208,2.8566 C36.8550817,2.8566 36.9629631,2.8586 37.0718343,2.8616 C37.261864,2.8666 37.4835653,2.8766 37.6914103,2.9146 C37.8715426,2.9476 38.0219828,2.9976 38.1674742,3.0716 C38.3099965,3.1456 38.4416317,3.2416 38.5554515,3.3566 C38.6712509,3.4736 38.765276,3.6056 38.8404961,3.7516 C38.9137367,3.8976 38.9622338,4.0486 38.9948952,4.2316 C39.0315155,4.4386 39.0414129,4.6646 39.0463616,4.8566 C39.0493308,4.9666 39.0503205,5.0756 39.0513103,5.1866 C39.0523,5.3216 39.0523,5.4566 39.0523,5.5916 L39.0523,24.0836 C39.0523,24.2186 39.0523,24.3536 39.0513103,24.4916 C39.0503205,24.5996 39.0493308,24.7096 39.0463616,24.8186 C39.0414129,25.0106 39.0315155,25.2366 38.9939055,25.4456 C38.9622338,25.6266 38.9137367,25.7786 38.8395063,25.9236 C38.765276,26.0696 38.6712509,26.2026 38.5554515,26.3176 C38.4406419,26.4336 38.3099965,26.5306 38.1654948,26.6036 C38.0219828,26.6776 37.8715426,26.7276 37.6924,26.7606 C37.4815858,26.7986 37.2499871,26.8086 37.0757933,26.8136 C36.9659323,26.8166 36.8570612,26.8176 36.7452208,26.8186 C36.6125959,26.8196 36.4779915,26.8196 36.3453666,26.8196 L3.76022311,26.8196 L3.75527442,26.8196 C3.62363927,26.8196 3.49200412,26.8196 3.35739976,26.8186 C3.24852858,26.8176 3.13866766,26.8166 3.0327657,26.8136 C2.85461286,26.8086 2.62301417,26.7986 2.41417946,26.7606 C2.23404715,26.7276 2.08360698,26.6776 1.93712575,26.6026 C1.79361375,26.5296 1.66296833,26.4336 1.54815873,26.3176 C1.43433886,26.2026 1.33932401,26.0706 1.2660834,25.9236 C1.19185306,25.7786 1.14335589,25.6266 1.11069454,25.4426 C1.0730845,25.2336 1.06318712,25.0096 1.05823843,24.8186 C1.05526921,24.7096 1.05427948,24.5986 1.05328974,24.4906 L1.0523,24.1676 L1.0523,24.0836 L1.0523,5.5916 L1.0523,5.5066 L1.05328974,5.1856 C1.05427948,5.0766 1.05526921,4.9666 1.05823843,4.8566 C1.06318712,4.6656 1.0730845,4.4406 1.11069454,4.2306 C1.14335589,4.0486 1.19185306,3.8976 1.2660834,3.7506 C1.33932401,3.6056 1.43433886,3.4736 1.54914847,3.3566 C1.66296833,3.2416 1.79460348,3.1456 1.93910523,3.0716 C2.08261724,2.9976 2.23404715,2.9476 2.41318972,2.9146 C2.6210347,2.8766 2.84273601,2.8666 3.03375544,2.8616 C3.14262661,2.8586 3.25050805,2.8566 3.35838949,2.8566 L3.76022311,2.8556 L36.3453666,2.8556" id="Fill-4" fill="#FFFFFF"></path>
            <path d="M10.9484,10.6354 C11.2924,10.2064 11.5254,9.6294 11.4634,9.0404 C10.9604,9.0654 10.3474,9.3714 9.9924,9.8014 C9.6734,10.1694 9.3914,10.7704 9.4644,11.3354 C10.0294,11.3844 10.5934,11.0524 10.9484,10.6354" id="Fill-6" fill="#000000"></path>
            <path d="M11.4572,11.4455 C10.6372,11.3965 9.9412,11.9105 9.5492,11.9105 C9.1582,11.9105 8.5592,11.4695 7.9102,11.4815 C7.0672,11.4945 6.2842,11.9715 5.8562,12.7295 C4.9752,14.2475 5.6242,16.4985 6.4792,17.7345 C6.8952,18.3465 7.3962,19.0195 8.0572,18.9955 C8.6812,18.9705 8.9252,18.5915 9.6842,18.5915 C10.4422,18.5915 10.6622,18.9955 11.3222,18.9835 C12.0072,18.9705 12.4362,18.3715 12.8512,17.7595 C13.3282,17.0625 13.5232,16.3885 13.5362,16.3525 C13.5232,16.3405 12.2152,15.8385 12.2032,14.3325 C12.1912,13.0725 13.2302,12.4735 13.2792,12.4365 C12.6922,11.5685 11.7752,11.4695 11.4572,11.4455" id="Fill-8" fill="#000000"></path>
            <path d="M16.5759,14.5871 L18.2109,14.5871 C19.4509,14.5871 20.1569,13.9191 20.1569,12.7611 C20.1569,11.6041 19.4509,10.9421 18.2169,10.9421 L16.5759,10.9421 L16.5759,14.5871 Z M18.5929,9.7401 C20.3739,9.7401 21.6139,10.9671 21.6139,12.7551 C21.6139,14.5491 20.3479,15.7831 18.5479,15.7831 L16.5759,15.7831 L16.5759,18.9191 L15.1509,18.9191 L15.1509,9.7401 L18.5929,9.7401 Z" id="Fill-10" fill="#000000"></path>
            <path d="M26.3053,16.4128 L26.3053,15.8848 L24.6583,15.9868 C23.8373,16.0438 23.3723,16.4068 23.3723,16.9788 C23.3723,17.5638 23.8563,17.9458 24.5943,17.9458 C25.5553,17.9458 26.3053,17.2848 26.3053,16.4128 M21.9863,17.0168 C21.9863,15.8468 22.8833,15.1278 24.4733,15.0388 L26.3053,14.9308 L26.3053,14.4158 C26.3053,13.6708 25.8033,13.2258 24.9633,13.2258 C24.1683,13.2258 23.6713,13.6078 23.5513,14.2058 L22.2533,14.2058 C22.3293,12.9968 23.3603,12.1058 25.0143,12.1058 C26.6363,12.1058 27.6733,12.9648 27.6733,14.3078 L27.6733,18.9188 L26.3563,18.9188 L26.3563,17.8188 L26.3243,17.8188 C25.9363,18.5628 25.0903,19.0338 24.2123,19.0338 C22.9023,19.0338 21.9863,18.2198 21.9863,17.0168" id="Fill-12" fill="#000000"></path>
            <path d="M28.9162,21.381 L28.9162,20.268 C29.0182,20.293 29.2472,20.293 29.3612,20.293 C29.9982,20.293 30.3412,20.026 30.5502,19.339 C30.5502,19.326 30.6712,18.932 30.6712,18.925 L28.2542,12.227 L29.7432,12.227 L31.4352,17.673 L31.4602,17.673 L33.1532,12.227 L34.6032,12.227 L32.0962,19.269 C31.5242,20.892 30.8632,21.413 29.4762,21.413 C29.3612,21.413 29.0182,21.401 28.9162,21.381" id="Fill-14" fill="#000000"></path>
            <rect id="Rectangle-Copy" stroke="#1E1E1E" x="0.5" y="0.5" width="39" height="29" rx="3"></rect>
        </g>
    </g>
</svg>