<?xml version="1.0" encoding="UTF-8"?>
<svg width="40px" height="30px" viewBox="0 0 40 30" version="1.1" xmlns="http://www.w3.org/2000/svg" xmlns:xlink="http://www.w3.org/1999/xlink">
    <title>ic_pa/electronicCash</title>
    <defs>
        <polygon id="path-1" points="0 0.8844 23.989 0.8844 23.989 25 0 25"></polygon>
    </defs>
    <g id="ic_pa/electronicCash" stroke="none" stroke-width="1" fill="none" fill-rule="evenodd">
        <rect id="Rectangle-Copy" stroke="#1E1E1E" x="0.5" y="0.5" width="39" height="29" rx="3"></rect>
        <g id="Group-12" transform="translate(8.000000, 2.000000)">
            <path d="M0.3436,2.6697 C0.3436,1.9067 1.0826,1.2877 1.9946,1.2877 L21.9946,1.2877 C22.9056,1.2877 23.6456,1.9067 23.6456,2.6697 L23.6456,23.4437 C23.6456,24.2087 22.9056,24.8277 21.9946,24.8277 L1.9946,24.8277 C1.0826,24.8277 0.3436,24.2087 0.3436,23.4437 L0.3436,2.6697 Z" id="Fill-1" fill="#FFFFFF"></path>
            <g id="Group-5" transform="translate(0.000000, 0.115600)">
                <mask id="mask-2" fill="white">
                    <use xlink:href="#path-1"></use>
                </mask>
                <g id="Clip-4"></g>
                <path d="M1.9945,1.4604 C1.2735,1.4604 0.6875,1.9504 0.6875,2.5544 L0.6875,23.3284 C0.6875,23.9334 1.2735,24.4244 1.9945,24.4244 L21.9945,24.4244 C22.7155,24.4244 23.3015,23.9334 23.3015,23.3284 L23.3015,2.5544 C23.3015,1.9504 22.7155,1.4604 21.9945,1.4604 L1.9945,1.4604 Z M21.9945,25.0004 L1.9945,25.0004 C0.8945,25.0004 -0.0005,24.2504 -0.0005,23.3284 L-0.0005,2.5544 C-0.0005,1.6334 0.8945,0.8844 1.9945,0.8844 L21.9945,0.8844 C23.0945,0.8844 23.9895,1.6334 23.9895,2.5544 L23.9895,23.3284 C23.9895,24.2504 23.0945,25.0004 21.9945,25.0004 L21.9945,25.0004 Z" id="Fill-3" fill="#007FC3" mask="url(#mask-2)"></path>
            </g>
            <path d="M7.3754,17.8025 C7.3754,18.2845 7.7414,18.6645 8.1864,18.6645 L8.8514,18.6645 L8.8514,15.9005 L13.4584,15.9005 L13.4584,22.4255 L4.8414,22.4255 C3.7014,22.4255 2.8714,21.4745 2.8714,20.3065 L2.8714,5.9655 C2.8714,4.7905 3.7014,3.8435 4.8414,3.8435 L13.4584,3.8435 L13.4584,14.8055 L7.3754,14.8055 L7.3754,17.8025 M7.3754,8.4255 L7.3754,11.1395 L8.8514,11.1395 L8.8514,7.6045 L8.1744,7.6045 C7.7414,7.6045 7.3754,7.9675 7.3754,8.4255" id="Fill-6" fill="#007FC3"></path>
            <path d="M21.163,22.4256 L12.709,22.4256 L12.612,22.4146 L12.521,22.4026 L12.422,22.3836 L12.332,22.3596 L12.246,22.3256 L12.155,22.2956 L12.069,22.2646 C11.791,22.1366 11.612,22.0056 11.392,21.7886 C11.203,21.5826 11.05,21.3396 10.949,21.0736 L10.918,20.9886 L10.892,20.8866 L10.869,20.7936 L10.845,20.7006 L10.832,20.5986 L10.819,20.5056 L10.815,20.3996 L10.809,20.3066 L10.809,5.9466 C10.821,5.3906 11.004,4.8926 11.382,4.4896 C11.567,4.2856 11.795,4.1226 12.045,4.0146 L12.129,3.9746 L12.216,3.9436 L12.308,3.9186 L12.392,3.8946 L12.489,3.8746 L12.582,3.8636 L12.672,3.8506 L12.769,3.8436 L21.163,3.8436 L21.163,11.1326 L16.752,11.1326 L16.752,7.5936 C16.071,7.4836 15.334,7.6426 15.293,8.4626 L15.293,8.1426 L15.288,8.4736 L15.293,8.4626 L15.293,17.7916 L15.288,17.7786 L15.293,17.8606 L15.293,17.7916 C15.336,18.6136 16.069,18.7766 16.763,18.6586 L16.763,14.8686 L16.782,14.8006 L21.163,14.8006 L21.163,22.4256" id="Fill-8" fill="#FF0000"></path>
            <path d="M10.8085,5.9471 C10.8605,4.4501 12.0545,3.6531 13.4585,3.8431 L13.4585,14.8051 L10.8085,14.8051 L10.8085,5.9471 L10.8085,5.9471 Z M12.7525,22.4261 C12.2415,22.4041 11.7495,22.1611 11.3925,21.7891 C11.2025,21.5831 11.0495,21.3401 10.9485,21.0741 L10.9185,20.9881 L10.8925,20.8861 L10.8685,20.7941 L10.8455,20.7011 L10.8315,20.5981 L10.8195,20.5061 L10.8145,20.3991 L10.8085,20.3061 L10.8085,15.9001 L13.4585,15.9001 L13.4585,22.4261 L12.7525,22.4261 Z" id="Fill-10" fill="#292526"></path>
        </g>
    </g>
</svg>