<?xml version="1.0" encoding="UTF-8"?>
<svg width="18px" height="26px" viewBox="0 0 18 26" version="1.1" xmlns="http://www.w3.org/2000/svg">
    <!-- Generator: Sketch 52.5 (67469) - http://www.bohemiancoding.com/sketch -->
    <g stroke="none" stroke-width="1" fill="none" fill-rule="evenodd">
        <g transform="translate(-11.000000, -7.000000)" fill="#181715" fill-rule="nonzero">
            <path d="M19.94,32.38 C18.06,32.38 15.22,27.5 14.66,26.5 C12.54,22.78 11.32,18.94 11.32,16.34 C11.32,11.56 15.2,7.68 19.98,7.68 C24.76,7.68 28.64,11.56 28.64,16.34 C28.72,21.12 22.56,32.38 19.94,32.38 Z M20.06,8.78 C15.9,8.78 12.5,12.16 12.5,16.34 C12.5,22.28 18.62,31.28 20,31.28 C21.38,31.28 27.62,21.28 27.62,16.34 C27.62,12.16 24.22,8.78 20.06,8.78 Z M19.94,20.66 C17.66,20.66 15.78,18.78 15.78,16.5 C15.78,14.22 17.66,12.34 19.94,12.34 C22.22,12.34 24.1,14.22 24.1,16.5 C24.12,18.78 22.28,20.66 19.94,20.66 Z M19.94,13.44 C18.28,13.44 16.88,14.82 16.88,16.5 C16.88,18.18 18.26,19.56 19.94,19.56 C21.62,19.56 23,18.16 23,16.5 C23,14.84 21.66,13.44 19.94,13.44 Z" id="Shape"></path>
        </g>
    </g>
</svg>
