<svg width="20" height="23" viewBox="0 0 20 23" fill="none" xmlns="http://www.w3.org/2000/svg">
    <path d="m10 21.5-.504.556a.75.75 0 0 0 1.008 0L10 21.5zM10 .75C5.872.75 1.45 3.965 1.45 9.5h1.5c0-4.598 3.637-7.25 7.05-7.25V.75zM1.45 9.5c0 1.414.553 2.91 1.309 4.312.762 1.414 1.769 2.8 2.76 4.013a44.09 44.09 0 0 0 3.975 4.229l.002.001L10 21.5l.504-.556h-.001l-.004-.004-.015-.013-.062-.058a40.03 40.03 0 0 1-1.108-1.078 42.57 42.57 0 0 1-2.634-2.916c-.958-1.17-1.9-2.476-2.601-3.775-.707-1.31-1.129-2.548-1.129-3.6h-1.5zm8.55 12 .504.556.002-.002.005-.005.018-.016a15.431 15.431 0 0 0 .323-.303 44.079 44.079 0 0 0 3.628-3.905c.992-1.212 2-2.6 2.761-4.013.756-1.401 1.309-2.898 1.309-4.312h-1.5c0 1.052-.422 2.29-1.129 3.6-.7 1.3-1.643 2.604-2.601 3.775a42.58 42.58 0 0 1-3.742 3.994l-.062.058a1.61 1.61 0 0 1-.015.013l-.004.004.503.556zm8.55-12c0-5.535-4.423-8.75-8.55-8.75v1.5c3.412 0 7.05 2.652 7.05 7.25h1.5zM10 11.417c-.998 0-1.85-.847-1.85-1.917h-1.5c0 1.863 1.488 3.417 3.35 3.417v-1.5zM8.15 9.5c0-1.07.852-1.917 1.85-1.917v-1.5c-1.862 0-3.35 1.554-3.35 3.417h1.5zM10 7.583c.998 0 1.85.846 1.85 1.917h1.5c0-1.863-1.488-3.417-3.35-3.417v1.5zM11.85 9.5c0 1.07-.852 1.917-1.85 1.917v1.5c1.862 0 3.35-1.554 3.35-3.417h-1.5z" fill="#FFDC00"/>
</svg>
