<svg xmlns="http://www.w3.org/2000/svg" width="58" height="58" viewBox="0 0 58 58">
    <g fill="#000" fill-rule="nonzero">
        <path d="M54.464 26.312H53.26a3.356 3.356 0 0 0-3.347 3.346v1.283c-3.223-.558-11.622-1.673-19.15.267-4.161 1.071-6.358 3.112-7.507 5.154a10.934 10.934 0 0 0-3.079-4.217c-3.97-3.368-9.592-3.457-12.09-3.301v-2.22a3.356 3.356 0 0 0-3.347-3.346h-.747a3.356 3.356 0 0 0-3.346 3.346V54.32a3.356 3.356 0 0 0 3.346 3.346h.747a3.356 3.356 0 0 0 3.347-3.346v-5.543h41.815v5.543a3.356 3.356 0 0 0 3.346 3.346h1.205A3.356 3.356 0 0 0 57.8 54.32V29.66a3.332 3.332 0 0 0-3.335-3.347zm-23.144 7.06c7.35-1.896 15.872-.647 18.593-.156v7.663H24.282c-.011-.09-.011-.19-.022-.29.089-1.93 1.048-5.666 7.06-7.217zm-12.57.48c1.93 1.64 3.033 3.993 3.301 7.016H8.087v-9.793c2.108-.123 7.25-.112 10.663 2.777zm36.83 20.467c0 .614-.502 1.116-1.116 1.116H53.26a1.119 1.119 0 0 1-1.116-1.116V47.66c0-.613-.502-1.115-1.115-1.115H6.97c-.613 0-1.115.502-1.115 1.115v6.66c0 .613-.502 1.115-1.116 1.115h-.747a1.119 1.119 0 0 1-1.115-1.116V26.613c0-.613.502-1.115 1.115-1.115h.747c.614 0 1.116.502 1.116 1.115v15.37c0 .614.502 1.115 1.115 1.115H51.03c.613 0 1.115-.501 1.115-1.115V29.658c0-.613.502-1.115 1.116-1.115h1.204c.614 0 1.116.502 1.116 1.115V54.32zM55.401 20.646c-.19 0-.38-.045-.546-.145L30.093 6.67 3.112 20.523a1.06 1.06 0 0 1-.881.056 1.11 1.11 0 0 1-.647-.602L.156 16.708A1.118 1.118 0 0 1 .67 15.27L29.48.457c.201-.1.413-.145.636-.122a1.17 1.17 0 0 1 .67.133l26.59 14.824c.502.279.714.892.48 1.416l-1.428 3.269a1.104 1.104 0 0 1-1.026.669zM2.61 16.786l.535 1.216L29.602 4.417a1.094 1.094 0 0 1 1.049.022l24.226 13.519.524-1.205L30.394 2.811c-.19.044-.412.044-.602-.011L2.61 16.787z"/>
    </g>
</svg>
