<svg xmlns="http://www.w3.org/2000/svg" width="24" height="16" viewBox="0 0 24 16">
    <g fill="none" fill-rule="evenodd">
        <path fill="#FFF" fill-rule="nonzero" d="M21.987 14.905H1.88V1.135h20.107z"/>
        <path fill="#EC1B2D" d="M3.705 2.876h4.027c2.513 0 3.99 1.62 3.99 5.117 0 3.725-1.545 5.216-3.99 5.216H3.705V2.876zm9.144 0h4.505c1.885 0 2.83 1.135 2.83 2.445 0 1.719-1.006 2.301-1.786 2.468v.045c1.166.152 2.218.977 2.218 2.56-.007 1.702-1.241 2.815-3.542 2.815h-4.225V2.876zm-6.654 1.62h.886c1.43 0 2.188 1.03 2.188 3.452 0 2.778-.886 3.61-2.143 3.61h-.93V4.497zm9.122-.015h.954c.977 0 1.378.545 1.378 1.18 0 .773-.416 1.31-1.393 1.31h-.939v-2.49zm0 4.436h1.174c1.158 0 1.468.56 1.468 1.294 0 .856-.62 1.348-1.453 1.348h-1.189V8.917zM2.895.09H21.1a2.342 2.342 0 0 1 2.347 2.34v11.173A2.349 2.349 0 0 1 21.1 15.95H2.895a2.342 2.342 0 0 1-2.34-2.347V2.429A2.336 2.336 0 0 1 2.895.09zm.03 1.597h18.153c.401 0 .727.326.727.727v11.204a.727.727 0 0 1-.727.727H2.925a.727.727 0 0 1-.727-.727V2.414c0-.401.326-.727.727-.727z"/>
    </g>
</svg>
