<?xml version="1.0" encoding="UTF-8" standalone="no"?>
<svg
   xmlns="http://www.w3.org/2000/svg"
   width="16"
   height="16"
   viewBox="0 0 207.000000 201.000000">
  <g transform="matrix(0.19397155,0,0,-0.20765804,2.1457422,204.82496)"
     style="fill:#000000;fill-rule:evenodd">
    <path
       d="M 875,989 C 864,983 758,882 640,764 L 425,550 375,566 C 247,606 101,544 40,423 4,354 4,236 40,167 138,-25 411,-41 529,137 c 51,76 61,185 26,274 -4,11 22,43 86,107 l 92,92 63,-60 c 34,-33 66,-60 69,-60 17,0 195,185 195,203 0,10 -25,45 -56,77 -30,32 -51,61 -46,64 5,3 17,21 26,40 20,43 6,90 -35,111 -33,18 -47,18 -74,4 z M 334,396 c 45,-19 66,-52 66,-102 0,-50 -27,-88 -74,-104 -44,-14 -77,-5 -112,31 -41,43 -41,105 0,148 25,26 38,33 79,40 4,0 23,-5 41,-13 z"
       id="path2"
	/>
  </g>
</svg>
