<svg xmlns="http://www.w3.org/2000/svg" width="16" height="16" viewBox="0 0 16 16">
    <g fill="none" fill-rule="nonzero">
        <path fill="#FFF" d="M2.162.162h11.261v15.505H2.162z"/>
        <path fill="#3AB1D0" d="M13.584 15.828H2V0h11.584v15.828zm-11.26-.324H13.26V.324H2.323v15.18z"/>
        <path fill="#062377" d="M5.197 2.385v.911c0 .2-.03.36-.092.482s-.21.183-.444.183a1.233 1.233 0 0 1-.418-.074l.02-.196a1.8 1.8 0 0 0 .128.05.834.834 0 0 0 .265.047.403.403 0 0 0 .192-.043.254.254 0 0 0 .116-.124.3.3 0 0 0 .03-.094c.004-.032.007-.065.009-.1V3.342c0-.012 0-.023.002-.034a.386.386 0 0 1-.154.135.484.484 0 0 1-.213.045.447.447 0 0 1-.351-.15.573.573 0 0 1-.133-.395c0-.17.045-.308.134-.414a.43.43 0 0 1 .346-.16.46.46 0 0 1 .227.056.323.323 0 0 1 .144.154v-.01c0-.003 0-.006.002-.008V2.552l-.002-.03v-.137h.192zm-.515.157a.27.27 0 0 0-.225.113.455.455 0 0 0-.086.286c0 .11.028.2.084.27a.268.268 0 0 0 .22.106.288.288 0 0 0 .232-.108.418.418 0 0 0 .09-.277.425.425 0 0 0-.091-.278.28.28 0 0 0-.224-.112zm1.02-.155v1.1h-.204v-1.1h.204zm.005-.489v.225h-.223v-.225h.223zm.226.489h.189l.009.196a.373.373 0 0 1 .13-.156.33.33 0 0 1 .185-.053h.024c.007 0 .014 0 .021.002l.03.003.036.008v.187A.316.316 0 0 0 6.5 2.56c-.006 0-.012 0-.019-.002a.193.193 0 0 0-.021 0c-.098 0-.17.035-.219.105a.521.521 0 0 0-.092.315v.51h-.203v-.67a5.65 5.65 0 0 0-.009-.322l-.004-.108zm1.786.554a.564.564 0 0 1-.16.413.55.55 0 0 1-.408.161.538.538 0 0 1-.402-.162.565.565 0 0 1-.159-.412c0-.17.053-.31.16-.42a.538.538 0 0 1 .403-.164c.165 0 .3.055.406.164a.587.587 0 0 1 .16.42zm-.217.004a.484.484 0 0 0-.098-.306.304.304 0 0 0-.249-.12.312.312 0 0 0-.25.119.452.452 0 0 0-.098.3c0 .122.032.222.098.3a.327.327 0 0 0 .5 0 .44.44 0 0 0 .098-.293zm1.11-.527l-.013.18a.322.322 0 0 0-.094-.039.474.474 0 0 0-.107-.01.356.356 0 0 0-.268.106.377.377 0 0 0-.103.274.41.41 0 0 0 .101.288.34.34 0 0 0 .266.11.397.397 0 0 0 .23-.07l.015.188a.51.51 0 0 1-.125.042.77.77 0 0 1-.145.012.546.546 0 0 1-.405-.154.55.55 0 0 1-.153-.406c0-.164.053-.3.157-.406a.53.53 0 0 1 .395-.16h.021a.637.637 0 0 1 .228.045zm.25.052a.735.735 0 0 1 .368-.101c.102 0 .188.02.258.059.068.036.12.095.148.166.013.04.022.08.026.12.006.063.008.125.007.187v.307l.003.093a1.952 1.952 0 0 0 .009.187h-.187a.3.3 0 0 0-.001-.03.225.225 0 0 1-.001-.022v-.069-.032c.002-.01.002-.023.002-.036a.405.405 0 0 1-.152.154.45.45 0 0 1-.217.048.416.416 0 0 1-.278-.088.298.298 0 0 1-.105-.24c0-.116.05-.205.15-.267.1-.062.242-.093.427-.093h.022a1.695 1.695 0 0 1 .131.004c-.001-.093-.024-.162-.068-.206-.045-.045-.113-.068-.207-.068a.455.455 0 0 0-.187.034.723.723 0 0 0-.137.072l-.011-.178zm.614.498a.558.558 0 0 0-.08-.007h-.03a.7.7 0 0 0-.306.052c-.068.034-.102.087-.102.158a.152.152 0 0 0 .059.123c.039.032.09.048.153.048.118 0 .199-.038.242-.112a.517.517 0 0 0 .064-.262zm.437-.581h.19l.008.196a.373.373 0 0 1 .13-.157.33.33 0 0 1 .185-.053h.024l.021.003c.01 0 .02 0 .03.003l.036.008v.187a.316.316 0 0 0-.056-.015c-.007 0-.013 0-.02-.002a.193.193 0 0 0-.021 0c-.098 0-.17.035-.219.105a.521.521 0 0 0-.092.315v.51h-.203v-.67a5.65 5.65 0 0 0-.008-.322l-.005-.108zm1.662-.52v1.108a22.465 22.465 0 0 0 .015.513h-.198v-.185a.418.418 0 0 1-.158.15.476.476 0 0 1-.222.048.441.441 0 0 1-.351-.15.603.603 0 0 1-.131-.408c0-.17.044-.31.133-.415a.433.433 0 0 1 .349-.16.421.421 0 0 1 .365.191l-.002-.036a.642.642 0 0 1-.001-.04.614.614 0 0 1-.005-.074v-.542h.206zm-.514.675a.277.277 0 0 0-.226.112.447.447 0 0 0-.088.287c0 .114.028.207.085.28a.27.27 0 0 0 .223.11c.09 0 .175-.04.23-.112a.432.432 0 0 0 .09-.28.441.441 0 0 0-.09-.283.275.275 0 0 0-.223-.114zM5.22 12.188h1.117a.271.271 0 0 1 .276.298L6.52 13.71c-.015.197-.176.358-.36.358H4.91c-.185 0-.304-.161-.268-.358l.224-1.223a.372.372 0 0 1 .352-.298m4.061 0h1.118a.37.37 0 0 1 .351.298l.222 1.223c.035.197-.084.358-.269.358h-1.25c-.185 0-.345-.161-.36-.358l-.088-1.223a.272.272 0 0 1 .276-.298m-2.03 0a.316.316 0 0 0-.314.297L6.87 13.71c-.011.196.128.36.312.36h1.25c.185 0 .324-.164.314-.36l-.064-1.224a.315.315 0 0 0-.313-.297H7.25m.557.246c.14 0 .239.05.297.147.06.102.1.215.115.332l.009.087c.002.03.001.058.002.085l.002.079c0 .027-.004.054-.006.082a.877.877 0 0 1-.102.357c-.06.111-.167.168-.319.168-.147 0-.25-.054-.309-.163a.9.9 0 0 1-.106-.352c-.003-.031-.004-.064-.005-.097 0-.033-.003-.064-.002-.094 0-.025.002-.05.004-.077l.007-.082a.837.837 0 0 1 .117-.33c.06-.096.158-.143.296-.143m-.003.141c-.074 0-.13.042-.171.127a.889.889 0 0 0-.068.369v.101c.002.039.004.077.009.118.01.077.032.151.066.22.03.065.096.105.167.102.081 0 .144-.046.185-.139a.994.994 0 0 0 .057-.397.905.905 0 0 0-.067-.374c-.041-.086-.1-.127-.178-.127M5.74 9.024c-.133 0-.254.084-.273.19l-.14.768c-.023.12.075.22.22.22h.977c.145 0 .268-.1.277-.22l.058-.768c.008-.106-.092-.19-.224-.19H5.74m.458.17h.196l-.059.526h.133l-.01.097h-.132l-.021.186h-.147l.023-.186h-.47l.015-.097.472-.527m.07.038a.02.02 0 0 0-.002.004 3.705 3.705 0 0 1-.173.228l-.112.131c-.002.004-.006.006-.009.01a.118.118 0 0 1-.01.01c-.003.006-.007.01-.01.014l-.01.014-.035.04-.039.039h.325l.04-.32a.417.417 0 0 1 .006-.043 1.382 1.382 0 0 0 .015-.062.675.675 0 0 1 .008-.033l.006-.032m2.723-.206c-.133 0-.234.083-.226.19l.056.767c.008.121.133.22.278.22h.978c.144 0 .242-.099.22-.22l-.138-.768c-.02-.106-.14-.19-.273-.19h-.895m.54.158l.035.001a.682.682 0 0 1 .164.022l-.002.1a.704.704 0 0 0-.11-.03l-.036-.002a.602.602 0 0 0-.036-.002c-.084 0-.145.024-.18.073a.29.29 0 0 0-.051.193v.028a.167.167 0 0 1 .084-.064.331.331 0 0 1 .128-.025.35.35 0 0 1 .222.074c.06.045.1.112.11.186a.221.221 0 0 1-.06.202.307.307 0 0 1-.225.08.356.356 0 0 1-.27-.107.496.496 0 0 1-.12-.3c-.014-.143.008-.25.067-.321.06-.073.153-.108.28-.108m-.02.389a.162.162 0 0 0-.122.046.138.138 0 0 0-.036.118c.004.05.028.097.066.13a.2.2 0 0 0 .138.053.157.157 0 0 0 .124-.05.148.148 0 0 0 .033-.125.188.188 0 0 0-.067-.124.206.206 0 0 0-.136-.049m-2.145-.545c-.133 0-.243.083-.249.19l-.042.767c-.007.12.103.22.248.22H8.3c.144 0 .254-.1.248-.22l-.04-.768c-.006-.106-.116-.19-.248-.19h-.895m.173.168h.531l.002.091h-.407l-.006.145v.031c0 .01 0 .022-.002.031a.089.089 0 0 1 .013-.005l.015-.001a.266.266 0 0 1 .036-.005l.042-.002a.41.41 0 0 1 .248.07c.062.04.099.11.1.184a.227.227 0 0 1-.105.198.484.484 0 0 1-.287.075l-.046-.001a.638.638 0 0 1-.103-.012 1.18 1.18 0 0 1-.063-.015l.006-.111a.704.704 0 0 0 .166.04l.02.001h.02c.07 0 .128-.016.173-.048a.143.143 0 0 0-.004-.242.321.321 0 0 0-.179-.044h-.025l-.025.001a.61.61 0 0 0-.135.026l.015-.407m-2.03 1.24c-.147 0-.283.103-.307.234l-.175.955c-.028.152.079.276.24.276h1.098a.311.311 0 0 0 .313-.276l.07-.955c.01-.131-.1-.234-.246-.234h-.993m.13.212h.68l-.012.113-.521.89h-.181l.427-.702a.152.152 0 0 0 .008-.018.102.102 0 0 1 .01-.014.042.042 0 0 1 .006-.008.04.04 0 0 0 .005-.008l.046-.072.049-.07h-.023a.19.19 0 0 0-.024 0l-.02.002H5.62l.018-.113m3.482-.212c-.147 0-.26.103-.25.234l.07.956c.01.152.152.276.314.276h1.097c.163 0 .27-.124.242-.276l-.172-.956c-.024-.131-.16-.234-.307-.234H9.12m.508.193a.38.38 0 0 1 .289.115.638.638 0 0 1 .148.348c.028.187.009.33-.055.43-.063.098-.174.152-.328.152l-.04-.002a.72.72 0 0 1-.191-.034l.005-.136a.817.817 0 0 0 .115.038l.047.006a.478.478 0 0 0 .049.002c.098 0 .167-.032.204-.097a.443.443 0 0 0 .056-.21l-.001-.038c0-.013 0-.027-.002-.04a.246.246 0 0 1-.097.082.315.315 0 0 1-.137.028.364.364 0 0 1-.25-.092.35.35 0 0 1-.118-.234.273.273 0 0 1 .073-.23.31.31 0 0 1 .234-.087m.021.11a.167.167 0 0 0-.133.057.186.186 0 0 0-.039.146.236.236 0 0 0 .075.151c.04.039.095.06.151.06.05.002.1-.02.133-.058a.173.173 0 0 0 .036-.143.248.248 0 0 0-.076-.152.205.205 0 0 0-.147-.06m-2.336-.305c-.147 0-.27.103-.277.234l-.053.955c-.008.152.115.276.277.276h1.097c.162 0 .285-.124.277-.276l-.05-.955c-.007-.131-.13-.234-.277-.234h-.994m.492.193l.037.002.04.006a.46.46 0 0 1 .18.068.177.177 0 0 1 .084.154.19.19 0 0 1-.056.143.404.404 0 0 1-.142.092.411.411 0 0 1 .173.1c.048.047.075.111.074.178a.243.243 0 0 1-.11.222.458.458 0 0 1-.302.076c-.013 0-.025 0-.038-.002a.509.509 0 0 1-.227-.089.222.222 0 0 1-.097-.2c0-.067.027-.13.076-.177a.438.438 0 0 1 .172-.1.262.262 0 0 1-.153-.086.215.215 0 0 1-.056-.153.186.186 0 0 1 .092-.164.471.471 0 0 1 .192-.066l.031-.002.03-.002m-.02.104c-.005 0-.012 0-.018.002a.24.24 0 0 0-.104.043.103.103 0 0 0-.047.086c0 .035.016.069.043.09.03.025.064.046.1.062l.042.02.039.015.01-.006.011-.006a.43.43 0 0 0 .087-.076.142.142 0 0 0 .04-.099.104.104 0 0 0-.05-.09.23.23 0 0 0-.109-.04l-.015-.002a.11.11 0 0 0-.012 0h-.017m-.003.426l-.015.008a.508.508 0 0 0-.122.084.152.152 0 0 0-.052.113.154.154 0 0 0 .071.135c.046.032.1.05.156.05h.005a.264.264 0 0 0 .143-.046.133.133 0 0 0 .062-.12.154.154 0 0 0-.06-.126.548.548 0 0 0-.13-.075l-.03-.012-.028-.01M5.93 7.872c-.12 0-.23.07-.245.158l-.116.63c-.018.098.072.178.202.178h.882c.13 0 .24-.08.248-.179l.047-.629c.007-.087-.084-.157-.204-.157h-.814m.38.14h.115l-.08.664h-.13l.053-.412.005-.038a.549.549 0 0 1 .007-.04l.005-.037.005-.037a.315.315 0 0 1-.044.03l-.048.029a1.06 1.06 0 0 0-.032.016l-.028.016-.062-.061.233-.13m2.578-.14c-.12 0-.213.07-.207.158l.046.629c.007.098.119.179.25.179h.881c.13 0 .22-.08.202-.18l-.113-.628c-.016-.088-.125-.158-.245-.158h-.814m.39.132h.012a.568.568 0 0 1 .2.04c.063.024.1.068.11.13.005.039-.01.072-.045.1a.267.267 0 0 1-.148.049c.06 0 .12.018.17.05.042.027.071.07.079.12.009.058-.015.105-.07.14a.448.448 0 0 1-.239.053h-.05l-.053-.005a.939.939 0 0 1-.069-.01c-.023-.003-.046-.007-.068-.012l-.004-.093c.035.01.068.02.097.027.029.005.058.01.087.01l.022.002.021.001a.257.257 0 0 0 .142-.035c.035-.023.05-.05.045-.086a.104.104 0 0 0-.068-.085.447.447 0 0 0-.13-.033l-.043-.003a.686.686 0 0 0-.038-.001H9.21l-.017.001-.01-.081h.058c.021 0 .042-.002.064-.004a.422.422 0 0 0 .12-.03.065.065 0 0 0 .043-.074c-.004-.029-.023-.052-.058-.07a.29.29 0 0 0-.132-.027l-.03.001c-.01 0-.02.002-.029.003a.496.496 0 0 0-.135.029l-.019-.08a.66.66 0 0 1 .05-.011c.016-.004.031-.005.046-.008a.803.803 0 0 1 .115-.009m-1.87-.132c-.12 0-.22.07-.224.158l-.036.63c-.005.098.095.178.225.178h.882c.13 0 .23-.08.225-.179l-.033-.629c-.005-.087-.105-.157-.225-.157h-.813m.38.136c.085 0 .155.016.208.048.053.033.08.074.08.127v.014c0 .004 0 .008-.002.012a.221.221 0 0 1-.06.116 1.18 1.18 0 0 1-.166.146 2.203 2.203 0 0 1-.191.127l-.007.005a.291.291 0 0 1 .046-.005h.409l.001.082H7.52l.003-.104.084-.054a2.579 2.579 0 0 0 .176-.127.81.81 0 0 0 .134-.139.123.123 0 0 0 .024-.07c0-.03-.016-.055-.049-.075a.236.236 0 0 0-.123-.029.426.426 0 0 0-.098.012.651.651 0 0 0-.103.035l-.012-.082a.628.628 0 0 1 .188-.037l.044-.002"/>
        <path fill="#062377" d="M12.336 14.92h-9.06l2.003-7.932h.736a.08.08 0 0 1 0 .161h-.61l-1.922 7.61h8.647L10.266 7.15h-.688a.08.08 0 0 1 0-.162h.814l.015.062 1.93 7.87z"/>
        <path fill="#3AB1D0" d="M6.35 4.345a.399.399 0 0 0-.398.396v2.943h.16V4.741a.233.233 0 0 1 .238-.235h.45v2.32H6.25l.854.858h1.403l.853-.858h-.547v-2.32h.449a.233.233 0 0 1 .237.235v2.943h.162V4.741a.399.399 0 0 0-.399-.396H6.35z"/>
    </g>
</svg>
