<?xml version="1.0" encoding="UTF-8"?>
<svg width="40px" height="30px" viewBox="0 0 40 30" version="1.1" xmlns="http://www.w3.org/2000/svg" xmlns:xlink="http://www.w3.org/1999/xlink">
    <title>ic_pa/mastercard</title>
    <defs>
        <polygon id="path-1" points="0.8394 0.5296 1.796 0.5296 1.796 1.5296 0.8394 1.5296"></polygon>
    </defs>
    <g id="ic_pa/mastercard" stroke="none" stroke-width="1" fill="none" fill-rule="evenodd">
        <rect id="Rectangle" stroke="#1E1E1E" x="0.5" y="0.5" width="39" height="29" rx="3"></rect>
        <g id="Group-10" transform="translate(6.000000, 6.000000)">
            <polygon id="Fill-1" fill="#FF5F00" points="9.775 15.7908 17.021 15.7908 17.021 2.7698 9.775 2.7698"></polygon>
            <g id="Group-9" transform="translate(0.000000, 0.561800)">
                <path d="M10.2352,8.7188 C10.2352,6.0768 11.4722,3.7248 13.3982,2.2088 C11.9892,1.0998 10.2122,0.4388 8.2802,0.4388 C3.7072,0.4388 0.0002,4.1458 0.0002,8.7188 C0.0002,13.2918 3.7072,16.9998 8.2802,16.9998 C10.2122,16.9998 11.9892,16.3388 13.3982,15.2298 C11.4722,13.7128 10.2352,11.3608 10.2352,8.7188" id="Fill-2" fill="#EB001B"></path>
                <path d="M26.7957,8.7188 C26.7957,13.2918 23.0887,16.9998 18.5157,16.9998 C16.5837,16.9998 14.8067,16.3388 13.3977,15.2298 C15.3237,13.7128 16.5607,11.3608 16.5607,8.7188 C16.5607,6.0768 15.3237,3.7248 13.3977,2.2088 C14.8067,1.0998 16.5837,0.4388 18.5157,0.4388 C23.0887,0.4388 26.7957,4.1458 26.7957,8.7188" id="Fill-4" fill="#F79E1B"></path>
                <g id="Group-8" transform="translate(25.000000, 13.000000)">
                    <mask id="mask-2" fill="white">
                        <use xlink:href="#path-1"></use>
                    </mask>
                    <g id="Clip-7"></g>
                    <path d="M1.5374,0.8506 L1.5374,0.5296 L1.4534,0.5296 L1.3564,0.7496 L1.2604,0.5296 L1.1764,0.5296 L1.1764,0.8506 L1.2354,0.8506 L1.2354,0.6086 L1.3264,0.8176 L1.3874,0.8176 L1.4774,0.6076 L1.4774,0.8506 L1.5374,0.8506 Z M1.0054,0.8506 L1.0054,0.5836 L1.1134,0.5836 L1.1134,0.5296 L0.8394,0.5296 L0.8394,0.5836 L0.9474,0.5836 L0.9474,0.8506 L1.0054,0.8506 Z" id="Fill-6" fill="#F79E1B" mask="url(#mask-2)"></path>
                </g>
            </g>
        </g>
    </g>
</svg>