<svg width="40" height="40" viewBox="0 0 40 40" fill="none" xmlns="http://www.w3.org/2000/svg">
    <path d="M0 3a3 3 0 0 1 3-3h34a3 3 0 0 1 3 3v34a3 3 0 0 1-3 3H3a3 3 0 0 1-3-3V3z" fill="#000"/>
    <path d="M31.817 28.417s-.298-.639-.658-.83c-.628-.511-4.3-3.61-6.935-5.83a8.847 8.847 0 0 0 1.16-4.408c0-4.872-3.89-8.849-8.692-8.849C11.907 8.5 8 12.461 8 17.349c0 4.871 3.891 8.848 8.692 8.848a8.487 8.487 0 0 0 4.55-1.31l7.14 5.99.015.016c.392.4.91.607 1.428.607.518 0 1.051-.208 1.443-.607.973-1.054.77-1.997.55-2.476zm-15.109-5.526c-3.028 0-5.476-2.508-5.476-5.574 0-3.067 2.463-5.575 5.476-5.575s5.46 2.508 5.476 5.575c0 3.082-2.463 5.574-5.476 5.574z" fill="#fff"/>
</svg>
