<svg version="1.1" xmlns="http://www.w3.org/2000/svg" xmlns:xlink="http://www.w3.org/1999/xlink" x="0px" y="0px" viewBox="0 0 16 16" xml:space="preserve" width="16" height="16"><g class="nc-icon-wrapper" fill="#000000"><path data-color="color-2" fill="#bebebe" d="M7,0v4H5V0H4v4H2V0H1v6c0,1.1,0.9,2,2,2v6.5C3,15.3,3.7,16,4.5,16S6,15.3,6,14.5V8 c1.1,0,2-0.9,2-2V0H7z"></path> <path fill="#bebebe" d="M15,0c-2.8,0-5,2.2-5,5v6h2v3.5c0,0.8,0.7,1.5,1.5,1.5h0c0.8,0,1.5-0.7,1.5-1.5L15,0L15,0z"></path></g></svg>