<svg xmlns="http://www.w3.org/2000/svg" width="16" height="16" viewBox="0 0 16 16">
    <g fill="none" fill-rule="evenodd">
        <path fill="#FFF" fill-rule="nonzero" d="M2.263 1.104H13.9c.64 0 1.16.52 1.16 1.16V13.9c0 .64-.52 1.16-1.16 1.16H2.263c-.64 0-1.16-.52-1.16-1.16V2.266c0-.64.52-1.16 1.16-1.16v-.002z"/>
        <path fill="#FFF" fill-rule="nonzero" stroke="#4681CF" stroke-width="1.36" d="M2.33 1.099h11.497c.68 0 1.233.551 1.233 1.232v11.495c-.001.68-.553 1.23-1.233 1.23H2.331a1.23 1.23 0 0 1-1.232-1.23V2.33c0-.68.551-1.232 1.232-1.232z"/>
        <path fill="#4681CF" fill-rule="nonzero" d="M3.586 8.62a1.69 1.69 0 0 1-.31.035c-.419 0-.567-.274-.48-.686.073-.34.29-.686.677-.686.192 0 .34.061.325.264h.58c.12-.61-.399-.686-.91-.671a1.305 1.305 0 0 0-1.285 1.093c-.145.657.171 1.073.82 1.093.367-.002.733-.04 1.092-.113l.238-1.122H3.318l-.087.407h.428l-.083.387.01-.001z"/>
        <path fill="#1D1D1B" d="M5.529 8.576c.083-.388 0-.63-.425-.63a.66.66 0 0 0-.67.516c-.087.409.041.587.459.587a.707.707 0 0 0 .347-.081.505.505 0 0 0 .26-.29h-.365a.22.22 0 0 1-.225.145c-.145 0-.158-.116-.128-.251l.747.004zm-.694-.206c.036-.118.09-.216.227-.221a.119.119 0 0 1 .123.066.24.24 0 0 1 .015.155h-.365z"/>
        <path fill="#1D1D1B" fill-rule="nonzero" d="M6.036 9.018l.32-1.499H5.96l-.319 1.5h.394z"/>
        <path fill="#1D1D1B" d="M7.05 9.018h.384l.319-1.499h-.397l-.124.58a.322.322 0 0 0-.305-.153c-.31 0-.508.28-.567.556-.06.277.023.548.319.548a.454.454 0 0 0 .385-.184h.002l-.022.154.006-.002zm-.025-.845c.173 0 .154.184.125.324-.03.139-.1.323-.263.323-.162 0-.153-.187-.124-.323.029-.137.09-.324.262-.324z"/>
        <path fill="#E64D61" fill-rule="nonzero" d="M8.595 7.841H8.59l.196-.922h-.581l-.447 2.1h.582l.237-1.117h.006l.455 1.116h.72l-.533-1.174.92-.925h-.688l-.86.922z"/>
        <path fill="#1D1D1B" d="M10.193 8.685a.202.202 0 0 1 .133-.145.565.565 0 0 1 .22-.023c-.029.145-.078.299-.247.299a.107.107 0 0 1-.106-.137v.006zm.64.335c.012-.125.014-.17.024-.213l.114-.535c.054-.235-.182-.323-.394-.323a.981.981 0 0 0-.373.062.371.371 0 0 0-.24.28h.37a.184.184 0 0 1 .159-.16c.16 0 .11.126.091.218h-.124c-.341 0-.595.104-.653.356-.05.213.05.347.297.347a.461.461 0 0 0 .369-.173.597.597 0 0 0-.022.145l.383-.004z"/>
        <path fill="#1D1D1B" fill-rule="nonzero" d="M11.605 7.976h-.4c-.01.09-.026.18-.045.268l-.164.774h.394l.089-.417c.036-.199.133-.322.339-.323h.083l.07-.335a.387.387 0 0 0-.397.226l.035-.196-.004.003zM12.07 7.976l-.053.25h.202l-.098.466c-.089.32.065.357.333.357.073 0 .145-.007.216-.02l.05-.235c-.051.003-.102.003-.153 0-.09 0-.046-.135-.04-.163l.088-.413h.23l.053-.25h-.23l.066-.306-.426.144-.033.159-.205.011z"/>
        <path fill="#1D1D1B" d="M14.007 8.576c.083-.388 0-.63-.425-.63a.66.66 0 0 0-.67.516c-.087.409.042.587.459.587a.707.707 0 0 0 .348-.081.505.505 0 0 0 .259-.29h-.365a.22.22 0 0 1-.225.145c-.145 0-.158-.116-.128-.251l.747.004zm-.694-.206c.034-.118.09-.216.227-.221a.117.117 0 0 1 .123.066.24.24 0 0 1 .015.155h-.365z"/>
        <g fill-rule="nonzero">
            <path fill="#4681CF" d="M2.095 2.116h12.198v.516H2.095v-.516zM2.095 3.015h12.198v.516H2.095v-.516zM2.095 3.915h12.198v.515H2.095v-.515zM2.095 4.814h12.198v.515H2.095v-.515zM2.095 5.713h12.198v.516H2.095v-.516z"/>
            <path fill="#E64D61" d="M2.095 9.825h12.198v.516H2.095v-.516zM2.095 10.723h12.198v.516H2.095v-.516zM2.095 11.624h12.198v.514H2.095v-.514zM2.095 12.522h12.198v.515H2.095v-.515zM2.095 13.421h12.198v.515H2.095v-.515z"/>
        </g>
    </g>
</svg>
