<svg xmlns="http://www.w3.org/2000/svg" width="15" height="12" viewBox="0 0 15 12">
    <defs>
        <linearGradient id="a" x1="50%" x2="50%" y1="2.39%" y2="100%">
            <stop offset="0%" stop-color="#FFF"/>
            <stop offset="100%" stop-color="#233A93"/>
        </linearGradient>
        <linearGradient id="b" x1="50%" x2="50%" y1="2.39%" y2="97.726%">
            <stop offset="0%" stop-color="#FFF"/>
            <stop offset="100%" stop-color="#5962AC"/>
        </linearGradient>
    </defs>
    <g fill="none" fill-rule="evenodd">
        <path fill="#1E459F" d="M2.633 0L2.41.278.4 2.788l-.4.497.415.481 6.527 7.562.557.643.555-.643 6.53-7.562.416-.481-.399-.498-2.015-2.51L12.363 0h-9.73zM.971 3.267L2.986.756h9.025l2.017 2.51-6.529 7.563L.971 3.267z"/>
        <path fill="url(#a)" d="M4.237.755l1.63 1.255L7.498.755z"/>
        <path fill="url(#a)" d="M7.497.755L9.132 2.01 10.765.755zM4.237 3.266h3.26L5.867 2.01zM7.497 3.266h3.268L9.132 2.01z"/>
        <path fill="url(#a)" d="M10.763 3.266h3.265L12.393 2.01zM.969 3.266h3.268L2.602 2.01zM5.868 2.01l1.63 1.256L9.131 2.01 7.497.755z"/>
        <path fill="url(#a)" d="M9.132 2.01l1.631 1.256 1.632-1.256L10.763.755zM2.602 2.01l1.631 1.256L5.868 2.01 4.233.755zM6.415 8.155l-1.67-4.889h2.752z"/>
        <path fill="url(#a)" d="M6.415 8.155L2.602 3.266h2.144zM6.417 8.157l1.08 2.672 1.084-2.672-1.084-4.891zM8.581 8.155l1.668-4.889H7.497z"/>
        <path fill="url(#a)" d="M8.581 8.155l3.814-4.889h-2.146zM.969 3.266L4.109 6.9 2.602 3.266z"/>
        <path fill="url(#b)" d="M4.111 6.906l3.386 3.923-1.08-2.672-3.815-4.891z"/>
        <path fill="url(#a)" d="M12.395 3.266l-1.504 3.63 3.133-3.63z"/>
        <path fill="url(#b)" d="M8.581 8.157l-1.084 2.672L10.89 6.9l1.506-3.633z"/>
        <path fill="url(#a)" d="M10.765.755l1.63 1.255.386-.297-.77-.958z"/>
        <path fill="url(#a)" d="M12.395 2.01l1.63 1.254-1.244-1.551zM.969 3.266L2.602 2.01l-.385-.297z"/>
        <path fill="url(#a)" d="M2.984.755l-.767.958.385.297L4.237.755z"/>
    </g>
</svg>
