<svg xmlns="http://www.w3.org/2000/svg" xmlns:xlink="http://www.w3.org/1999/xlink" width="16" height="16" viewBox="0 0 16 16">
    <defs>
        <linearGradient id="c" x1="50%" x2="50%" y1="0%" y2="100%">
            <stop offset="0%" stop-color="#FE6B08"/>
            <stop offset="100%" stop-color="#FC3D09"/>
        </linearGradient>
        <path id="b" d="M1.692 4.128l.64-1.816h.925L1.697 6.15H.723l.446-1.05L.075 2.313h.945l.672 1.815zm3.618.26v-.585c-.121.01-.253.023-.395.04-.141.018-.249.039-.322.062a.444.444 0 0 0-.206.124.312.312 0 0 0-.072.213c0 .059.005.106.015.143.01.037.035.072.075.105a.365.365 0 0 0 .138.074.955.955 0 0 0 .25.024.855.855 0 0 0 .518-.2zm0 .434c-.048.037-.108.081-.18.133a1.31 1.31 0 0 1-.202.122c-.089.04-.18.07-.275.09-.095.018-.2.028-.313.028a.954.954 0 0 1-.67-.248.82.82 0 0 1-.27-.632c0-.205.046-.372.138-.503a.923.923 0 0 1 .39-.307c.166-.075.373-.128.62-.16.246-.032.502-.055.767-.07V3.26c0-.155-.063-.262-.19-.321-.126-.06-.313-.089-.56-.089-.148 0-.306.026-.475.079-.168.052-.289.093-.362.121h-.083v-.677c.095-.026.25-.055.464-.09a4.08 4.08 0 0 1 .644-.05c.511 0 .881.078 1.109.236.227.157.34.404.34.741v1.91H5.31v-.298zm4.013-.592c0 .29-.13.524-.39.701-.26.178-.616.266-1.067.266-.25 0-.477-.023-.68-.07a2.592 2.592 0 0 1-.49-.154v-.74h.082a1.587 1.587 0 0 0 .407.225c.094.038.2.07.318.098.118.028.245.042.38.042.177 0 .308-.02.393-.06.085-.038.127-.096.127-.173 0-.068-.025-.118-.075-.149a.978.978 0 0 0-.285-.088 4.192 4.192 0 0 0-.271-.05 2.915 2.915 0 0 1-.311-.063c-.255-.067-.445-.17-.568-.311a.77.77 0 0 1-.185-.526c0-.27.128-.495.384-.674.256-.18.605-.269 1.049-.269.21 0 .41.021.603.064.193.042.343.088.452.136v.71h-.078a1.832 1.832 0 0 0-.456-.224 1.616 1.616 0 0 0-.519-.086.982.982 0 0 0-.366.06c-.1.04-.149.097-.149.17 0 .067.023.117.068.152.045.036.15.07.317.105.092.019.19.037.296.054.106.018.212.04.32.067.236.061.41.158.524.29.113.133.17.299.17.497zm3.27.89h-.905V3.727c0-.113-.005-.226-.017-.338a.714.714 0 0 0-.06-.249.3.3 0 0 0-.146-.135.683.683 0 0 0-.27-.042.82.82 0 0 0-.248.04c-.084.026-.175.069-.274.127v1.99h-.9V2.312h.9v.31c.16-.125.314-.22.462-.287.147-.067.31-.1.49-.1.304 0 .541.088.712.265.171.177.256.44.256.792V5.12zm1.58 0h-.9V2.312h.9V5.12zm.026-3.208h-.95V1.23h.95v.683z"/>
        <filter id="a" width="124.8%" height="171.1%" x="-8.9%" y="-25.4%" filterUnits="objectBoundingBox">
            <feOffset dx=".5" dy=".5" in="SourceAlpha" result="shadowOffsetOuter1"/>
            <feGaussianBlur in="shadowOffsetOuter1" result="shadowBlurOuter1" stdDeviation=".5"/>
            <feColorMatrix in="shadowBlurOuter1" values="0 0 0 0 0.874509804 0 0 0 0 0.870588235 0 0 0 0 0.870588235 0 0 0 1 0"/>
        </filter>
        <linearGradient id="d" x1="50%" x2="50%" y1="0%" y2="100%">
            <stop offset="0%" stop-color="#FE6208"/>
            <stop offset="100%" stop-color="#FD4609"/>
        </linearGradient>
    </defs>
    <g fill="none" fill-rule="evenodd">
        <g transform="translate(0 5)">
            <use fill="#000" filter="url(#a)" xlink:href="#b"/>
            <use fill="url(#c)" xlink:href="#b"/>
        </g>
        <path fill="url(#d)" d="M15.84 1.44a.617.617 0 0 1-.188.452.617.617 0 0 1-.452.188.617.617 0 0 1-.452-.188.617.617 0 0 1-.188-.452c0-.177.063-.327.188-.452A.617.617 0 0 1 15.2.8c.177 0 .327.063.452.188a.617.617 0 0 1 .188.452zm-.14 0a.488.488 0 0 0-.147-.355.477.477 0 0 0-.352-.148.477.477 0 0 0-.353.148.488.488 0 0 0-.146.355c0 .138.049.256.146.355a.477.477 0 0 0 .353.148c.137 0 .255-.05.352-.148a.488.488 0 0 0 .146-.355zm-.14.303h-.2l-.194-.233h-.064v.233h-.157v-.637h.242c.045 0 .081.002.108.005a.232.232 0 0 1 .081.027c.03.016.05.036.064.06a.17.17 0 0 1 .02.086.169.169 0 0 1-.039.115.26.26 0 0 1-.102.07l.24.274zm-.274-.447a.08.08 0 0 0-.009-.037.063.063 0 0 0-.028-.027.11.11 0 0 0-.043-.013.512.512 0 0 0-.054-.002h-.05v.18h.038a.353.353 0 0 0 .067-.006.105.105 0 0 0 .046-.02.077.077 0 0 0 .025-.03.112.112 0 0 0 .008-.045z" transform="translate(0 5)"/>
    </g>
</svg>
