<?xml version="1.0" encoding="UTF-8"?>
<svg width="145px" height="90px" viewBox="16 105 145 90" version="1.1" xmlns="http://www.w3.org/2000/svg" xmlns:xlink="http://www.w3.org/1999/xlink" style="background: #F7F7F7;">
    <!-- Generator: Sketch 40.3 (33839) - http://www.bohemiancoding.com/sketch -->
    <title>medienbereich/platzhalter asset v2</title>
    <desc>Created with Sketch.</desc>
    <defs>
        <path d="M89,139 C85.0888889,139 81,142.252174 81,147.608696 C81,152.678261 88.1111111,160.426087 88.3777778,160.713043 C88.5555556,160.904348 88.7333333,161 89,161 C89.2666667,161 89.4444444,160.904348 89.6222222,160.713043 C89.8888889,160.426087 97,152.678261 97,147.608696 C97,142.252174 92.9111111,139 89,139 L89,139 Z" id="path-1"></path>
        <filter x="-50%" y="-50%" width="200%" height="200%" filterUnits="objectBoundingBox" id="filter-2">
            <feOffset dx="4" dy="-1" in="SourceAlpha" result="shadowOffsetOuter1"></feOffset>
            <feGaussianBlur stdDeviation="1.5" in="shadowOffsetOuter1" result="shadowBlurOuter1"></feGaussianBlur>
            <feComposite in="shadowBlurOuter1" in2="SourceAlpha" operator="out" result="shadowBlurOuter1"></feComposite>
            <feColorMatrix values="0 0 0 0 0   0 0 0 0 0   0 0 0 0 0  0 0 0 0.15 0" type="matrix" in="shadowBlurOuter1"></feColorMatrix>
        </filter>
        <mask id="mask-3" maskContentUnits="userSpaceOnUse" maskUnits="objectBoundingBox" x="0" y="0" width="16" height="22" fill="white">
            <use xlink:href="#path-1"></use>
        </mask>
    </defs>
    <g id="Symbols" stroke="none" stroke-width="1" fill="none" fill-rule="evenodd">
        <g id="medienbereich/platzhalter-asset-v2">
            <path d="M65.0994846,139.239313 L63.8945592,157.615694 L65.8800383,156.984577 C66.8354186,156.682077 67.8546361,157.208733 68.1578623,158.163388 L72.1650916,170.765413 L86.3492612,166.153182 L81.3670653,150.484799 L84.8244249,149.385785 L89.7986412,165.03168 L105.821029,159.821701 L99.4982542,139.581712 L65.0994846,139.239313 Z" id="Fill-51" fill="#EEECEB"></path>
            <path d="M176.966686,150.902642 L176.966686,105.563789 L157.312837,111.566653 L164.644674,136.113471 L166.374804,135.563601 C166.83182,135.417791 167.329459,135.459866 167.758183,135.68112 C168.185457,135.902373 168.506818,136.283945 168.652628,136.742411 L173.504974,152.003107 L176.966686,150.902642 Z" id="Fill-1" fill="#D6E8C1"></path>
            <path d="M140.094591,87.5577349 C141.921203,88.7046266 143.36987,90.47393 144.072804,92.6850152 C144.837398,95.0905134 144.619771,97.6490756 143.459097,99.8913539 C143.180535,100.430342 142.852644,100.933059 142.485581,101.400231 L149.590361,110.132131 L176.966323,101.770921 L176.966323,71.4388657 L142.086599,82.9005279 L140.094591,87.5577349 Z" id="Fill-4" fill="#EEECEB"></path>
            <path d="M170.048122,153.102628 L165.745646,139.569887 L144.061342,146.46502 C143.602875,146.609379 143.104511,146.56803 142.677963,146.347502 C142.250689,146.126248 141.929328,145.744677 141.782792,145.28621 L137.776289,132.684185 L116.381428,139.640979 L124.799221,167.491367 L170.048122,153.102628 Z" id="Fill-6" fill="#DEDEDE"></path>
            <path d="M76.8058315,96.3777016 C75.5602825,96.3777016 74.3096556,96.5699383 73.0880455,96.9580389 C66.6658876,99.0008263 63.101891,105.887254 65.143953,112.309412 C66.1334281,115.420746 68.2755983,117.960447 71.1751086,119.460619 C74.0738936,120.960791 77.3839926,121.242254 80.4953261,120.253505 C86.1173439,118.466066 89.5485884,112.965919 88.9464884,107.315609 L88.3915408,104.83902 L88.4140289,104.833942 C87.4151233,101.754527 85.2867361,99.2402155 82.4089884,97.7509248 C80.6476646,96.8390698 78.7340023,96.3777016 76.8058315,96.3777016" id="Fill-8" fill="#D6E8C1"></path>
            <path d="M135.063067,89.7256575 C134.479828,89.7256575 133.887883,89.814159 133.303194,89.9998669 C131.821157,90.471391 130.611154,91.4913339 129.896613,92.8725367 C129.34892,93.9323777 129.145077,95.1068354 129.291612,96.2660592 L129.536804,97.3578188 C130.528456,100.387905 133.789226,102.064355 136.831645,101.096642 C139.890748,100.123852 141.58896,96.8434948 140.615444,93.7843917 C139.828361,91.309253 137.531676,89.7256575 135.063067,89.7256575" id="Fill-10" fill="#D6E8C1"></path>
            <path d="M138.390503,128.670354 C138.849695,128.520192 139.349511,128.560816 139.779686,128.781344 C140.209861,129.002598 140.533399,129.384895 140.679934,129.845538 L144.69079,142.458444 L161.187604,137.21292 L153.843435,112.626204 L149.483651,113.958078 C149.308824,114.011034 149.130371,114.037149 148.954093,114.037149 C148.417281,114.037149 147.897154,113.798485 147.546775,113.367585 L139.733259,103.763727 C139.166704,104.084364 138.56533,104.351319 137.930586,104.552986 C136.98246,104.854761 136.019825,104.998395 135.073875,104.998395 C134.380372,104.998395 133.6963,104.916422 133.031088,104.768436 L124.577024,123.868789 L127.255281,132.290934 L138.390503,128.670354 Z" id="Fill-12" fill="#D6E8C1"></path>
            <path d="M123.805248,133.412726 L120.911541,124.312311 C120.778063,123.890841 120.802728,123.433826 120.981907,123.02904 L129.706553,103.317883 C128.476963,102.472041 127.441061,101.333855 126.716365,99.9620825 L105.806086,104.651208 L115.332323,136.167877 L123.805248,133.412726 Z" id="Fill-14" fill="#EEECEB"></path>
            <path d="M58.8580292,135.549818 L83.5346977,135.795011 L79.8314202,124.149817 C78.819457,124.348582 77.8060429,124.45667 76.8020593,124.45667 C70.0824785,124.45667 63.8300693,120.145489 61.6878991,113.409224 C59.0393846,105.080658 63.661046,96.1499917 71.9888866,93.5022027 C74.4792592,92.7100422 77.0675637,92.5504495 79.5688175,92.9987601 L82.0396037,76.7536675 L44.0079225,88.8471719 L58.8580292,135.549818 Z" id="Fill-16" fill="#DEDEDE"></path>
            <polygon id="Fill-18" fill="#D6E8C1" points="21.2053808 136.560911 27.8509686 157.162161 37.1247591 153.729465 30.6097472 133.426364"></polygon>
            <path d="M40.8432705,153.446986 L41.7464205,155.886579 L41.639058,155.925752 L44.1918169,163.881451 L60.1822865,158.796245 L61.4670082,139.203332 L57.5098331,139.163434 C56.7263777,139.156179 56.0365017,138.646208 55.7992888,137.899749 L52.0989129,126.26326 L34.0504221,132.279182 L40.8432705,153.446986 Z" id="Fill-20" fill="#DEDEDE"></path>
            <polygon id="Fill-22" fill="#EEECEB" points="20.4303403 255.58962 27.5474522 262.494183 63.1301099 256.775684 65.143155 252.885248 36.0189263 236.968046"></polygon>
            <polygon id="Fill-24" fill="#EEECEB" points="86.3450538 64.7406123 107.95609 57.8686929 111.691286 41.024402 82.0106594 50.4621378"></polygon>
            <polygon id="Fill-26" fill="#EEECEB" points="85.5829983 67.416185 85.7969977 67.4488289 85.7687063 67.3596021"></polygon>
            <path d="M115.688142,39.753826 L111.27105,59.6731793 C111.131043,60.3042961 110.666048,60.8128167 110.050165,61.0086806 L104.425971,62.7975704 L113.607633,99.1847207 L125.666317,96.4803488 C125.234691,92.1343476 127.879579,87.9181969 132.203817,86.5435229 C132.205268,86.5427975 132.206719,86.5427975 132.207444,86.5427975 L117.178884,39.2794002 L115.688142,39.753826 Z" id="Fill-28" fill="#EEECEB"></path>
            <path d="M66.8103916,249.663505 L73.9006629,235.961741 L63.815851,231.482262 C62.931562,231.089084 62.5115429,230.072043 62.8611961,229.169618 L67.5713589,217.014453 L56.4419398,212.57197 L38.3927236,234.132953 L66.8103916,249.663505 Z" id="Fill-30" fill="#DEDEDE"></path>
            <path d="M103.405738,259.746141 C100.247977,258.679046 97.618324,256.180693 96.5330932,252.767585 C95.8083969,250.490486 95.891095,248.151001 96.6005574,246.042926 L77.2216432,237.436523 L65.5394528,260.012371 L65.5474325,260.061699 L65.510436,260.067503 L62.4818006,265.920205 L81.1164321,273.630711 L101.824319,264.788547 L103.405738,259.746141 Z" id="Fill-32" fill="#EEECEB"></path>
            <polygon id="Fill-34" fill="#DEDEDE" points="176.966686 33.7482052 160.328415 39.0387053 163.624005 49.4028045 176.966686 45.1605387"></polygon>
            <path d="M81.127531,277.411537 C80.891769,277.411537 80.656007,277.365835 80.4340279,277.273706 L60.8091958,269.152611 L51.7232896,286.710717 L55.6949732,297.732773 L100.499916,278.302354 L97.216658,270.69921 L81.8398951,277.265727 C81.6121127,277.362933 81.3698219,277.411537 81.127531,277.411537" id="Fill-37" fill="#EEECEB"></path>
            <path d="M84.0760074,94.5294723 C87.8358678,96.4750532 90.6135073,99.7684675 91.8960528,103.803263 C91.9214426,103.881608 91.9352256,103.960679 91.9584391,104.039025 L110.06714,99.9781144 L100.963098,63.8985428 L86.9878499,68.3417505 L83.0749255,94.0717312 C83.4107957,94.217541 83.7473914,94.3597236 84.0760074,94.5294723" id="Fill-39" fill="#EEECEB"></path>
            <polygon id="Fill-41" fill="#EEECEB" points="118.615509 280.925044 107.988081 286.495557 113.676113 299.669214 122.824405 299.669214 122.524081 290.020381"></polygon>
            <polygon id="Fill-44" fill="#DEDEDE" points="41.1881359 225.143165 52.8964415 211.15631 23.7758399 199.531428 24.5912138 200.089277 15.6387852 213.198372"></polygon>
            <polygon id="Fill-46" fill="#EEECEB" points="149.799645 76.5479379 176.966686 67.6216244 176.966686 48.966681 144.32924 59.3445633"></polygon>
            <path d="M24.6969803,24.2645502 L7.16934224,24.6018713 C6.64703865,24.6105764 6.12546047,24.3871465 5.77363097,23.9874392 L0,17.4332545 L0,56.3572043 L33.4092944,49.2901466 L30.9189219,41.4599452 L23.273703,43.8915586 L22.1746892,40.4349244 L29.3287976,38.1600021 L24.6969803,24.2645502 Z" id="Fill-49" fill="#EEECEB"></path>
            <path d="M102.256888,105.446996 L92.5978983,107.613105 C92.7807046,110.452405 92.2097977,113.297509 90.8684931,115.890166 C89.2036504,119.107411 86.5471562,121.595607 83.2892876,123.053705 L87.3523743,135.833458 L100.853197,135.967661 C101.640279,135.974915 102.331606,136.489239 102.567368,137.240051 L103.44005,140.034375 L111.881782,137.290105 L102.256888,105.446996 Z" id="Fill-53" fill="#EEECEB"></path>
            <polygon id="Fill-55" fill="#EEECEB" points="113.745245 185.18607 106.903068 163.284139 81.3638734 171.588766 96.3663187 218.770191"></polygon>
            <path d="M71.5243266,28.5483827 L58.1707647,32.7942757 L71.4053575,76.3290056 L82.6479423,72.7548531 L83.428496,67.6203186 L78.0204775,49.8032373 C77.7317597,48.8536604 78.2605921,47.8489514 79.206542,47.5479014 L96.8248577,41.9454699 L92.9025028,29.6074984 C92.0697188,29.8062639 91.2333076,29.902745 90.4070523,29.902745 C86.9126962,29.902745 83.6069497,28.194377 81.5779454,25.3514495 L74.9809608,27.4493689 L79.2377351,40.8341239 L75.7803755,41.9338632 L71.5243266,28.5483827 Z" id="Fill-57" fill="#DEDEDE"></path>
            <path d="M32.2629106,176.182644 L4.79772122,188.049817 L44.9099118,204.062774 L52.764052,188.884777 L51.8028683,165.267224 L43.5671563,167.885996 C42.6139522,168.189223 41.5961856,167.664017 41.2907831,166.711539 L38.2338562,157.186027 L28.9651437,160.616546 L33.2697958,173.960677 C33.5563374,174.850044 33.120359,175.811953 32.2629106,176.182644" id="Fill-59" fill="#EEECEB"></path>
            <path d="M92.5848407,25.9357041 C94.4201575,25.3517397 95.9188786,24.0887806 96.8031676,22.3789617 C97.6881821,20.6684174 97.8543036,18.7155823 97.2703392,16.880991 C96.6871002,15.0449488 95.4241411,13.546953 93.7135968,12.6619386 C92.674793,12.1244012 91.5453115,11.8516426 90.4085757,11.8516426 C89.6737236,11.8516426 88.9359698,11.9655338 88.2163515,12.1947671 C84.4274742,13.398967 82.3252022,17.4613283 83.5301276,21.2502056 C84.7336021,25.0376321 88.7937871,27.1406295 92.5848407,25.9357041" id="Fill-61" fill="#D6E8C1"></path>
            <path d="M93.9520429,223.145862 L77.9144209,172.710195 L71.5510221,174.779098 C71.3682159,174.837857 71.1788808,174.867599 70.9902712,174.867599 C70.704455,174.867599 70.4208152,174.800135 70.1618396,174.667383 C69.73239,174.446855 69.4081265,174.064558 69.2615914,173.603915 L65.250735,160.990283 L55.3864513,164.127732 L56.407845,189.217165 C56.4201772,189.531998 56.3512621,189.84538 56.2061778,190.124668 L48.2947292,205.413655 L70.5833096,214.310951 C71.5074968,214.680191 71.9616108,215.724073 71.6018016,216.651162 L66.8676999,228.868713 L89.0895415,238.738075 L86.6789654,237.490349 L94.1319475,223.088553 L93.9520429,223.145862 Z" id="Fill-63" fill="#EEECEB"></path>
            <path d="M117.179174,277.582663 L109.605772,259.95927 C108.747598,260.18415 107.883621,260.301669 107.029074,260.314726 L105.035615,266.670145 C104.876748,267.17649 104.504607,267.587078 104.016398,267.795274 L100.552509,269.275135 L106.545943,283.156078 L117.179174,277.582663 Z" id="Fill-65" fill="#EEECEB"></path>
            <polygon id="Fill-67" fill="#DEDEDE" points="159.839553 259.317924 121.837614 279.235827 125.275387 287.235777 163.515265 270.712848"></polygon>
            <polygon id="Fill-69" fill="#EEECEB" points="101.937557 281.632257 85.622824 288.707295 90.359102 299.669141 109.725684 299.669141"></polygon>
            <path d="M51.2294225,299.669141 L52.3610803,299.178756 L48.0426452,287.195516 C47.8714457,286.720365 47.9062659,286.19516 48.1384008,285.746849 L61.0559843,260.783639 L39.0771589,264.314992 L39.4152054,279.547395 C39.4268122,280.076953 39.2070094,280.585474 38.81238,280.938754 L17.9108058,299.669141 L51.2294225,299.669141 Z" id="Fill-71" fill="#EEECEB"></path>
            <polygon id="Fill-73" fill="#EEECEB" points="82.2952423 290.150376 60.3454338 299.669359 86.4076577 299.669359"></polygon>
            <path d="M35.7706145,278.793682 L35.4615848,264.896054 L27.2244219,266.219949 C27.1286663,266.235183 27.0329106,266.242437 26.9371549,266.242437 C26.469258,266.242437 26.015144,266.061081 25.6741958,265.730289 L19.2962886,259.542442 L10.6434591,269.659173 L27.1584085,286.511443 L35.7706145,278.793682 Z" id="Fill-76" fill="#EEECEB"></path>
            <path d="M9.13051969,246.460696 C9.83345328,246.055911 10.7177423,246.1669 11.298805,246.730553 L17.8203457,253.057681 L38.7792282,228.020478 L25.9073464,222.002379 L17.6919461,233.832556 C17.4054045,234.245321 16.9599956,234.520981 16.4623564,234.593523 L0.000362710829,236.979435 L0.000362710829,251.724356 L9.13051969,246.460696 Z" id="Fill-78" fill="#DEDEDE"></path>
            <polygon id="Fill-80" fill="#EEECEB" points="15.8638835 256.212539 15.4612745 255.875218 15.4859388 255.846201 9.75583316 250.28657 -0.000362710829 255.910764 -0.000362710829 276.52362 16.6879625 257.011954"></polygon>
            <path d="M162.735364,13.4515601 C162.70272,14.0819515 162.345087,14.6492312 161.790865,14.9510067 L134.871918,29.6030733 L138.835622,42.0672682 L176.966686,29.9418452 L176.966686,-0.27414309 L163.445552,-0.27414309 L162.735364,13.4515601 Z" id="Fill-83" fill="#DEDEDE"></path>
            <polygon id="Fill-86" fill="#EEECEB" points="24.4546895 288.933916 8.27706111 272.426221 0 282.104072 0 299.669432 12.4750762 299.669432"></polygon>
            <path d="M155.584737,234.315179 L167.472948,271.167325 C167.759489,272.056691 167.323511,273.018601 166.466062,273.389291 L126.707152,290.568001 L126.708603,290.570903 L126.177594,290.799411 L126.453254,299.669141 L176.966541,299.669141 L176.966541,227.516527 L155.584737,234.315179 Z" id="Fill-89" fill="#DEDEDE"></path>
            <path d="M7.94003021,20.9590214 L25.960955,20.6122698 C26.743685,20.5832529 27.4647541,21.0990277 27.71575,21.8520154 L32.7849966,37.0604805 L39.6315262,34.8834901 L28.4759919,-0.274070548 L0.000290168663,-0.274070548 L0.000290168663,11.9463827 L7.94003021,20.9590214 Z" id="Fill-91" fill="#EEECEB"></path>
            <path d="M176.966686,223.710385 L176.966686,190.046467 L148.768821,199.699653 L150.271894,204.633971 L166.646112,208.594774 C167.261995,208.743485 167.755282,209.203402 167.948244,209.807679 L172.790433,225.038632 L176.966686,223.710385 Z" id="Fill-93" fill="#DEDEDE"></path>
            <path d="M164.800422,211.879918 L148.412421,207.915489 C147.788558,207.764601 147.290919,207.295979 147.10376,206.681547 L143.695004,195.489016 L122.83623,202.121546 L133.862639,237.416937 L169.334307,226.137355 L164.800422,211.879918 Z" id="Fill-96" fill="#DEDEDE"></path>
            <path d="M117.266877,246.499434 C118.034373,249.170436 117.767418,251.985072 116.484873,254.464563 C115.635404,256.106193 114.407265,257.46926 112.914347,258.471793 L120.401424,275.893519 L158.709491,255.815299 L152.128466,235.414265 L117.266877,246.499434 Z" id="Fill-98" fill="#DEDEDE"></path>
            <path d="M22.5737437,220.444029 L12.1697463,215.580076 C11.6880663,215.35447 11.3289826,214.928648 11.1889762,214.415775 C11.0482444,213.902176 11.1403729,213.353032 11.4399721,212.914152 L21.2643576,198.52904 L0.0987298876,190.080054 L7.2542166e-05,190.122854 L7.2542166e-05,233.313734 L15.1621106,231.116432 L22.5737437,220.444029 Z" id="Fill-100" fill="#DEDEDE"></path>
            <polygon id="Fill-102" fill="#DEDEDE" points="139.934491 45.5239024 143.230081 55.8880016 160.167951 50.5017458 156.872361 40.138372"></polygon>
            <path d="M125.476402,22.5170095 L124.565272,35.7283887 C124.513767,36.470495 124.014677,37.1066898 123.305215,37.3315705 L120.635663,38.1803139 L135.884026,86.1357634 C136.161863,86.1604277 136.436072,86.2003259 136.708831,86.2489292 L139.073705,80.7204907 C139.278274,80.240987 139.680158,79.8731982 140.174895,79.7107038 L146.353312,77.6802485 L128.964229,22.9957877 L125.476402,22.5170095 Z" id="Fill-104" fill="#EEECEB"></path>
            <path d="M159.812785,-0.274360716 L127.049116,-0.274360716 L125.726672,18.890554 L130.592075,19.557942 C131.284853,19.6529722 131.861563,20.1382793 132.074112,20.8049418 L133.752737,26.0823844 L159.164983,12.2507696 L159.812785,-0.274360716 Z" id="Fill-106" fill="#DEDEDE"></path>
            <path d="M113.730447,247.299429 C112.526972,243.511277 108.461709,241.408279 104.675734,242.613205 C100.886856,243.81813 98.7845844,247.880491 99.9902352,251.667918 C101.099405,255.159372 104.637286,257.212316 108.149778,256.570317 L108.124388,256.512284 L111.333654,255.133257 C112.125089,254.507218 112.785948,253.720136 113.263275,252.796674 C114.14829,251.086855 114.314411,249.13402 113.730447,247.299429" id="Fill-108" fill="#D6E8C1"></path>
            <path d="M88.8936051,8.3419801 C91.1054158,8.02642168 93.3549483,8.39275962 95.381051,9.44099391 C97.9519454,10.7714172 99.8503739,13.0231261 100.727409,15.7811792 C101.604443,18.5399578 101.354898,21.4750138 100.024475,24.0451827 C99.1380098,25.7586287 97.8358779,27.1644958 96.2530079,28.1771845 L100.281274,40.8466737 L121.031235,34.2489638 L123.412795,-0.274578343 L86.1536875,-0.274578343 L88.8936051,8.3419801 Z" id="Fill-110" fill="#EEECEB"></path>
            <path d="M115.682411,243.197459 L130.405569,238.515588 L115.282704,190.10675 L89.92559,239.108983 L98.3129152,242.834023 C99.61142,241.15975 101.408289,239.846011 103.575849,239.156135 C108.167043,237.697312 113.023016,239.471694 115.682411,243.197459" id="Fill-112" fill="#EEECEB"></path>
            <polygon id="Fill-114" fill="#DEDEDE" points="176.966686 186.213122 176.966686 158.332266 175.920628 155.041753 153.580542 162.145807 157.899703 175.727877 154.443069 176.826891 150.123908 163.244821 138.764531 166.856696 147.711881 196.228293"></polygon>
            <path d="M135.307896,167.956145 L124.145833,171.505633 C123.966654,171.562216 123.780946,171.590507 123.595964,171.590507 C123.304344,171.590507 123.01345,171.520867 122.750847,171.381586 C122.321398,171.15598 122.000761,170.766428 121.859304,170.302158 L112.93154,140.762263 L104.521727,143.497103 L121.754844,198.659616 L142.637557,192.019832 L135.307896,167.956145 Z" id="Fill-117" fill="#D6E8C1"></path>
            <polygon id="Fill-119" fill="#EEECEB" points="25.5601596 161.876458 -7.2542166e-05 171.335957 -7.2542166e-05 186.171555 29.3113149 173.506418"></polygon>
            <path d="M0,91.1479918 L18.958895,99.2545788 L25.589249,83.423702 L19.1837757,63.2772917 L22.6404099,62.1782779 L29.2482758,82.9601575 C29.3788517,83.3700208 29.3592653,83.812528 29.1931438,84.2100591 L22.2943838,100.681483 L39.1524577,107.889998 L45.6043579,105.838506 L40.0019265,88.2180137 C39.8553913,87.7595472 39.8981912,87.261908 40.1194448,86.83536 C40.3399729,86.4080867 40.7215447,86.0859995 41.1800112,85.9401897 L53.0363028,82.1701734 L47.6377148,62.0172343 L35.3701092,54.0905518 C35.0168288,53.862044 34.7535008,53.5181942 34.6258265,53.117036 L34.5141116,52.7637556 L0,60.0651246 L0,91.1479918 Z" id="Fill-122" fill="#EEECEB"></path>
            <path d="M46.7036619,109.294777 L39.6090381,111.550839 C39.4298589,111.607421 39.244151,111.635713 39.0591685,111.635713 C38.8161522,111.635713 38.573136,111.58711 38.346079,111.489903 L0.000290168663,95.0931975 L0.000290168663,139.806012 L51.0003344,122.806481 L46.7036619,109.294777 Z" id="Fill-124" fill="#EEECEB"></path>
            <polygon id="Fill-126" fill="#EEECEB" points="24.4457668 158.421855 17.7639079 137.708165 -0.000217626497 143.629057 -0.000217626497 167.468589"></polygon>
            <path d="M37.8852911,51.3973514 L50.1935204,59.350149 C50.5707397,59.5938907 50.8442236,59.9696591 50.9610165,60.4041867 L56.4959838,81.0699989 L67.9489409,77.4283821 L54.7143482,33.8936522 L49.1851843,35.6520743 L53.4412332,49.0368293 L49.984599,50.1358431 L45.7285501,36.7510881 L34.3757012,40.3607863 L37.8852911,51.3973514 Z" id="Fill-129" fill="#DEDEDE"></path>
            <path d="M66.6404253,26.2951505 L79.9947126,22.0485321 C78.555476,17.0329668 80.9181744,11.7736598 85.4382767,9.44433085 L82.3479804,-0.27414309 L58.8399662,-0.27414309 L66.6404253,26.2951505 Z" id="Fill-131" fill="#EEECEB"></path>
            <polygon id="Fill-133" fill="#EEECEB" points="43.0880878 33.7844037 63.1829931 27.3948898 55.0597214 -0.27414309 32.280756 -0.27414309"></polygon>
            <g id="Shape">
                <use fill="black" fill-opacity="1" filter="url(#filter-2)" xlink:href="#path-1"></use>
                <use stroke="#FFFFFF" mask="url(#mask-3)" stroke-width="4" fill="#FFDC00" fill-rule="evenodd" xlink:href="#path-1"></use>
            </g>
        </g>
    </g>
</svg>
