<svg width="100" height="104" viewBox="0 0 100 104" fill="none" xmlns="http://www.w3.org/2000/svg">
<g filter="url(#filter0_d_2191_1958)">
<path d="M68.9967 99.4436V69.3077H30.773V99.4436C30.773 99.4436 30.4073 101.85 33.5895 99.4436L49.8829 88.385L66.1762 99.4436C69.3625 101.85 68.9927 99.4436 68.9927 99.4436H68.9967Z" fill="#36323C"/>
</g>
<path d="M70.9899 100.835V67.9999H29.0142V100.835C29.0142 100.835 28.6108 103.456 32.107 100.835L50 88.7824L67.893 100.835C71.3892 103.456 70.9858 100.835 70.9858 100.835H70.9899Z" fill="#007A77"/>
<path d="M38.0394 96.724V68.1888L49.8245 67.862H62.0394L62 96.862L50.0394 88.862L38.0394 96.724Z" fill="#00AFA5"/>
<g filter="url(#filter1_d_2191_1958)">
<path d="M15.6258 22.1713L48.2043 3.60198C48.2043 3.60198 50.0372 2.3177 52.0531 3.60198L84.0301 22.0128C84.0301 22.0128 86.302 23.1589 86.0419 26.0282V62.6994C86.0419 62.6994 86.237 64.6014 83.7497 65.8166L53.0773 83.1219C53.0773 83.1219 50.6347 84.9549 47.8223 83.4308L15.5648 65.3817C15.5648 65.3817 13.7766 64.3413 14.0204 61.6914V25.2966C14.0204 25.2966 13.8863 23.2605 15.6258 22.1672V22.1713Z" fill="#36323C"/>
</g>
<path d="M22.124 26.1213L48.5209 11.0797C48.5209 11.0797 50.0043 10.0393 51.6422 11.0797L77.5514 25.9953C77.5514 25.9953 79.3925 26.926 79.1812 29.2466V58.9599C79.1812 58.9599 79.3397 60.5003 77.3238 61.4879L52.4754 75.5052C52.4754 75.5052 50.4961 76.9887 48.2202 75.7572L22.0752 61.1343C22.0752 61.1343 20.6243 60.293 20.8235 58.143V28.6573C20.8235 28.6573 20.7178 27.0073 22.124 26.1213Z" fill="url(#paint0_linear_2191_1958)"/>
<path d="M26.0329 50.9474C26.0329 50.9474 26.0897 50.9168 26.1413 50.9117L27.643 50.8302L27.8598 49.2192C27.865 49.1733 27.8804 49.1325 27.9011 49.1121C27.9166 49.0917 27.9424 49.0764 27.9682 49.0714C27.9991 49.0714 28.0249 49.0815 28.0507 49.1019C28.0766 49.1223 28.1024 49.158 28.123 49.209L28.8249 50.7588L30.3215 50.667C30.3731 50.667 30.4092 50.6721 30.435 50.6874C30.4608 50.7027 30.4815 50.7231 30.4969 50.7537C30.5073 50.7843 30.5124 50.8098 30.5073 50.8404C30.5021 50.871 30.4815 50.9015 30.4453 50.9372L29.3771 51.9772L30.0841 53.5321C30.1099 53.5831 30.1202 53.629 30.115 53.6596C30.1099 53.6902 30.0996 53.7157 30.0789 53.736C30.0583 53.7564 30.0325 53.7666 30.0067 53.7666C29.9757 53.7666 29.9396 53.7513 29.8983 53.7157L28.5359 52.8031L27.4727 53.8533C27.4366 53.889 27.4057 53.9094 27.3799 53.9145C27.3489 53.9145 27.3231 53.9145 27.2973 53.8941C27.2715 53.8788 27.256 53.8533 27.2457 53.8227C27.2354 53.7921 27.2354 53.7462 27.2405 53.7004L27.4727 52.0945L26.1052 51.1921C26.0639 51.1615 26.0329 51.131 26.0174 51.1004C26.0019 51.0698 25.9968 51.0443 26.0019 51.0137C26.0019 50.9831 26.0174 50.9576 26.0432 50.9372L26.0329 50.9474Z" fill="#FFAA6A"/>
<path d="M32.8708 56.5043L32.7469 56.382C32.6437 56.2749 32.6385 56.173 32.7263 56.0914L32.9843 55.8416C33.2165 55.6173 33.1804 55.3981 32.9533 55.1687C32.7263 54.9392 32.5043 54.8985 32.2721 55.1228L32.0708 55.3165C31.8954 55.4847 31.9057 55.6173 31.9986 55.9028L32.2205 56.54C32.365 56.9632 32.4011 57.2843 32.1224 57.5545L31.7199 57.9471C31.2812 58.3702 30.8219 58.2428 30.3213 57.733L30.311 57.7228C29.8104 57.213 29.6866 56.7592 30.1252 56.331L30.4813 55.9843C30.5691 55.8977 30.6723 55.9028 30.7755 56.0098L30.8994 56.1322C31.0026 56.2392 31.0077 56.3412 30.92 56.4228L30.631 56.7032C30.4039 56.9224 30.4246 57.1569 30.6568 57.3914C30.889 57.6259 31.1213 57.6565 31.3483 57.4322L31.5806 57.2079C31.756 57.0396 31.7612 56.8969 31.658 56.6063L31.4412 55.9741C31.2916 55.5153 31.2554 55.2349 31.5341 54.9647L31.9005 54.6079C32.3237 54.2 32.8346 54.3632 33.2888 54.8271L33.2991 54.8373C33.7532 55.2961 33.9081 55.8059 33.4849 56.2137L33.1598 56.5298C33.072 56.6165 32.9688 56.6114 32.8656 56.5043H32.8708Z" fill="#FFAA6A"/>
<path d="M33.3198 60.2361L32.0761 59.2725C31.9574 59.1808 31.9419 59.0788 32.0193 58.987L34.3055 56.1168C34.383 56.02 34.4862 56.0149 34.5997 56.1066L35.828 57.0549C35.9467 57.1466 35.9621 57.2486 35.8847 57.3404L35.8228 57.4168C35.7454 57.5137 35.6422 57.5188 35.5286 57.427L34.6307 56.7286L33.8359 57.7227L34.5687 58.2886C34.6874 58.3804 34.7029 58.4823 34.6255 58.5741L34.5584 58.6557C34.481 58.7525 34.3778 58.7576 34.2643 58.671L33.5314 58.1051L32.7006 59.1451L33.614 59.8537C33.7327 59.9455 33.7482 60.0423 33.6708 60.1392L33.6088 60.2157C33.5314 60.3125 33.4334 60.3176 33.3147 60.2259L33.3198 60.2361Z" fill="#FFAA6A"/>
<path d="M35.9981 61.587L35.9414 61.6788C35.8743 61.7807 35.7762 61.8011 35.6472 61.7247L34.3931 60.9549C34.2641 60.8784 34.2383 60.7815 34.3054 60.6745L36.251 57.5749C36.3129 57.4729 36.4161 57.4525 36.54 57.529L36.7 57.6259C36.8238 57.7023 36.8548 57.7992 36.7877 57.9062L35.0021 60.756L35.9052 61.3117C36.0342 61.3882 36.0601 61.4902 35.993 61.5921L35.9981 61.587Z" fill="#FFAA6A"/>
<path d="M38.3359 62.7494L38.2894 62.8463C38.2378 62.9533 38.1346 62.9839 38.0004 62.9176L36.6793 62.2702C36.5451 62.2039 36.509 62.1122 36.5606 62L38.1966 58.7322C38.2482 58.6251 38.3462 58.5945 38.4856 58.6608L38.6559 58.7424C38.7849 58.8035 38.8262 58.9004 38.7746 59.0126L37.2728 62.0153L38.2224 62.4792C38.3565 62.5455 38.3927 62.6373 38.3359 62.7494V62.7494Z" fill="#FFAA6A"/>
<path d="M43.4968 60.8886L41.5925 64.0953C41.5305 64.2023 41.4273 64.2278 41.3086 64.1819L41.128 64.1157C40.999 64.0698 40.937 63.9882 40.9525 63.871L41.3138 60.9957L39.7294 63.4376C39.6623 63.5345 39.5591 63.56 39.4404 63.5192L39.234 63.4478C39.1101 63.407 39.0482 63.3204 39.0689 63.198L39.6675 59.5274C39.6881 59.3949 39.781 59.3541 39.9307 59.4051L40.0958 59.4663C40.2249 59.5121 40.2765 59.6039 40.2507 59.711L39.6985 62.5812L41.2983 60.078C41.3551 59.9761 41.4583 59.9506 41.5873 59.9965L41.7473 60.0525C41.8711 60.0933 41.9382 60.18 41.9176 60.2972L41.5357 63.2337L42.9549 60.6694C43.0117 60.5725 43.1097 60.5369 43.2387 60.5827L43.3729 60.6286C43.5226 60.6796 43.569 60.7714 43.4968 60.8886V60.8886Z" fill="#FFAA6A"/>
<path d="M44.7766 65.0435L43.2335 64.707C43.089 64.6765 43.0271 64.5898 43.0581 64.4725L43.858 60.9039C43.8838 60.7867 43.9715 60.7357 44.1212 60.7663L45.6436 61.0976C45.7881 61.1282 45.85 61.2149 45.8191 61.3322L45.7984 61.429C45.7726 61.5514 45.6849 61.5973 45.5352 61.5667L44.4205 61.322L44.1418 62.5608L45.0501 62.7596C45.1946 62.7902 45.2566 62.8769 45.2256 62.9941L45.205 63.0961C45.1791 63.2133 45.0914 63.2643 44.9418 63.2337L44.0335 63.0349L43.7445 64.3298L44.8798 64.5796C45.0243 64.6102 45.0863 64.6918 45.0553 64.8141L45.0346 64.911C45.0088 65.0282 44.9211 65.0792 44.7714 65.0486L44.7766 65.0435Z" fill="#FFAA6A"/>
<path d="M48.0227 65.4768L47.8318 65.4564C47.7027 65.4411 47.6253 65.3851 47.5995 65.2729L47.1712 63.718H47.166L46.619 63.6568L46.4538 65.1098C46.4384 65.2321 46.3506 65.2882 46.2113 65.2729L46.0203 65.2525C45.8707 65.2372 45.8036 65.1608 45.8191 65.0384L46.2319 61.4035C46.2474 61.2812 46.33 61.2251 46.4745 61.2404L47.4344 61.3474C48.1517 61.429 48.5543 61.7349 48.4872 62.3263L48.4098 62.9992C48.3633 63.4019 48.1311 63.6212 47.7698 63.7027L48.2343 65.2831C48.2653 65.4157 48.1827 65.4972 48.0175 65.4819L48.0227 65.4768ZM46.6758 63.1827L47.197 63.2439C47.5479 63.2847 47.7544 63.1827 47.7905 62.831L47.8421 62.3619C47.8834 62.0051 47.7079 61.8674 47.357 61.8266L46.8357 61.7655L46.6758 63.1878V63.1827Z" fill="#FFAA6A"/>
<path d="M51.3414 65.5533H51.1504C51.0214 65.5533 50.9389 65.5023 50.8976 65.3902L50.206 63.611L49.7467 64.2941L49.7312 65.3341C49.7312 65.4564 49.6487 65.5227 49.5042 65.5227H49.3132C49.1636 65.5227 49.0913 65.4462 49.0913 65.329L49.1378 61.6788C49.1378 61.5564 49.2152 61.4902 49.3648 61.4902H49.5558C49.7003 61.4902 49.7777 61.5666 49.7777 61.6839L49.757 63.4325L50.7944 61.6482C50.846 61.5513 50.9337 61.5055 51.0575 61.5055H51.2795C51.4549 61.5055 51.522 61.6074 51.4394 61.7349L50.5931 63.0145L51.5323 65.3239C51.5788 65.4513 51.5014 65.5431 51.3362 65.538L51.3414 65.5533Z" fill="#FFAA6A"/>
<path d="M54.8349 61.2965L54.8504 61.3933C54.8659 61.5208 54.804 61.5922 54.6543 61.6126L54.0556 61.6941L54.5253 65.0333C54.5408 65.1557 54.4737 65.2322 54.3292 65.2526L54.1382 65.278C53.9989 65.2984 53.906 65.2373 53.8905 65.12L53.426 61.7808L52.8274 61.8624C52.688 61.8828 52.5952 61.8318 52.5797 61.7043L52.5642 61.6075C52.5487 61.4851 52.6158 61.4086 52.7603 61.3882L54.5924 61.1384C54.742 61.118 54.8246 61.1741 54.8401 61.2965H54.8349Z" fill="#FFAA6A"/>
<path d="M58.205 64.4725L58.0192 64.5133C57.8953 64.5439 57.8024 64.5133 57.7405 64.4215L56.8064 63.1011H56.8012L56.2645 63.2286L56.6051 64.656C56.6361 64.7733 56.569 64.86 56.4297 64.8906L56.2439 64.9313C56.0994 64.967 56.0116 64.916 55.9807 64.7988L55.124 61.2404C55.093 61.1231 55.155 61.0364 55.2995 61.0059L56.2387 60.7866C56.9406 60.6235 57.4257 60.7764 57.565 61.3525L57.725 62.0102C57.8179 62.4027 57.6786 62.6933 57.3638 62.8921L58.3391 64.2227C58.4165 64.3349 58.3649 64.4419 58.205 64.4776V64.4725ZM56.151 62.7647L56.6619 62.6474C57.0077 62.5659 57.1625 62.4027 57.0799 62.0561L56.9664 61.5972C56.8838 61.2506 56.6671 61.1741 56.3264 61.2557L55.8155 61.378L56.151 62.7698V62.7647Z" fill="#FFAA6A"/>
<path d="M60.1195 59.7874L61.1413 62.6525C61.3478 63.2235 61.033 63.5956 60.3517 63.8353L60.3259 63.8454C59.6447 64.0851 59.1699 63.9933 58.9635 63.4172L57.9417 60.5521C57.9004 60.44 57.9468 60.3482 58.0913 60.2972L58.272 60.236C58.4062 60.1902 58.5094 60.2258 58.5507 60.3431L59.5415 63.1113C59.6602 63.4478 59.8563 63.509 60.1866 63.3917C60.5169 63.2745 60.6356 63.1062 60.5117 62.7698L59.5209 60.0015C59.4796 59.8894 59.5312 59.7976 59.6705 59.7466L59.8512 59.6855C59.9905 59.6345 60.0834 59.6753 60.1247 59.7925L60.1195 59.7874Z" fill="#FFAA6A"/>
<path d="M62.9631 59.8384L62.8031 59.9149C62.6689 59.9812 62.5708 59.9455 62.5192 59.8384L62.3644 59.5173C62.2251 59.2267 62.0032 59.191 61.709 59.3286C61.4148 59.4663 61.3013 59.66 61.4458 59.9506L61.5697 60.2004C61.6729 60.4196 61.8071 60.4553 62.1064 60.4553H62.7928C63.2469 60.4553 63.5669 60.5216 63.7372 60.8682L63.9797 61.3729C64.2429 61.9184 63.9746 62.311 63.3243 62.6169H63.314C62.6637 62.9278 62.1889 62.8972 61.9206 62.3467L61.7038 61.898C61.6522 61.7859 61.6884 61.6941 61.8225 61.6329L61.9825 61.5565C62.1167 61.4902 62.2148 61.5259 62.2664 61.6329L62.4418 61.9949C62.5812 62.2804 62.8082 62.3314 63.1076 62.1886C63.4069 62.0459 63.5101 61.8369 63.3708 61.5514L63.2314 61.2659C63.123 61.0467 62.9889 60.9957 62.6792 60.9957H61.998C61.5129 60.9906 61.2291 60.9345 61.0587 60.5827L60.8368 60.1239C60.584 59.5988 60.9039 59.1706 61.4922 58.8953H61.5026C62.0909 58.6098 62.6328 58.6302 62.8856 59.1553L63.0818 59.558C63.1334 59.6702 63.0972 59.762 62.9631 59.8231V59.8384Z" fill="#FFAA6A"/>
<path d="M64.7487 57.376L64.8003 57.4576C64.8674 57.5647 64.8364 57.6564 64.7074 57.7329L64.1913 58.0439L65.9563 60.9192C66.0182 61.0211 65.9872 61.1231 65.8634 61.1944L65.7034 61.2913C65.5796 61.3627 65.4763 61.3474 65.4092 61.2454L63.6443 58.3701L63.1282 58.6811C63.0043 58.7525 62.9011 58.7423 62.834 58.6352L62.7824 58.5537C62.7205 58.4517 62.7515 58.3497 62.8753 58.2784L64.4545 57.3301C64.5835 57.2537 64.6816 57.2741 64.7435 57.376H64.7487Z" fill="#FFAA6A"/>
<path d="M68.7898 59.1859L67.5306 60.129C67.4119 60.2157 67.3087 60.2055 67.2364 60.1137L65.007 57.2079C64.9347 57.111 64.9502 57.0141 65.0689 56.9224L66.3126 55.9945C66.4313 55.9079 66.5346 55.9181 66.6068 56.0098L66.6687 56.0863C66.7461 56.1883 66.7255 56.28 66.6068 56.3718L65.6934 57.0549L66.4675 58.0643L67.2106 57.5087C67.3293 57.422 67.4325 57.4322 67.5048 57.524L67.5667 57.6055C67.639 57.7024 67.6235 57.7992 67.5048 57.891L66.7616 58.4467L67.5719 59.502L68.5008 58.8087C68.6195 58.722 68.7176 58.7271 68.795 58.8239L68.8569 58.9004C68.9291 58.9973 68.9137 59.0941 68.795 59.1859H68.7898Z" fill="#FFAA6A"/>
<path d="M69.0372 54.5977L70.699 56.2494C71.1221 56.6726 70.9983 57.1569 70.4822 57.6616L69.8062 58.3243C69.6978 58.4263 69.5997 58.4314 69.512 58.3447L66.9058 55.7549C66.8181 55.6682 66.8233 55.5663 66.9316 55.4643L67.6077 54.8016C68.1186 54.302 68.614 54.1796 69.0372 54.6028V54.5977ZM67.9276 55.1533L67.5664 55.5102L69.7597 57.6922L70.121 57.3353C70.3738 57.0906 70.4203 56.8714 70.1674 56.6165L68.6553 55.1126C68.4024 54.8577 68.1805 54.9086 67.9276 55.1533Z" fill="#FFAA6A"/>
<path d="M73.5738 53.8584C73.5428 53.8584 73.5118 53.8329 73.4757 53.7972L72.4281 52.7318L71.0553 53.6239C71.0141 53.6494 70.9779 53.6647 70.947 53.6647C70.916 53.6647 70.8902 53.6596 70.8695 53.6392C70.8541 53.6137 70.8386 53.5882 70.8386 53.5576C70.8386 53.5271 70.8489 53.4812 70.8747 53.4302L71.5972 51.8855L70.5444 50.8353C70.5135 50.7996 70.4928 50.7639 70.4825 50.7333C70.4773 50.7027 70.4825 50.6722 70.4928 50.6467C70.5083 50.6212 70.5238 50.5957 70.5547 50.5804C70.5805 50.5651 70.6218 50.56 70.6683 50.5651L72.1597 50.6773L72.8822 49.1325C72.908 49.0816 72.9338 49.0459 72.9596 49.0255C72.9854 49.0051 73.0113 49 73.0422 49C73.0732 49 73.0938 49.0153 73.1145 49.0357C73.1299 49.0612 73.1454 49.0969 73.1506 49.1478L73.3519 50.7588L74.8536 50.8608C74.9052 50.8608 74.9414 50.871 74.962 50.8914C74.9827 50.9067 74.9981 50.9373 74.9981 50.9678C75.0033 50.9984 74.9981 51.0239 74.9775 51.0545C74.962 51.0851 74.931 51.1106 74.8898 51.1412L73.5118 52.0231L73.7183 53.6341C73.7183 53.6851 73.7183 53.731 73.708 53.7616C73.6976 53.7921 73.677 53.8176 73.6563 53.8278C73.6305 53.8431 73.5996 53.8533 73.5738 53.8482V53.8584Z" fill="#FFAA6A"/>
<g clip-path="url(#clip0_2191_1958)">
<g filter="url(#filter2_dd_2191_1958)">
<path d="M66.1742 33.9216L54.8376 32.882L50.3344 22.543C50.019 21.819 48.9809 21.819 48.6657 22.543L44.1624 32.8819L32.8258 33.9216C32.032 33.9943 31.7112 34.9705 32.3101 35.4907L40.8636 42.9201L38.3604 53.9016C38.1851 54.6706 39.025 55.2738 39.7105 54.8715L49.5 49.1241L59.2896 54.8715C59.9751 55.2739 60.8148 54.6706 60.6396 53.9016L58.1363 42.9201L66.6899 35.4907C67.2888 34.9705 66.968 33.9943 66.1742 33.9216Z" fill="url(#paint1_linear_2191_1958)"/>
</g>
<g style="mix-blend-mode:screen">
<path d="M63.3158 34.754L53.9226 33.9034L50.1913 25.4442C49.9301 24.8519 49.0699 24.8519 48.8087 25.4442L45.0774 33.9034L35.6842 34.754C35.0265 34.8135 34.7607 35.6122 35.2569 36.0379L42.3441 42.1165L40.27 51.1013C40.1248 51.7305 40.8207 52.2241 41.3887 51.8948L49.5 47.1925L57.6114 51.8948C58.1793 52.2241 58.8752 51.7305 58.73 51.1013L56.6558 42.1165L63.7431 36.0379C64.2393 35.6122 63.9735 34.8135 63.3158 34.754Z" fill="url(#paint2_linear_2191_1958)" fill-opacity="0.3"/>
</g>
</g>
<path d="M50.0005 81.0733C51.6424 81.118 52.8332 80.232 52.8332 80.232L81.2826 64.1825C82.2498 63.707 82.7782 63.1218 83.0667 62.6016L76.2267 58.6512C75.9991 59.0657 75.5805 59.529 74.8124 59.903L52.248 72.632C52.248 72.632 51.3051 73.3351 50.0005 73.2985V81.0692V81.0733Z" fill="#E57F33"/>
<path d="M50.0292 5.89008C49.0335 5.92665 48.3304 6.41436 48.3304 6.41436L18.0684 23.6668C17.6701 23.9148 17.3775 24.2196 17.1621 24.5366L23.9615 28.4626C24.1322 28.2147 24.3639 27.9708 24.6809 27.7757L48.684 14.0957C48.684 14.0957 49.2408 13.7096 50.0292 13.6771V5.89008Z" fill="#BF5F18"/>
<path d="M23.8149 58.5984C23.5954 58.1717 23.441 57.5946 23.5101 56.8346V30.0678C23.5101 30.0678 23.4532 29.2184 23.9734 28.4544L17.1821 24.5324C16.5237 25.4956 16.5928 26.5686 16.5928 26.5686V60.3217C16.5115 61.2808 16.7066 62.0083 16.983 62.5448L23.8149 58.6025V58.5984Z" fill="#E57F33"/>
<path d="M75.9787 28.4706L82.7496 24.5609C82.2131 23.8212 81.5669 23.492 81.5669 23.492L51.9065 6.41428C51.2359 5.98754 50.5856 5.86967 50.0288 5.89V13.6607C50.4718 13.6445 50.9839 13.7379 51.5163 14.0753L75.0398 27.6212C75.0398 27.6212 75.5519 27.8813 75.9787 28.4706Z" fill="#772B00"/>
<path d="M82.721 24.5486C83.1518 25.1461 83.5135 26.0158 83.4079 27.2025V61.2198C83.4079 61.2198 83.4648 61.8132 83.0665 62.5325L76.2264 58.5821C76.5434 58.0132 76.4947 57.5417 76.4947 57.5417V30.5596C76.576 29.6695 76.2955 28.942 75.9785 28.4706L82.721 24.5446V24.5486Z" fill="#FCA760"/>
<path d="M23.8148 58.6431C24.1562 59.3097 24.648 59.5982 24.648 59.5982L48.3828 72.8759C48.9559 73.1848 49.5045 73.3027 50.0004 73.3148V81.0856C49.3704 81.0693 48.6795 80.923 47.9602 80.5328L18.0315 63.7884C18.0315 63.7884 17.4137 63.4267 16.9829 62.5854L23.8148 58.6431Z" fill="#F9924D"/>
<path d="M50.0005 84.8245C51.8091 84.8733 53.1177 83.8979 53.1177 83.8979L84.4526 66.2227C85.5215 65.7025 86.0986 65.0563 86.4156 64.4833L78.8806 60.1346C78.6286 60.5898 78.1694 61.1019 77.324 61.5123L52.4756 75.5297C52.4756 75.5297 51.4392 76.3019 50.0005 76.2654V84.8245V84.8245Z" fill="#772B00"/>
<path d="M50.0331 2.02496C48.9357 2.06561 48.1635 2.60208 48.1635 2.60208L14.8331 21.6022C14.3942 21.8785 14.0731 22.2118 13.8374 22.5572L21.3277 26.8815C21.5147 26.6052 21.7707 26.341 22.1162 26.1215L48.5496 11.0556C48.5496 11.0556 49.1633 10.6289 50.0331 10.5963V2.02496Z" fill="url(#paint3_linear_2191_1958)"/>
<path d="M21.1609 60.0737C20.9211 59.6063 20.7464 58.9683 20.8236 58.1351V28.6494C20.8236 28.6494 20.7626 27.7106 21.3357 26.8734L13.8576 22.5572C13.1342 23.6179 13.2073 24.7966 13.2073 24.7966V61.9717C13.1138 63.0284 13.3333 63.829 13.6381 64.4183L21.1609 60.0737Z" fill="url(#paint4_linear_2191_1958)"/>
<path d="M78.6122 26.8936L86.07 22.5896C85.4807 21.7727 84.7695 21.411 84.7695 21.411L52.0975 2.60195C51.3578 2.1305 50.6425 2.00045 50.0288 2.02484V10.584C50.5165 10.5637 51.0814 10.6694 51.6667 11.0433L77.5759 25.9588C77.5759 25.9588 78.1408 26.2474 78.6082 26.8936" fill="url(#paint5_linear_2191_1958)"/>
<path d="M86.0376 22.5734C86.5131 23.2318 86.9114 24.1869 86.7935 25.4956V62.9592C86.7935 62.9592 86.8585 63.6136 86.4196 64.4061L78.8846 60.0574C79.2341 59.4315 79.1813 58.9113 79.1813 58.9113V29.194C79.2707 28.2145 78.9618 27.4138 78.6123 26.8936L86.0376 22.5693V22.5734Z" fill="#B74F00"/>
<path d="M21.161 60.1226C21.539 60.8582 22.0754 61.1711 22.0754 61.1711L48.2163 75.7941C48.8463 76.1355 49.4518 76.2655 50.0005 76.2777V84.8369C49.3096 84.8206 48.5455 84.6581 47.753 84.2273L14.7924 65.7921C14.7924 65.7921 14.1096 65.3938 13.6382 64.4672L21.161 60.1226V60.1226Z" fill="url(#paint6_linear_2191_1958)"/>
<defs>
<filter id="filter0_d_2191_1958" x="29.9055" y="68.4529" width="41.6647" height="34.6245" filterUnits="userSpaceOnUse" color-interpolation-filters="sRGB">
<feFlood flood-opacity="0" result="BackgroundImageFix"/>
<feColorMatrix in="SourceAlpha" type="matrix" values="0 0 0 0 0 0 0 0 0 0 0 0 0 0 0 0 0 0 127 0" result="hardAlpha"/>
<feOffset dx="0.854783" dy="0.854783"/>
<feGaussianBlur stdDeviation="0.854783"/>
<feColorMatrix type="matrix" values="0 0 0 0 0 0 0 0 0 0 0 0 0 0 0 0 0 0 0.6 0"/>
<feBlend mode="normal" in2="BackgroundImageFix" result="effect1_dropShadow_2191_1958"/>
<feBlend mode="normal" in="SourceGraphic" in2="effect1_dropShadow_2191_1958" result="shape"/>
</filter>
<filter id="filter1_d_2191_1958" x="11.8606" y="0.894232" width="78.9032" height="87.8435" filterUnits="userSpaceOnUse" color-interpolation-filters="sRGB">
<feFlood flood-opacity="0" result="BackgroundImageFix"/>
<feColorMatrix in="SourceAlpha" type="matrix" values="0 0 0 0 0 0 0 0 0 0 0 0 0 0 0 0 0 0 127 0" result="hardAlpha"/>
<feOffset dx="1.28217" dy="1.28217"/>
<feGaussianBlur stdDeviation="1.70957"/>
<feColorMatrix type="matrix" values="0 0 0 0 0 0 0 0 0 0 0 0 0 0 0 0 0 0 0.6 0"/>
<feBlend mode="normal" in2="BackgroundImageFix" result="effect1_dropShadow_2191_1958"/>
<feBlend mode="normal" in="SourceGraphic" in2="effect1_dropShadow_2191_1958" result="shape"/>
</filter>
<filter id="filter2_dd_2191_1958" x="31" y="21" width="39" height="37" filterUnits="userSpaceOnUse" color-interpolation-filters="sRGB">
<feFlood flood-opacity="0" result="BackgroundImageFix"/>
<feColorMatrix in="SourceAlpha" type="matrix" values="0 0 0 0 0 0 0 0 0 0 0 0 0 0 0 0 0 0 127 0" result="hardAlpha"/>
<feOffset dx="1" dy="1"/>
<feGaussianBlur stdDeviation="0.5"/>
<feColorMatrix type="matrix" values="0 0 0 0 0.466667 0 0 0 0 0.168627 0 0 0 0 0 0 0 0 0.14 0"/>
<feBlend mode="normal" in2="BackgroundImageFix" result="effect1_dropShadow_2191_1958"/>
<feColorMatrix in="SourceAlpha" type="matrix" values="0 0 0 0 0 0 0 0 0 0 0 0 0 0 0 0 0 0 127 0" result="hardAlpha"/>
<feOffset dx="1" dy="1"/>
<feGaussianBlur stdDeviation="1"/>
<feColorMatrix type="matrix" values="0 0 0 0 0.466667 0 0 0 0 0.168627 0 0 0 0 0 0 0 0 0.8 0"/>
<feBlend mode="normal" in2="effect1_dropShadow_2191_1958" result="effect2_dropShadow_2191_1958"/>
<feBlend mode="normal" in="SourceGraphic" in2="effect2_dropShadow_2191_1958" result="shape"/>
</filter>
<linearGradient id="paint0_linear_2191_1958" x1="70.2115" y1="63.9182" x2="31.5814" y2="25.2881" gradientUnits="userSpaceOnUse">
<stop stop-color="#A54C20"/>
<stop offset="0.21" stop-color="#AC501D"/>
<stop offset="0.52" stop-color="#C15D15"/>
<stop offset="0.59" stop-color="#C76113"/>
<stop offset="0.98" stop-color="#DC752B"/>
</linearGradient>
<linearGradient id="paint1_linear_2191_1958" x1="41.7102" y1="26.7364" x2="59.2406" y2="52.7776" gradientUnits="userSpaceOnUse">
<stop stop-color="#FFA25D"/>
<stop offset="0.229167" stop-color="#FFA562" stop-opacity="0.999062"/>
<stop offset="0.34375" stop-color="#FFDDC1" stop-opacity="0.979167"/>
<stop offset="0.494792" stop-color="#FDA05A" stop-opacity="0.979167"/>
<stop offset="1" stop-color="#DB762B" stop-opacity="0.979167"/>
</linearGradient>
<linearGradient id="paint2_linear_2191_1958" x1="43.0456" y1="28.8752" x2="57.3197" y2="50.3486" gradientUnits="userSpaceOnUse">
<stop stop-color="#FFA25D"/>
<stop offset="0.229167" stop-color="#FFA562" stop-opacity="0.999062"/>
<stop offset="0.34375" stop-color="#FFDDC1" stop-opacity="0.979167"/>
<stop offset="0.494792" stop-color="#FDA05A" stop-opacity="0.979167"/>
<stop offset="1" stop-color="#DB762B" stop-opacity="0.979167"/>
</linearGradient>
<linearGradient id="paint3_linear_2191_1958" x1="30.2567" y1="10.6167" x2="40.5107" y2="20.8706" gradientUnits="userSpaceOnUse">
<stop offset="0.38" stop-color="#FFB984"/>
<stop offset="0.47" stop-color="#FFBF8E"/>
<stop offset="0.62" stop-color="#FFD0AC"/>
<stop offset="0.79" stop-color="#FFEAD7"/>
</linearGradient>
<linearGradient id="paint4_linear_2191_1958" x1="8.60665" y1="30.8116" x2="24.8187" y2="57.9034" gradientUnits="userSpaceOnUse">
<stop stop-color="#FFA867"/>
<stop offset="0.09" stop-color="#FFAA6B"/>
<stop offset="0.19" stop-color="#FFB177"/>
<stop offset="0.29" stop-color="#FFBE8C"/>
<stop offset="0.39" stop-color="#FFCFAA"/>
<stop offset="0.49" stop-color="#FFE5CF"/>
<stop offset="0.54" stop-color="#FFDCBF"/>
<stop offset="0.59" stop-color="#FFCAA1"/>
<stop offset="0.64" stop-color="#FFBB88"/>
<stop offset="0.7" stop-color="#FFB074"/>
<stop offset="0.76" stop-color="#FFA867"/>
<stop offset="0.85" stop-color="#FFA35F"/>
<stop offset="1" stop-color="#FFA25D"/>
</linearGradient>
<linearGradient id="paint5_linear_2191_1958" x1="76.8646" y1="31.2992" x2="55.6008" y2="-4.18931" gradientUnits="userSpaceOnUse">
<stop stop-color="#FFA25D"/>
<stop offset="0.11" stop-color="#FFA461"/>
<stop offset="0.22" stop-color="#FFAB6D"/>
<stop offset="0.33" stop-color="#FFB781"/>
<stop offset="0.44" stop-color="#FFC89D"/>
<stop offset="0.54" stop-color="#FFDDC1"/>
<stop offset="0.69" stop-color="#FFD0AC"/>
<stop offset="0.78" stop-color="#FFBC89"/>
<stop offset="0.86" stop-color="#FFAD71"/>
<stop offset="0.94" stop-color="#FFA562"/>
<stop offset="1" stop-color="#FFA25D"/>
</linearGradient>
<linearGradient id="paint6_linear_2191_1958" x1="17.6902" y1="63.5405" x2="48.452" y2="79.3868" gradientUnits="userSpaceOnUse">
<stop stop-color="#A54C1F"/>
<stop offset="0.1" stop-color="#B85718"/>
<stop offset="0.2" stop-color="#C35E14"/>
<stop offset="0.31" stop-color="#C76113"/>
<stop offset="0.98" stop-color="#DC752B"/>
</linearGradient>
<clipPath id="clip0_2191_1958">
<rect width="39" height="37" fill="white" transform="translate(30 21)"/>
</clipPath>
</defs>
</svg>
