<svg width="23" height="23" viewBox="0 0 23 23" xmlns="http://www.w3.org/2000/svg" xmlns:xlink="http://www.w3.org/1999/xlink"><defs><path id="a" d="M0 13h924v326H0z"/><mask id="c" x="0" y="0" width="924" height="326" fill="#fff"><use xlink:href="#a"/></mask><path id="b" d="M0 13h308v267H0z"/><mask id="d" x="0" y="0" width="308" height="267" fill="#fff"><use xlink:href="#b"/></mask></defs><g fill="none" fill-rule="evenodd"><use mask="url(#c)" xlink:href="#a" transform="translate(-51 -106)" stroke="gray" stroke-width="2"/><use mask="url(#d)" xlink:href="#b" transform="translate(-31 -74)" stroke="gray" stroke-width="4"/><path d="M8.216 20c-.42 0-.842-.16-1.164-.476L.481 13.01a1.62 1.62 0 0 1 0-2.304 1.654 1.654 0 0 1 2.323 0l5.412 5.363L20.196 4.19a1.654 1.654 0 0 1 2.323 0 1.62 1.62 0 0 1 0 2.303L9.376 19.524c-.32.316-.74.476-1.16.476z" fill="#000"/></g></svg>