<svg xmlns="http://www.w3.org/2000/svg" xmlns:xlink="http://www.w3.org/1999/xlink" width="40" height="30" viewBox="0 0 40 30">
    <defs>
        <path id="prefix__a" d="M0.005 0.474L19.697 0.474 19.697 6.715 0.005 6.715z"/>
        <path id="prefix__c" d="M0 0.086L13.643 0.086 13.643 7.93 0 7.93z"/>
    </defs>
    <g fill="none" fill-rule="evenodd">
        <rect width="39" height="29" x=".5" y=".5" stroke="#1E1E1E" rx="3"/>
        <g>
            <path fill="#00923A" d="M6.783 11.64c-.212-.665.157-1.38.824-1.593.668-.212 1.382.156 1.594.824.212.668-.157 1.383-.824 1.593-.668.216-1.382-.154-1.594-.824M4.067 11.706c-.153-.482.113-.994.592-1.146.48-.153.992.113 1.145.591.153.479-.112.992-.592 1.148-.48.151-.993-.114-1.145-.593M1.967 10.595c-.123-.385.09-.798.475-.92.385-.123.797.093.92.478.122.383-.09.794-.477.918-.384.124-.795-.091-.918-.476" transform="translate(3 9)"/>
            <g transform="translate(3 9) translate(14 .526)">
                <mask id="prefix__b" fill="#fff">
                    <use xlink:href="#prefix__a"/>
                </mask>
                <path fill="#004D85" d="M10.186 4c.046-.228.127-.41.242-.549.208-.24.48-.36.823-.36.357 0 .642.12.86.36.126.139.208.32.246.55h-2.171zm7.066-1.764h-1.378l-1.21 1.66v-3.2h-1.193v2.968c-.085-.284-.222-.538-.41-.766-.448-.542-1.055-.813-1.822-.813-.452 0-.856.1-1.207.301-.17.095-.316.212-.448.345v-.51H8.226c-.252.023-.478.087-.678.19-.17.084-.324.212-.465.38-.146.167-.216.4-.216.696v3.072H8.06V3.632c.02-.068.056-.13.106-.188.045-.046.11-.087.192-.127.08-.04.186-.06.314-.06h.54c-.174.349-.26.728-.26 1.135 0 .648.195 1.175.583 1.588.463.49 1.055.734 1.774.734.536 0 1.02-.166 1.45-.5.266-.209.482-.483.653-.82l-1.09-.301c-.073.144-.177.26-.307.346-.213.143-.441.216-.692.216-.36 0-.652-.131-.877-.393-.132-.15-.216-.343-.257-.58h3.28v1.881h1.195V4.77l1.207 1.795h1.38L15.775 4.31l1.477-2.075zm1.305.977V5.29c0 .11.027.181.079.22.059.038.146.058.26.058h.8v.996h-1.545c-.277 0-.482-.07-.616-.207-.114-.118-.17-.324-.17-.62V.681h1.192v1.532h1.14v1h-1.14zm-13.32 3.35H6.43V2.237H5.238v4.328zM3.32 5.317c-.225.293-.517.44-.878.44-.318 0-.588-.117-.814-.349-.238-.24-.358-.561-.358-.963 0-.319.08-.596.233-.837.226-.348.543-.522.949-.522.334 0 .608.128.826.385.218.253.324.575.324.966 0 .34-.094.635-.282.88zM3.602.473v2.243c-.212-.226-.425-.382-.63-.472-.256-.106-.523-.159-.801-.159-.554 0-1.046.199-1.471.595-.464.428-.695 1.015-.695 1.759 0 .652.179 1.181.535 1.588.402.457.938.688 1.61.688.35 0 .664-.074.933-.223.174-.095.348-.26.519-.494v.566h1.194V.474H3.602zm1.636 1.55H6.43V1.11H5.238v.911z" mask="url(#prefix__b)"/>
            </g>
            <g transform="translate(3 9) translate(0 2.526)">
                <mask id="prefix__d" fill="#fff">
                    <use xlink:href="#prefix__c"/>
                </mask>
                <path fill="#00923A" d="M10.737 7.886c.483-.153.75-.668.597-1.152-.154-.485-.672-.752-1.154-.596-.483.153-.75.668-.597 1.153.155.485.67.75 1.154.595zM7.835 3.308c-.236.298-.533.448-.892.448-.3 0-.554-.11-.768-.325-.253-.252-.38-.586-.38-.995 0-.345.094-.648.28-.905.21-.29.502-.435.877-.435.387 0 .692.142.914.429.183.238.275.529.275.873s-.103.648-.306.91zM3.3 3.267c-.223.326-.541.489-.955.489-.336 0-.611-.116-.828-.348-.216-.232-.324-.55-.324-.955 0-.34.078-.63.233-.86.229-.338.547-.507.955-.507.332 0 .608.123.828.37.219.246.329.576.329.988 0 .317-.08.59-.238.823zm9.077-3.03L11.366 2.81 10.488.237H8.122v.547C7.948.58 7.78.43 7.619.332 7.352.17 7.047.09 6.705.09c-.411 0-.781.1-1.111.302-.325.195-.577.458-.754.79-.064.12-.118.244-.163.37C4.526 1.096 4.24.727 3.82.447 3.465.206 3.064.086 2.619.086c-.375 0-.696.08-.964.24-.16.096-.313.244-.462.445V.237H0v6.046h1.193v-2.19c.359.414.842.622 1.449.622.503 0 .937-.132 1.303-.402.342-.25.582-.575.72-.975.084.236.202.45.358.643.402.489.934.734 1.595.734.61 0 1.112-.247 1.504-.745v.594h1.193V.494l1.426 3.972-.42 1.197c.428-.091.86.06 1.14.373l2.182-5.8h-1.266z" mask="url(#prefix__d)"/>
            </g>
        </g>
    </g>
</svg>
