<svg xmlns="http://www.w3.org/2000/svg" width="14" height="12" viewBox="0 0 367 349" xml:space="preserve"><path class="selected" d="M297.75 348a14394.933 14394.933 0 0 0-33.355-124.038c-1.225-4.475-.93-7.116 3.193-10.354 25.636-20.128 50.934-40.69 76.31-61.149 6.186-4.988 12.28-10.094 18.333-15.244 1.007-.857 1.585-2.218 2.362-3.347-1.458-.614-2.873-1.601-4.38-1.772-4.604-.523-9.239-.834-13.87-1.039-9.455-.417-18.918-.655-28.374-1.066-22.544-.982-45.086-2.002-67.627-3.056-4.132-.193-8.257-.92-12.377-.85-3.65.063-5.565-1.641-6.733-4.72-8.102-21.36-16.195-42.724-24.288-64.087-6.393-16.874-12.75-33.761-19.227-50.603-.614-1.597-1.969-2.908-2.98-4.353-1.048 1.525-2.447 2.915-3.092 4.594-8.555 22.252-17.015 44.54-25.477 66.827-6.17 16.25-12.213 32.55-18.613 48.708-.635 1.604-3.314 3.29-5.134 3.395-15.902.922-31.828 1.442-47.742 2.18-20.545.952-41.087 1.981-61.63 3.008-5.295.265-10.588.598-15.874 1.013-1.222.095-2.407.657-3.61 1.005.735 1.07 1.278 2.368 2.236 3.172a1065.31 1065.31 0 0 0 17.666 14.486c14.577 11.705 29.193 23.362 43.785 35.048 11.492 9.205 22.935 18.472 34.482 27.608 3.492 2.764 4.706 5.527 3.38 10.252-7.596 27.073-14.789 54.258-22.115 81.407-3.103 11.498-6.268 22.981-9.22 34.518-.437 1.705.148 3.672.26 5.518 1.666-.562 3.54-.803 4.967-1.732 28.032-18.26 56.009-36.605 84.004-54.922 5.682-3.717 11.522-7.208 17.043-11.148 3.322-2.37 5.9-2.468 9.391-.14 21.5 14.33 43.138 28.454 64.75 42.616 14.128 9.257 28.29 18.461 42.622 27.977.184.288.684.288.934.288z"/></svg>