<svg xmlns="http://www.w3.org/2000/svg" xmlns:xlink="http://www.w3.org/1999/xlink" width="32" height="30" viewBox="0 0 32 30">
    <defs>
        <path id="prefix__a" d="M0 0.371L12.786 0.371 12.786 24.044 0 24.044z"/>
        <path id="prefix__c" d="M0.609 0.777L13.394 0.777 13.394 16.552 0.609 16.552z"/>
    </defs>
    <g fill="none" fill-rule="evenodd">
        <mask id="prefix__b" fill="#fff">
            <use xlink:href="#prefix__a"/>
        </mask>
        <path fill="#111" d="M.965 10.005c1.119 1.013 3.108 1.677 5.428 1.677s4.31-.664 5.429-1.677v2.203c0 1.223-2.23 2.586-5.429 2.586-3.199 0-5.428-1.363-5.428-2.586v-2.203zm0-4.12C2.084 6.897 4.073 7.56 6.393 7.56s4.31-.663 5.429-1.677v2.203c0 1.222-2.23 2.586-5.429 2.586-3.199 0-5.428-1.364-5.428-2.586V5.884zM6.393 1.38c3.2 0 5.429 1.363 5.429 2.586 0 1.223-2.23 2.586-5.429 2.586C3.194 6.552.965 5.19.965 3.966c0-1.223 2.23-2.586 5.428-2.586zm0 14.422c3.585 0 6.393-1.578 6.393-3.594V3.966c0-2.015-2.808-3.595-6.393-3.595S0 1.951 0 3.966v16.483c0 2.016 2.81 3.595 6.394 3.595v-1.01c-3.199 0-5.428-1.362-5.428-2.585v-2.203c1.119 1.013 3.108 1.677 5.428 1.677v-1.009c-3.199 0-5.428-1.363-5.428-2.586v-2.203c1.119 1.013 3.108 1.677 5.428 1.677z" mask="url(#prefix__b)"/>
        <path fill="#111" d="M25.29 14.494c-3.357 0-5.697-1.37-5.697-2.6V9.68c1.174 1.018 3.262 1.685 5.697 1.685 2.436 0 4.525-.667 5.698-1.686v2.215c0 1.23-2.339 2.6-5.698 2.6m0-9.342c3.359 0 5.698 1.37 5.698 2.6s-2.339 2.6-5.698 2.6c-3.357 0-5.697-1.37-5.697-2.6s2.34-2.6 5.697-2.6m0-1.014c-3.762 0-6.71 1.586-6.71 3.614v4.142c0 2.027 2.948 3.615 6.71 3.615 2.436 0 4.525-.668 5.698-1.687v2.215c0 1.23-2.339 2.6-5.698 2.6v1.014c2.436 0 4.525-.668 5.698-1.687v2.215c0 1.23-2.339 2.6-5.698 2.6v1.014c3.763 0 6.71-1.588 6.71-3.614V7.752c0-2.028-2.947-3.614-6.71-3.614"/>
        <g transform="translate(8.258 13.448)">
            <mask id="prefix__d" fill="#fff">
                <use xlink:href="#prefix__c"/>
            </mask>
            <path fill="#111" d="M7.001 7.095c-3.199 0-5.428-1.392-5.428-2.642S3.803 1.809 7 1.809c3.2 0 5.429 1.393 5.429 2.644 0 1.25-2.23 2.642-5.429 2.642m0 4.212c-3.199 0-5.428-1.391-5.428-2.641V6.413C2.692 7.448 4.68 8.128 7 8.128s4.31-.68 5.429-1.715v2.253c0 1.25-2.23 2.641-5.429 2.641m0 4.213c-3.199 0-5.428-1.392-5.428-2.643v-2.252C2.692 11.661 4.68 12.34 7 12.34s4.31-.679 5.429-1.715v2.252c0 1.25-2.23 2.643-5.429 2.643m0-14.743C3.416.777.61 2.392.61 4.453v8.424c0 2.06 2.807 3.675 6.392 3.675 3.585 0 6.393-1.614 6.393-3.675V4.453c0-2.06-2.808-3.676-6.393-3.676" mask="url(#prefix__d)"/>
        </g>
    </g>
</svg>
