<svg focusable="false" class="svgicon" xmlns="http://www.w3.org/2000/svg" width="22" height="22" viewBox="0 0 22 22"><g fill="currentColor" fill-rule="evenodd"><path fill-rule="nonzero" d="M11 .23C5.062.23.23 5.063.23 11S5.063 21.77 11 21.77 21.77 16.937 21.77 11 16.937.23 11 .23zm0 20.603c-5.422 0-9.833-4.41-9.833-9.833 0-5.422 4.41-9.833 9.833-9.833 5.422 0 9.833 4.41 9.833 9.833 0 5.422-4.41 9.833-9.833 9.833z"></path><path d="M11.674 6.292c0 .36-.3.674-.674.674a.671.671 0 0 1-.674-.674c0-.375.3-.675.674-.675.375 0 .674.285.674.675zm-.21 9.859h-.943V8.704h.943v7.447z"></path></g></svg>
