<svg width="12" height="12" viewBox="0 0 12 12" fill="none" xmlns="http://www.w3.org/2000/svg">
    <path fill-rule="evenodd" clip-rule="evenodd" d="M0 6c0-3.3 2.7-6 6-6s6 2.7 6 6-2.7 6-6 6-6-2.7-6-6zm1.5 0c0 2.475 2.025 4.5 4.5 4.5s4.5-2.025 4.5-4.5S8.475 1.5 6 1.5A4.513 4.513 0 0 0 1.5 6z" fill="#4A4A4A"/>
    <path fill-rule="evenodd" clip-rule="evenodd" d="M3 6c0-1.65 1.35-3 3-3s3 1.35 3 3-1.35 3-3 3-3-1.35-3-3zm1.5 0c0 .825.675 1.5 1.5 1.5S7.5 6.825 7.5 6 6.825 4.5 6 4.5 4.5 5.175 4.5 6z" fill="#4A4A4A"/>
</svg>
