<?xml version="1.0" encoding="UTF-8"?>
<svg width="16px" height="16px" viewBox="0 0 16 16" version="1.1" xmlns="http://www.w3.org/2000/svg" xmlns:xlink="http://www.w3.org/1999/xlink">
    <!-- Generator: sketchtool 41.2 (35397) - http://www.bohemiancoding.com/sketch -->
    <title>862F2979-AB09-48D3-A11D-E803310A4B73</title>
    <desc>Created with sketchtool.</desc>
    <defs></defs>
    <g id="Symbols" stroke="none" stroke-width="1" fill="none" fill-rule="evenodd">
        <g id="buttons/button--enlarge" transform="translate(-8.000000, -8.000000)" fill="#000000">
            <g id="icons/icon--enlarge-map" transform="translate(8.000000, 8.000000)">
                <path d="M6,0 L0,0 L0,6 L2.293,3.707 L4.293,5.707 L5.707,4.293 L3.707,2.293 L6,0 Z M16,6 L16,0 L10,0 L12.293,2.293 L10.293,4.293 L11.707,5.707 L13.707,3.707 L16,6 Z M10,16 L16,16 L16,10 L13.707,12.293 L11.707,10.293 L10.293,11.707 L12.293,13.707 L10,16 Z M0,10 L0,16 L6,16 L3.707,13.707 L5.707,11.707 L4.293,10.293 L2.293,12.293 L0,10 Z M6,7.0093689 C6,6.45190985 6.44335318,6 7.0093689,6 L8.9906311,6 C9.54809015,6 10,6.44335318 10,7.0093689 L10,8.9906311 C10,9.54809015 9.55664682,10 8.9906311,10 L7.0093689,10 C6.45190985,10 6,9.55664682 6,8.9906311 L6,7.0093689 Z" id="enlarge"></path>
            </g>
        </g>
    </g>
</svg>