<svg version="1.0" xmlns="http://www.w3.org/2000/svg"
	 width="107.000000pt" height="101.000000pt" viewBox="0 0 107.000000 101.000000"
	 preserveAspectRatio="xMidYMid meet">
	<g transform="translate(0.000000,101.000000) scale(0.100000,-0.100000)"
	   fill="#acacac" stroke="none">
		<path d="M875 989 c-11 -6 -117 -107 -235 -225 l-215 -214 -50 16 c-128 40
-274 -22 -335 -143 -36 -69 -36 -187 0 -256 98 -192 371 -208 489 -30 51 76
61 185 26 274 -4 11 22 43 86 107 l92 92 63 -60 c34 -33 66 -60 69 -60 17 0
195 185 195 203 0 10 -25 45 -56 77 -30 32 -51 61 -46 64 5 3 17 21 26 40 20
43 6 90 -35 111 -33 18 -47 18 -74 4z m-541 -593 c45 -19 66 -52 66 -102 0
-50 -27 -88 -74 -104 -44 -14 -77 -5 -112 31 -41 43 -41 105 0 148 25 26 38
33 79 40 4 0 23 -5 41 -13z"/>
	</g>
</svg>

