<?xml version="1.0" encoding="UTF-8"?>
<svg width="16px" height="16px" viewBox="0 0 16 16" version="1.1" xmlns="http://www.w3.org/2000/svg" xmlns:xlink="http://www.w3.org/1999/xlink">
    <!-- Generator: sketchtool 41.1 (35376) - http://www.bohemiancoding.com/sketch -->
    <title>2B2E4960-1056-4368-BE55-EACBCD179C95</title>
    <desc>Created with sketchtool.</desc>
    <defs></defs>
    <g id="Symbols" stroke="none" stroke-width="1" fill="none" fill-rule="evenodd">
        <g id="buttons/button--shrink" transform="translate(-8.000000, -8.000000)" fill="#000000">
            <g id="icons/icon--shrink-map" transform="translate(8.000000, 8.000000)">
                <path d="M8,10 C6.897,10 6,9.103 6,8 C6,6.897 6.897,6 8,6 C9.103,6 10,6.897 10,8 C10,9.103 9.103,10 8,10 Z M0,6 L6,6 L6,1.77635684e-15 L3.707,2.293 L1.707,0.293 L0.293,1.707 L2.293,3.707 L0,6 Z M10,8.8817842e-16 L10,6 L16,6 L13.707,3.707 L15.707,1.707 L14.293,0.293 L12.293,2.293 L10,8.8817842e-16 Z M16,10 L10,10 L10,16 L12.293,13.707 L14.293,15.707 L15.707,14.293 L13.707,12.293 L16,10 Z M6,16 L6,10 L8.8817842e-16,10 L2.293,12.293 L0.293,14.293 L1.707,15.707 L3.707,13.707 L6,16 Z" id="shrink"></path>
            </g>
        </g>
    </g>
</svg>